Istok-BoldItalic.ufo
<glyph name="numbersign" format="2">
  <advance width="1416"/>
  <unicode hex="0023"/>
  <outline>
    <contour>
      <point x="173.0" y="344.0" type="line" smooth="yes"/>
      <point x="113.0" y="344.0"/>
      <point x="121.0" y="394.0" type="qcurve" smooth="yes"/>
      <point x="136.0" y="474.0" type="line" smooth="yes"/>
      <point x="145.0" y="524.0"/>
      <point x="204.0" y="524.0" type="qcurve" smooth="yes"/>
      <point x="385.0" y="524.0" type="line"/>
      <point x="450.0" y="898.0" type="line"/>
      <point x="270.0" y="898.0" type="line" smooth="yes"/>
      <point x="211.0" y="898.0"/>
      <point x="219.0" y="948.0" type="qcurve" smooth="yes"/>
      <point x="233.0" y="1028.0" type="line" smooth="yes"/>
      <point x="242.0" y="1078.0"/>
      <point x="302.0" y="1078.0" type="qcurve" smooth="yes"/>
      <point x="482.0" y="1078.0" type="line"/>
      <point x="532.0" y="1362.0" type="line" smooth="yes"/>
      <point x="543.0" y="1422.0"/>
      <point x="593.0" y="1422.0" type="qcurve" smooth="yes"/>
      <point x="679.0" y="1422.0" type="line" smooth="yes"/>
      <point x="729.0" y="1422.0"/>
      <point x="718.0" y="1362.0" type="qcurve" smooth="yes"/>
      <point x="668.0" y="1078.0" type="line"/>
      <point x="966.0" y="1078.0" type="line"/>
      <point x="1016.0" y="1362.0" type="line" smooth="yes"/>
      <point x="1027.0" y="1422.0"/>
      <point x="1077.0" y="1422.0" type="qcurve" smooth="yes"/>
      <point x="1163.0" y="1422.0" type="line" smooth="yes"/>
      <point x="1213.0" y="1422.0"/>
      <point x="1202.0" y="1362.0" type="qcurve" smooth="yes"/>
      <point x="1152.0" y="1078.0" type="line"/>
      <point x="1332.0" y="1078.0" type="line" smooth="yes"/>
      <point x="1391.0" y="1078.0"/>
      <point x="1383.0" y="1028.0" type="qcurve" smooth="yes"/>
      <point x="1369.0" y="948.0" type="line" smooth="yes"/>
      <point x="1360.0" y="898.0"/>
      <point x="1300.0" y="898.0" type="qcurve" smooth="yes"/>
      <point x="1120.0" y="898.0" type="line"/>
      <point x="1055.0" y="524.0" type="line"/>
      <point x="1234.0" y="524.0" type="line" smooth="yes"/>
      <point x="1294.0" y="524.0"/>
      <point x="1286.0" y="474.0" type="qcurve" smooth="yes"/>
      <point x="1271.0" y="394.0" type="line" smooth="yes"/>
      <point x="1262.0" y="344.0"/>
      <point x="1203.0" y="344.0" type="qcurve" smooth="yes"/>
      <point x="1023.0" y="344.0" type="line"/>
      <point x="973.0" y="60.0" type="line" smooth="yes"/>
      <point x="962.0" y="0.0"/>
      <point x="912.0" y="0.0" type="qcurve" smooth="yes"/>
      <point x="826.0" y="0.0" type="line" smooth="yes"/>
      <point x="776.0" y="0.0"/>
      <point x="787.0" y="60.0" type="qcurve" smooth="yes"/>
      <point x="837.0" y="344.0" type="line"/>
      <point x="539.0" y="344.0" type="line"/>
      <point x="489.0" y="60.0" type="line" smooth="yes"/>
      <point x="478.0" y="0.0"/>
      <point x="428.0" y="0.0" type="qcurve" smooth="yes"/>
      <point x="342.0" y="0.0" type="line" smooth="yes"/>
      <point x="292.0" y="0.0"/>
      <point x="303.0" y="60.0" type="qcurve" smooth="yes"/>
      <point x="353.0" y="344.0" type="line"/>
    </contour>
    <contour>
      <point x="571.0" y="524.0" type="line"/>
      <point x="869.0" y="524.0" type="line"/>
      <point x="934.0" y="898.0" type="line"/>
      <point x="636.0" y="898.0" type="line"/>
    </contour>
  </outline>
</glyph>
<glyph name="ampersand" format="2">
  <advance width="1416"/>
  <unicode hex="0026"/>
  <outline>
    <contour>
      <point x="69.0" y="279.0" type="qcurve" smooth="yes"/>
      <point x="69.0" y="452.0"/>
      <point x="282.0" y="702.0"/>
      <point x="508.0" y="829.0" type="qcurve"/>
      <point x="455.0" y="909.0"/>
      <point x="407.0" y="1034.0"/>
      <point x="407.0" y="1134.0" type="qcurve" smooth="yes"/>
      <point x="407.0" y="1272.0"/>
      <point x="635.0" y="1468.0"/>
      <point x="833.0" y="1468.0" type="qcurve" smooth="yes"/>
      <point x="995.0" y="1468.0"/>
      <point x="1178.0" y="1300.0"/>
      <point x="1178.0" y="1185.0" type="qcurve" smooth="yes"/>
      <point x="1178.0" y="1061.0"/>
      <point x="1002.0" y="860.0"/>
      <point x="848.0" y="769.0" type="qcurve"/>
      <point x="1010.0" y="459.0" type="line"/>
      <point x="1060.0" y="504.0"/>
      <point x="1126.0" y="584.0"/>
      <point x="1164.0" y="645.0" type="qcurve" smooth="yes"/>
      <point x="1204.0" y="710.0"/>
      <point x="1258.0" y="675.0" type="qcurve" smooth="yes"/>
      <point x="1355.0" y="613.0" type="line" smooth="yes"/>
      <point x="1375.0" y="601.0"/>
      <point x="1344.0" y="538.0" type="qcurve" smooth="yes"/>
      <point x="1304.0" y="456.0"/>
      <point x="1204.0" y="329.0"/>
      <point x="1114.0" y="264.0" type="qcurve"/>
      <point x="1218.0" y="66.0" type="line" smooth="yes"/>
      <point x="1253.0" y="0.0"/>
      <point x="1172.0" y="0.0" type="qcurve" smooth="yes"/>
      <point x="1017.0" y="0.0" type="line" smooth="yes"/>
      <point x="946.0" y="0.0"/>
      <point x="914.0" y="59.0" type="qcurve" smooth="yes"/>
      <point x="884.0" y="115.0" type="line"/>
      <point x="801.0" y="42.0"/>
      <point x="562.0" y="-34.0"/>
      <point x="449.0" y="-34.0" type="qcurve" smooth="yes"/>
      <point x="244.0" y="-34.0"/>
      <point x="69.0" y="148.0"/>
    </contour>
    <contour>
      <point x="369.0" y="314.0" type="qcurve" smooth="yes"/>
      <point x="369.0" y="254.0"/>
      <point x="435.0" y="184.0"/>
      <point x="505.0" y="184.0" type="qcurve" smooth="yes"/>
      <point x="588.0" y="184.0"/>
      <point x="713.0" y="248.0"/>
      <point x="784.0" y="303.0" type="qcurve"/>
      <point x="614.0" y="624.0" type="line"/>
      <point x="500.0" y="546.0"/>
      <point x="369.0" y="406.0"/>
    </contour>
    <contour>
      <point x="677.0" y="1133.0" type="qcurve" smooth="yes"/>
      <point x="677.0" y="1086.0"/>
      <point x="696.0" y="1010.0"/>
      <point x="738.0" y="954.0" type="qcurve"/>
      <point x="836.0" y="1010.0"/>
      <point x="908.0" y="1092.0"/>
      <point x="908.0" y="1145.0" type="qcurve" smooth="yes"/>
      <point x="908.0" y="1184.0"/>
      <point x="860.0" y="1238.0"/>
      <point x="801.0" y="1238.0" type="qcurve" smooth="yes"/>
      <point x="746.0" y="1238.0"/>
      <point x="677.0" y="1164.0"/>
    </contour>
  </outline>
</glyph>
<glyph name="quotesingle" format="2">
  <advance width="560"/>
  <unicode hex="0027"/>
  <outline>
    <contour>
      <point x="346.0" y="1404.0" type="line" smooth="yes"/>
      <point x="358.0" y="1469.0"/>
      <point x="412.0" y="1469.0" type="qcurve" smooth="yes"/>
      <point x="586.0" y="1469.0" type="line" smooth="yes"/>
      <point x="640.0" y="1469.0"/>
      <point x="622.0" y="1404.0" type="qcurve" smooth="yes"/>
      <point x="478.0" y="884.0" type="line" smooth="yes"/>
      <point x="461.0" y="824.0"/>
      <point x="414.0" y="824.0" type="qcurve" smooth="yes"/>
      <point x="286.0" y="824.0" type="line" smooth="yes"/>
      <point x="239.0" y="824.0"/>
      <point x="250.0" y="884.0" type="qcurve" smooth="yes"/>
    </contour>
  </outline>
</glyph>
<glyph name="parenright" format="2">
  <advance width="740"/>
  <unicode hex="0029"/>
  <outline>
    <contour>
      <point x="-143.0" y="-370.0" type="line" smooth="yes"/>
      <point x="-176.0" y="-338.0"/>
      <point x="-126.0" y="-298.0" type="qcurve" smooth="yes"/>
      <point x="44.0" y="-160.0"/>
      <point x="375.0" y="348.0"/>
      <point x="375.0" y="761.0" type="qcurve" smooth="yes"/>
      <point x="375.0" y="1012.0"/>
      <point x="332.0" y="1283.0"/>
      <point x="279.0" y="1403.0" type="qcurve" smooth="yes"/>
      <point x="253.0" y="1461.0"/>
      <point x="292.0" y="1486.0" type="qcurve" smooth="yes"/>
      <point x="373.0" y="1538.0" type="line" smooth="yes"/>
      <point x="415.0" y="1565.0"/>
      <point x="451.0" y="1514.0" type="qcurve" smooth="yes"/>
      <point x="548.0" y="1379.0"/>
      <point x="675.0" y="988.0"/>
      <point x="675.0" y="749.0" type="qcurve" smooth="yes"/>
      <point x="675.0" y="320.0"/>
      <point x="208.0" y="-336.0"/>
      <point x="14.0" y="-443.0" type="qcurve" smooth="yes"/>
      <point x="-36.0" y="-470.0"/>
      <point x="-57.0" y="-452.0" type="qcurve"/>
    </contour>
  </outline>
</glyph>
<glyph name="asterisk" format="2">
  <advance width="960"/>
  <unicode hex="002A"/>
  <outline>
    <contour>
      <point x="472.0" y="1058.0" type="line"/>
      <point x="296.0" y="1142.0" type="line" smooth="yes"/>
      <point x="219.0" y="1179.0"/>
      <point x="277.0" y="1253.0" type="qcurve" smooth="yes"/>
      <point x="302.0" y="1284.0" type="line" smooth="yes"/>
      <point x="361.0" y="1356.0"/>
      <point x="423.0" y="1300.0" type="qcurve" smooth="yes"/>
      <point x="565.0" y="1172.0" type="line"/>
      <point x="589.0" y="1385.0" type="line" smooth="yes"/>
      <point x="599.0" y="1478.0"/>
      <point x="683.0" y="1478.0" type="qcurve" smooth="yes"/>
      <point x="719.0" y="1478.0" type="line" smooth="yes"/>
      <point x="803.0" y="1478.0"/>
      <point x="771.0" y="1385.0" type="qcurve" smooth="yes"/>
      <point x="697.0" y="1172.0" type="line"/>
      <point x="897.0" y="1300.0" type="line" smooth="yes"/>
      <point x="986.0" y="1357.0"/>
      <point x="1011.0" y="1283.0" type="qcurve" smooth="yes"/>
      <point x="1022.0" y="1252.0" type="line" smooth="yes"/>
      <point x="1047.0" y="1179.0"/>
      <point x="952.0" y="1142.0" type="qcurve" smooth="yes"/>
      <point x="736.0" y="1058.0" type="line"/>
      <point x="914.0" y="973.0" type="line" smooth="yes"/>
      <point x="991.0" y="936.0"/>
      <point x="932.0" y="864.0" type="qcurve" smooth="yes"/>
      <point x="907.0" y="833.0" type="line" smooth="yes"/>
      <point x="848.0" y="760.0"/>
      <point x="786.0" y="816.0" type="qcurve" smooth="yes"/>
      <point x="644.0" y="944.0" type="line"/>
      <point x="620.0" y="732.0" type="line" smooth="yes"/>
      <point x="609.0" y="638.0"/>
      <point x="524.0" y="638.0" type="qcurve" smooth="yes"/>
      <point x="489.0" y="638.0" type="line" smooth="yes"/>
      <point x="405.0" y="638.0"/>
      <point x="438.0" y="732.0" type="qcurve" smooth="yes"/>
      <point x="512.0" y="944.0" type="line"/>
      <point x="311.0" y="816.0" type="line" smooth="yes"/>
      <point x="222.0" y="759.0"/>
      <point x="197.0" y="832.0" type="qcurve" smooth="yes"/>
      <point x="186.0" y="863.0" type="line" smooth="yes"/>
      <point x="160.0" y="936.0"/>
      <point x="257.0" y="974.0" type="qcurve" smooth="yes"/>
    </contour>
  </outline>
</glyph>
<glyph name="comma" format="2">
  <advance width="668"/>
  <unicode hex="002C"/>
  <outline>
    <contour>
      <point x="136.0" y="0.0" type="line" smooth="yes"/>
      <point x="66.0" y="0.0"/>
      <point x="83.0" y="75.0" type="qcurve" smooth="yes"/>
      <point x="114.0" y="209.0" type="line" smooth="yes"/>
      <point x="131.0" y="284.0"/>
      <point x="202.0" y="284.0" type="qcurve" smooth="yes"/>
      <point x="358.0" y="284.0" type="line" smooth="yes"/>
      <point x="428.0" y="284.0"/>
      <point x="410.0" y="209.0" type="qcurve" smooth="yes"/>
      <point x="379.0" y="75.0" type="line" smooth="yes"/>
      <point x="354.0" y="-34.0"/>
      <point x="286.0" y="-210.0"/>
      <point x="197.0" y="-282.0" type="qcurve" smooth="yes"/>
      <point x="145.0" y="-324.0"/>
      <point x="115.0" y="-290.0" type="qcurve" smooth="yes"/>
      <point x="80.0" y="-253.0" type="line" smooth="yes"/>
      <point x="51.0" y="-223.0"/>
      <point x="109.0" y="-178.0" type="qcurve" smooth="yes"/>
      <point x="146.0" y="-149.0"/>
      <point x="192.0" y="-58.0"/>
      <point x="205.0" y="0.0" type="qcurve"/>
    </contour>
  </outline>
</glyph>
<glyph name="period" format="2">
  <advance width="668"/>
  <unicode hex="002E"/>
  <outline>
    <contour>
      <point x="138.0" y="0.0" type="line" smooth="yes"/>
      <point x="68.0" y="0.0"/>
      <point x="85.0" y="75.0" type="qcurve" smooth="yes"/>
      <point x="116.0" y="209.0" type="line" smooth="yes"/>
      <point x="133.0" y="284.0"/>
      <point x="204.0" y="284.0" type="qcurve" smooth="yes"/>
      <point x="356.0" y="284.0" type="line" smooth="yes"/>
      <point x="426.0" y="284.0"/>
      <point x="408.0" y="209.0" type="qcurve" smooth="yes"/>
      <point x="377.0" y="75.0" type="line" smooth="yes"/>
      <point x="360.0" y="0.0"/>
      <point x="290.0" y="0.0" type="qcurve" smooth="yes"/>
    </contour>
  </outline>
</glyph>
<glyph name="zero" format="2">
  <advance width="1200"/>
  <unicode hex="0030"/>
  <outline>
    <contour>
      <point x="100.0" y="489.0" type="qcurve" smooth="yes"/>
      <point x="100.0" y="809.0"/>
      <point x="385.0" y="1456.0"/>
      <point x="760.0" y="1456.0" type="qcurve" smooth="yes"/>
      <point x="950.0" y="1456.0"/>
      <point x="1188.0" y="1223.0"/>
      <point x="1188.0" y="933.0" type="qcurve" smooth="yes"/>
      <point x="1188.0" y="613.0"/>
      <point x="903.0" y="-34.0"/>
      <point x="528.0" y="-34.0" type="qcurve" smooth="yes"/>
      <point x="338.0" y="-34.0"/>
      <point x="100.0" y="199.0"/>
    </contour>
    <contour>
      <point x="396.0" y="449.0" type="qcurve" smooth="yes"/>
      <point x="396.0" y="309.0"/>
      <point x="471.0" y="184.0"/>
      <point x="546.0" y="184.0" type="qcurve" smooth="yes"/>
      <point x="721.0" y="184.0"/>
      <point x="892.0" y="748.0"/>
      <point x="892.0" y="973.0" type="qcurve" smooth="yes"/>
      <point x="892.0" y="1113.0"/>
      <point x="817.0" y="1238.0"/>
      <point x="742.0" y="1238.0" type="qcurve" smooth="yes"/>
      <point x="567.0" y="1238.0"/>
      <point x="396.0" y="674.0"/>
    </contour>
  </outline>
</glyph>
<glyph name="three" format="2">
  <advance width="1200"/>
  <unicode hex="0033"/>
  <outline>
    <contour>
      <point x="48.0" y="95.0" type="qcurve" smooth="yes"/>
      <point x="-3.0" y="137.0"/>
      <point x="22.0" y="183.0" type="qcurve" smooth="yes"/>
      <point x="74.0" y="280.0" type="line" smooth="yes"/>
      <point x="107.0" y="342.0"/>
      <point x="181.0" y="289.0" type="qcurve" smooth="yes"/>
      <point x="237.0" y="249.0"/>
      <point x="394.0" y="190.0"/>
      <point x="491.0" y="190.0" type="qcurve" smooth="yes"/>
      <point x="646.0" y="190.0"/>
      <point x="795.0" y="344.0"/>
      <point x="795.0" y="442.0" type="qcurve" smooth="yes"/>
      <point x="795.0" y="544.0"/>
      <point x="668.0" y="658.0"/>
      <point x="569.0" y="658.0" type="qcurve" smooth="yes"/>
      <point x="504.0" y="658.0" type="line" smooth="yes"/>
      <point x="438.0" y="658.0"/>
      <point x="451.0" y="711.0" type="qcurve" smooth="yes"/>
      <point x="477.0" y="821.0" type="line" smooth="yes"/>
      <point x="490.0" y="876.0"/>
      <point x="554.0" y="876.0" type="qcurve" smooth="yes"/>
      <point x="604.0" y="876.0" type="line" smooth="yes"/>
      <point x="728.0" y="876.0"/>
      <point x="897.0" y="1004.0"/>
      <point x="897.0" y="1096.0" type="qcurve" smooth="yes"/>
      <point x="897.0" y="1156.0"/>
      <point x="804.0" y="1232.0"/>
      <point x="699.0" y="1232.0" type="qcurve" smooth="yes"/>
      <point x="610.0" y="1232.0"/>
      <point x="478.0" y="1174.0"/>
      <point x="428.0" y="1136.0" type="qcurve" smooth="yes"/>
      <point x="363.0" y="1087.0"/>
      <point x="325.0" y="1141.0" type="qcurve" smooth="yes"/>
      <point x="271.0" y="1217.0" type="line" smooth="yes"/>
      <point x="235.0" y="1267.0"/>
      <point x="291.0" y="1315.0" type="qcurve" smooth="yes"/>
      <point x="363.0" y="1377.0"/>
      <point x="606.0" y="1456.0"/>
      <point x="752.0" y="1456.0" type="qcurve" smooth="yes"/>
      <point x="976.0" y="1456.0"/>
      <point x="1189.0" y="1252.0"/>
      <point x="1189.0" y="1123.0" type="qcurve" smooth="yes"/>
      <point x="1189.0" y="978.0"/>
      <point x="966.0" y="800.0"/>
      <point x="834.0" y="778.0" type="qcurve"/>
      <point x="834.0" y="774.0" type="line"/>
      <point x="946.0" y="748.0"/>
      <point x="1095.0" y="562.0"/>
      <point x="1095.0" y="427.0" type="qcurve" smooth="yes"/>
      <point x="1095.0" y="260.0"/>
      <point x="804.0" y="-34.0"/>
      <point x="473.0" y="-34.0" type="qcurve" smooth="yes"/>
      <point x="359.0" y="-34.0"/>
      <point x="122.0" y="32.0"/>
    </contour>
  </outline>
</glyph>
<glyph name="four" format="2">
  <advance width="1200"/>
  <unicode hex="0034"/>
  <outline>
    <contour>
      <point x="79.0" y="312.0" type="line" smooth="yes"/>
      <point x="14.0" y="312.0"/>
      <point x="29.0" y="377.0" type="qcurve" smooth="yes"/>
      <point x="60.0" y="509.0" type="line" smooth="yes"/>
      <point x="73.0" y="565.0"/>
      <point x="112.0" y="608.0" type="qcurve" smooth="yes"/>
      <point x="830.0" y="1388.0" type="line" smooth="yes"/>
      <point x="878.0" y="1440.0"/>
      <point x="935.0" y="1440.0" type="qcurve" smooth="yes"/>
      <point x="1098.0" y="1440.0" type="line" smooth="yes"/>
      <point x="1164.0" y="1440.0"/>
      <point x="1149.0" y="1375.0" type="qcurve" smooth="yes"/>
      <point x="961.0" y="560.0" type="line"/>
      <point x="1082.0" y="560.0" type="line" smooth="yes"/>
      <point x="1147.0" y="560.0"/>
      <point x="1132.0" y="495.0" type="qcurve" smooth="yes"/>
      <point x="1105.0" y="377.0" type="line" smooth="yes"/>
      <point x="1090.0" y="312.0"/>
      <point x="1026.0" y="312.0" type="qcurve" smooth="yes"/>
      <point x="904.0" y="312.0" type="line"/>
      <point x="847.0" y="65.0" type="line" smooth="yes"/>
      <point x="832.0" y="0.0"/>
      <point x="767.0" y="0.0" type="qcurve" smooth="yes"/>
      <point x="617.0" y="0.0" type="line" smooth="yes"/>
      <point x="552.0" y="0.0"/>
      <point x="567.0" y="65.0" type="qcurve" smooth="yes"/>
      <point x="624.0" y="312.0" type="line"/>
    </contour>
    <contour>
      <point x="380.0" y="560.0" type="line"/>
      <point x="681.0" y="560.0" type="line"/>
      <point x="764.0" y="917.0" type="line" smooth="yes"/>
      <point x="773.0" y="957.0"/>
      <point x="786.0" y="997.0" type="qcurve"/>
      <point x="782.0" y="997.0" type="line"/>
    </contour>
  </outline>
</glyph>
<glyph name="five" format="2">
  <advance width="1200"/>
  <unicode hex="0035"/>
  <outline>
    <contour>
      <point x="32.0" y="105.0" type="qcurve" smooth="yes"/>
      <point x="-7.0" y="145.0"/>
      <point x="23.0" y="181.0" type="qcurve" smooth="yes"/>
      <point x="101.0" y="276.0" type="line" smooth="yes"/>
      <point x="146.0" y="331.0"/>
      <point x="203.0" y="279.0" type="qcurve" smooth="yes"/>
      <point x="258.0" y="228.0"/>
      <point x="363.0" y="190.0"/>
      <point x="465.0" y="190.0" type="qcurve" smooth="yes"/>
      <point x="600.0" y="190.0"/>
      <point x="794.0" y="366.0"/>
      <point x="794.0" y="527.0" type="qcurve" smooth="yes"/>
      <point x="794.0" y="642.0"/>
      <point x="690.0" y="702.0"/>
      <point x="635.0" y="702.0" type="qcurve" smooth="yes"/>
      <point x="582.0" y="702.0"/>
      <point x="509.0" y="682.0"/>
      <point x="434.0" y="635.0" type="qcurve" smooth="yes"/>
      <point x="382.0" y="602.0"/>
      <point x="334.0" y="602.0" type="qcurve" smooth="yes"/>
      <point x="225.0" y="602.0" type="line" smooth="yes"/>
      <point x="160.0" y="602.0"/>
      <point x="175.0" y="667.0" type="qcurve" smooth="yes"/>
      <point x="334.0" y="1357.0" type="line" smooth="yes"/>
      <point x="349.0" y="1422.0"/>
      <point x="414.0" y="1422.0" type="qcurve" smooth="yes"/>
      <point x="1134.0" y="1422.0" type="line" smooth="yes"/>
      <point x="1199.0" y="1422.0"/>
      <point x="1184.0" y="1357.0" type="qcurve" smooth="yes"/>
      <point x="1157.0" y="1239.0" type="line" smooth="yes"/>
      <point x="1142.0" y="1174.0"/>
      <point x="1077.0" y="1174.0" type="qcurve" smooth="yes"/>
      <point x="572.0" y="1174.0" type="line"/>
      <point x="515.0" y="929.0" type="line" smooth="yes"/>
      <point x="505.0" y="886.0"/>
      <point x="488.0" y="849.0" type="qcurve"/>
      <point x="499.0" y="849.0" type="line"/>
      <point x="564.0" y="894.0"/>
      <point x="682.0" y="926.0"/>
      <point x="760.0" y="926.0" type="qcurve" smooth="yes"/>
      <point x="906.0" y="926.0"/>
      <point x="1094.0" y="717.0"/>
      <point x="1094.0" y="513.0" type="qcurve" smooth="yes"/>
      <point x="1094.0" y="300.0"/>
      <point x="753.0" y="-34.0"/>
      <point x="478.0" y="-34.0" type="qcurve" smooth="yes"/>
      <point x="333.0" y="-34.0"/>
      <point x="111.0" y="24.0"/>
    </contour>
  </outline>
</glyph>
<glyph name="eight" format="2">
  <advance width="1200"/>
  <unicode hex="0038"/>
  <outline>
    <contour>
      <point x="54.0" y="331.0" type="qcurve" smooth="yes"/>
      <point x="54.0" y="516.0"/>
      <point x="291.0" y="750.0"/>
      <point x="432.0" y="767.0" type="qcurve"/>
      <point x="432.0" y="772.0" type="line"/>
      <point x="369.0" y="801.0"/>
      <point x="256.0" y="915.0"/>
      <point x="256.0" y="1025.0" type="qcurve" smooth="yes"/>
      <point x="256.0" y="1209.0"/>
      <point x="554.0" y="1456.0"/>
      <point x="774.0" y="1456.0" type="qcurve" smooth="yes"/>
      <point x="1012.0" y="1456.0"/>
      <point x="1207.0" y="1266.0"/>
      <point x="1207.0" y="1123.0" type="qcurve" smooth="yes"/>
      <point x="1207.0" y="978.0"/>
      <point x="984.0" y="798.0"/>
      <point x="886.0" y="772.0" type="qcurve"/>
      <point x="886.0" y="767.0" type="line"/>
      <point x="969.0" y="729.0"/>
      <point x="1091.0" y="594.0"/>
      <point x="1091.0" y="443.0" type="qcurve" smooth="yes"/>
      <point x="1091.0" y="267.0"/>
      <point x="800.0" y="-34.0"/>
      <point x="526.0" y="-34.0" type="qcurve" smooth="yes"/>
      <point x="303.0" y="-34.0"/>
      <point x="54.0" y="130.0"/>
    </contour>
    <contour>
      <point x="354.0" y="381.0" type="qcurve" smooth="yes"/>
      <point x="354.0" y="266.0"/>
      <point x="456.0" y="190.0"/>
      <point x="546.0" y="190.0" type="qcurve" smooth="yes"/>
      <point x="646.0" y="190.0"/>
      <point x="791.0" y="339.0"/>
      <point x="791.0" y="453.0" type="qcurve" smooth="yes"/>
      <point x="791.0" y="537.0"/>
      <point x="711.0" y="644.0"/>
      <point x="625.0" y="644.0" type="qcurve" smooth="yes"/>
      <point x="510.0" y="644.0"/>
      <point x="354.0" y="476.0"/>
    </contour>
    <contour>
      <point x="548.0" y="1035.0" type="qcurve" smooth="yes"/>
      <point x="548.0" y="952.0"/>
      <point x="630.0" y="886.0"/>
      <point x="683.0" y="886.0" type="qcurve" smooth="yes"/>
      <point x="801.0" y="886.0"/>
      <point x="915.0" y="1014.0"/>
      <point x="915.0" y="1093.0" type="qcurve" smooth="yes"/>
      <point x="915.0" y="1156.0"/>
      <point x="832.0" y="1232.0"/>
      <point x="754.0" y="1232.0" type="qcurve" smooth="yes"/>
      <point x="668.0" y="1232.0"/>
      <point x="548.0" y="1120.0"/>
    </contour>
  </outline>
</glyph>
<glyph name="greater" format="2">
  <advance width="1327"/>
  <unicode hex="003E"/>
  <outline>
    <contour>
      <point x="144.0" y="220.0" type="line" smooth="yes"/>
      <point x="121.0" y="264.0"/>
      <point x="173.0" y="292.0" type="qcurve" smooth="yes"/>
      <point x="1007.0" y="734.0" type="line"/>
      <point x="1007.0" y="736.0" type="line"/>
      <point x="173.0" y="1178.0" type="line" smooth="yes"/>
      <point x="121.0" y="1206.0"/>
      <point x="144.0" y="1250.0" type="qcurve" smooth="yes"/>
      <point x="181.0" y="1321.0" type="line" smooth="yes"/>
      <point x="205.0" y="1365.0"/>
      <point x="258.0" y="1337.0" type="qcurve" smooth="yes"/>
      <point x="1199.0" y="836.0" type="line" smooth="yes"/>
      <point x="1239.0" y="815.0"/>
      <point x="1239.0" y="781.0" type="qcurve" smooth="yes"/>
      <point x="1239.0" y="689.0" type="line" smooth="yes"/>
      <point x="1239.0" y="655.0"/>
      <point x="1199.0" y="634.0" type="qcurve" smooth="yes"/>
      <point x="258.0" y="133.0" type="line" smooth="yes"/>
      <point x="205.0" y="105.0"/>
      <point x="181.0" y="149.0" type="qcurve" smooth="yes"/>
    </contour>
  </outline>
</glyph>
<glyph name="question" format="2">
  <advance width="1106"/>
  <unicode hex="003F"/>
  <outline>
    <contour>
      <point x="258.0" y="1164.0" type="line" smooth="yes"/>
      <point x="199.0" y="1217.0"/>
      <point x="245.0" y="1266.0" type="qcurve" smooth="yes"/>
      <point x="312.0" y="1338.0"/>
      <point x="534.0" y="1468.0"/>
      <point x="704.0" y="1468.0" type="qcurve" smooth="yes"/>
      <point x="900.0" y="1468.0"/>
      <point x="1136.0" y="1323.0"/>
      <point x="1136.0" y="1158.0" type="qcurve" smooth="yes"/>
      <point x="1136.0" y="948.0"/>
      <point x="702.0" y="628.0"/>
      <point x="669.0" y="494.0" type="qcurve" smooth="yes"/>
      <point x="665.0" y="478.0" type="line" smooth="yes"/>
      <point x="649.0" y="413.0"/>
      <point x="585.0" y="413.0" type="qcurve" smooth="yes"/>
      <point x="435.0" y="413.0" type="line" smooth="yes"/>
      <point x="370.0" y="413.0"/>
      <point x="385.0" y="478.0" type="qcurve" smooth="yes"/>
      <point x="392.0" y="508.0" type="line" smooth="yes"/>
      <point x="444.0" y="730.0"/>
      <point x="836.0" y="1017.0"/>
      <point x="836.0" y="1134.0" type="qcurve" smooth="yes"/>
      <point x="836.0" y="1180.0"/>
      <point x="768.0" y="1244.0"/>
      <point x="684.0" y="1244.0" type="qcurve" smooth="yes"/>
      <point x="614.0" y="1244.0"/>
      <point x="480.0" y="1161.0"/>
      <point x="434.0" y="1105.0" type="qcurve" smooth="yes"/>
      <point x="387.0" y="1048.0"/>
      <point x="345.0" y="1086.0" type="qcurve" smooth="yes"/>
    </contour>
    <contour>
      <point x="339.0" y="0.0" type="line" smooth="yes"/>
      <point x="269.0" y="0.0"/>
      <point x="286.0" y="75.0" type="qcurve" smooth="yes"/>
      <point x="317.0" y="209.0" type="line" smooth="yes"/>
      <point x="334.0" y="284.0"/>
      <point x="405.0" y="284.0" type="qcurve" smooth="yes"/>
      <point x="557.0" y="284.0" type="line" smooth="yes"/>
      <point x="627.0" y="284.0"/>
      <point x="609.0" y="209.0" type="qcurve" smooth="yes"/>
      <point x="578.0" y="75.0" type="line" smooth="yes"/>
      <point x="561.0" y="0.0"/>
      <point x="491.0" y="0.0" type="qcurve" smooth="yes"/>
    </contour>
  </outline>
</glyph>
<glyph name="at" format="2">
  <advance width="2074"/>
  <unicode hex="0040"/>
  <outline>
    <contour>
      <point x="112.0" y="564.0" type="qcurve" smooth="yes"/>
      <point x="112.0" y="964.0"/>
      <point x="639.0" y="1500.0"/>
      <point x="1063.0" y="1500.0" type="qcurve" smooth="yes"/>
      <point x="1451.0" y="1500.0"/>
      <point x="1962.0" y="1076.0"/>
      <point x="1962.0" y="700.0" type="qcurve" smooth="yes"/>
      <point x="1962.0" y="406.0"/>
      <point x="1675.0" y="100.0"/>
      <point x="1439.0" y="100.0" type="qcurve" smooth="yes"/>
      <point x="1337.0" y="100.0"/>
      <point x="1213.0" y="167.0"/>
      <point x="1189.0" y="271.0" type="qcurve"/>
      <point x="1187.0" y="271.0" type="line"/>
      <point x="1126.0" y="194.0"/>
      <point x="990.0" y="100.0"/>
      <point x="872.0" y="100.0" type="qcurve" smooth="yes"/>
      <point x="755.0" y="100.0"/>
      <point x="564.0" y="276.0"/>
      <point x="564.0" y="487.0" type="qcurve" smooth="yes"/>
      <point x="564.0" y="714.0"/>
      <point x="867.0" y="1043.0"/>
      <point x="1075.0" y="1043.0" type="qcurve" smooth="yes"/>
      <point x="1215.0" y="1043.0"/>
      <point x="1266.0" y="897.0" type="qcurve"/>
      <point x="1270.0" y="897.0" type="line"/>
      <point x="1284.0" y="958.0" type="line" smooth="yes"/>
      <point x="1295.0" y="1006.0"/>
      <point x="1343.0" y="1006.0" type="qcurve" smooth="yes"/>
      <point x="1482.0" y="1006.0" type="line" smooth="yes"/>
      <point x="1533.0" y="1006.0"/>
      <point x="1521.0" y="954.0" type="qcurve" smooth="yes"/>
      <point x="1401.0" y="422.0" type="line" smooth="yes"/>
      <point x="1384.0" y="347.0"/>
      <point x="1401.0" y="280.0"/>
      <point x="1450.0" y="280.0" type="qcurve" smooth="yes"/>
      <point x="1595.0" y="280.0"/>
      <point x="1774.0" y="476.0"/>
      <point x="1774.0" y="661.0" type="qcurve" smooth="yes"/>
      <point x="1774.0" y="972.0"/>
      <point x="1399.0" y="1318.0"/>
      <point x="1063.0" y="1318.0" type="qcurve" smooth="yes"/>
      <point x="731.0" y="1318.0"/>
      <point x="300.0" y="892.0"/>
      <point x="300.0" y="570.0" type="qcurve" smooth="yes"/>
      <point x="300.0" y="244.0"/>
      <point x="727.0" y="-176.0"/>
      <point x="1061.0" y="-176.0" type="qcurve" smooth="yes"/>
      <point x="1211.0" y="-176.0"/>
      <point x="1438.0" y="-130.0"/>
      <point x="1582.0" y="-50.0" type="qcurve" smooth="yes"/>
      <point x="1627.0" y="-25.0"/>
      <point x="1641.0" y="-47.0" type="qcurve" smooth="yes"/>
      <point x="1703.0" y="-140.0" type="line" smooth="yes"/>
      <point x="1730.0" y="-181.0"/>
      <point x="1687.0" y="-206.0" type="qcurve" smooth="yes"/>
      <point x="1539.0" y="-294.0"/>
      <point x="1188.0" y="-358.0"/>
      <point x="1050.0" y="-358.0" type="qcurve" smooth="yes"/>
      <point x="647.0" y="-358.0"/>
      <point x="112.0" y="168.0"/>
    </contour>
    <contour>
      <point x="806.0" y="433.0" type="qcurve" smooth="yes"/>
      <point x="806.0" y="366.0"/>
      <point x="870.0" y="280.0"/>
      <point x="924.0" y="280.0" type="qcurve" smooth="yes"/>
      <point x="1017.0" y="280.0"/>
      <point x="1181.0" y="473.0"/>
      <point x="1196.0" y="582.0" type="qcurve" smooth="yes"/>
      <point x="1205.0" y="648.0"/>
      <point x="1205.0" y="704.0" type="qcurve" smooth="yes"/>
      <point x="1205.0" y="768.0"/>
      <point x="1133.0" y="863.0"/>
      <point x="1079.0" y="863.0" type="qcurve" smooth="yes"/>
      <point x="987.0" y="863.0"/>
      <point x="806.0" y="651.0"/>
    </contour>
  </outline>
</glyph>
<glyph name="D" format="2">
  <advance width="1402"/>
  <unicode hex="0044"/>
  <outline>
    <contour>
      <point x="110.0" y="0.0" type="line" smooth="yes"/>
      <point x="40.0" y="0.0"/>
      <point x="57.0" y="75.0" type="qcurve" smooth="yes"/>
      <point x="354.0" y="1359.0" type="line" smooth="yes"/>
      <point x="371.0" y="1434.0"/>
      <point x="441.0" y="1434.0" type="qcurve" smooth="yes"/>
      <point x="740.0" y="1434.0" type="line" smooth="yes"/>
      <point x="1098.0" y="1434.0"/>
      <point x="1410.0" y="1104.0"/>
      <point x="1410.0" y="831.0" type="qcurve" smooth="yes"/>
      <point x="1410.0" y="471.0"/>
      <point x="956.0" y="0.0"/>
      <point x="489.0" y="0.0" type="qcurve" smooth="yes"/>
    </contour>
    <contour>
      <point x="389.0" y="248.0" type="line"/>
      <point x="527.0" y="248.0" type="line" smooth="yes"/>
      <point x="828.0" y="248.0"/>
      <point x="1098.0" y="568.0"/>
      <point x="1098.0" y="852.0" type="qcurve" smooth="yes"/>
      <point x="1098.0" y="1005.0"/>
      <point x="951.0" y="1188.0"/>
      <point x="684.0" y="1188.0" type="qcurve" smooth="yes"/>
      <point x="606.0" y="1188.0" type="line"/>
    </contour>
  </outline>
</glyph>
<glyph name="I" format="2">
  <advance width="612"/>
  <unicode hex="0049"/>
  <outline>
    <contour>
      <point x="110.0" y="0.0" type="line" smooth="yes"/>
      <point x="40.0" y="0.0"/>
      <point x="57.0" y="75.0" type="qcurve" smooth="yes"/>
      <point x="354.0" y="1359.0" type="line" smooth="yes"/>
      <point x="371.0" y="1434.0"/>
      <point x="441.0" y="1434.0" type="qcurve" smooth="yes"/>
      <point x="593.0" y="1434.0" type="line" smooth="yes"/>
      <point x="663.0" y="1434.0"/>
      <point x="646.0" y="1359.0" type="qcurve" smooth="yes"/>
      <point x="349.0" y="75.0" type="line" smooth="yes"/>
      <point x="332.0" y="0.0"/>
      <point x="262.0" y="0.0" type="qcurve" smooth="yes"/>
    </contour>
  </outline>
</glyph>
<glyph name="K" format="2">
  <advance width="1361"/>
  <unicode hex="004B"/>
  <outline>
    <contour>
      <point x="110.0" y="0.0" type="line" smooth="yes"/>
      <point x="40.0" y="0.0"/>
      <point x="57.0" y="75.0" type="qcurve" smooth="yes"/>
      <point x="354.0" y="1359.0" type="line" smooth="yes"/>
      <point x="371.0" y="1434.0"/>
      <point x="441.0" y="1434.0" type="qcurve" smooth="yes"/>
      <point x="593.0" y="1434.0" type="line" smooth="yes"/>
      <point x="663.0" y="1434.0"/>
      <point x="646.0" y="1359.0" type="qcurve" smooth="yes"/>
      <point x="561.0" y="993.0" type="line" smooth="yes"/>
      <point x="547.0" y="935.0"/>
      <point x="523.0" y="873.0" type="qcurve"/>
      <point x="530.0" y="873.0" type="line"/>
      <point x="1103.0" y="1375.0" type="line" smooth="yes"/>
      <point x="1170.0" y="1434.0"/>
      <point x="1209.0" y="1434.0" type="qcurve" smooth="yes"/>
      <point x="1449.0" y="1434.0" type="line" smooth="yes"/>
      <point x="1565.0" y="1434.0"/>
      <point x="1467.0" y="1348.0" type="qcurve" smooth="yes"/>
      <point x="894.0" y="845.0" type="line"/>
      <point x="1203.0" y="86.0" type="line" smooth="yes"/>
      <point x="1238.0" y="0.0"/>
      <point x="1145.0" y="0.0" type="qcurve" smooth="yes"/>
      <point x="989.0" y="0.0" type="line" smooth="yes"/>
      <point x="937.0" y="0.0"/>
      <point x="913.0" y="59.0" type="qcurve" smooth="yes"/>
      <point x="673.0" y="652.0" type="line"/>
      <point x="434.0" y="443.0" type="line"/>
      <point x="349.0" y="75.0" type="line" smooth="yes"/>
      <point x="332.0" y="0.0"/>
      <point x="262.0" y="0.0" type="qcurve" smooth="yes"/>
    </contour>
  </outline>
</glyph>
<glyph name="O" format="2">
  <advance width="1532"/>
  <unicode hex="004F"/>
  <outline>
    <contour>
      <point x="104.0" y="587.0" type="qcurve" smooth="yes"/>
      <point x="104.0" y="957.0"/>
      <point x="530.0" y="1468.0"/>
      <point x="880.0" y="1468.0" type="qcurve" smooth="yes"/>
      <point x="1180.0" y="1468.0"/>
      <point x="1518.0" y="1157.0"/>
      <point x="1518.0" y="847.0" type="qcurve" smooth="yes"/>
      <point x="1518.0" y="477.0"/>
      <point x="1092.0" y="-34.0"/>
      <point x="742.0" y="-34.0" type="qcurve" smooth="yes"/>
      <point x="442.0" y="-34.0"/>
      <point x="104.0" y="277.0"/>
    </contour>
    <contour>
      <point x="416.0" y="545.0" type="qcurve" smooth="yes"/>
      <point x="416.0" y="385.0"/>
      <point x="586.0" y="202.0"/>
      <point x="756.0" y="202.0" type="qcurve" smooth="yes"/>
      <point x="956.0" y="202.0"/>
      <point x="1206.0" y="579.0"/>
      <point x="1206.0" y="889.0" type="qcurve" smooth="yes"/>
      <point x="1206.0" y="1049.0"/>
      <point x="1036.0" y="1232.0"/>
      <point x="866.0" y="1232.0" type="qcurve" smooth="yes"/>
      <point x="666.0" y="1232.0"/>
      <point x="416.0" y="855.0"/>
    </contour>
  </outline>
</glyph>
<glyph name="S" format="2">
  <advance width="1299"/>
  <unicode hex="0053"/>
  <outline>
    <contour>
      <point x="84.0" y="114.0" type="qcurve" smooth="yes"/>
      <point x="26.0" y="165.0"/>
      <point x="64.0" y="212.0" type="qcurve" smooth="yes"/>
      <point x="151.0" y="319.0" type="line" smooth="yes"/>
      <point x="191.0" y="368.0"/>
      <point x="262.0" y="314.0" type="qcurve" smooth="yes"/>
      <point x="318.0" y="272.0"/>
      <point x="493.0" y="202.0"/>
      <point x="595.0" y="202.0" type="qcurve" smooth="yes"/>
      <point x="697.0" y="202.0"/>
      <point x="826.0" y="256.0"/>
      <point x="881.0" y="342.0"/>
      <point x="881.0" y="397.0" type="qcurve" smooth="yes"/>
      <point x="881.0" y="436.0"/>
      <point x="840.0" y="510.0"/>
      <point x="767.0" y="550.0"/>
      <point x="720.0" y="567.0" type="qcurve" smooth="yes"/>
      <point x="660.0" y="589.0"/>
      <point x="546.0" y="634.0"/>
      <point x="468.0" y="672.0" type="qcurve" smooth="yes"/>
      <point x="405.0" y="703.0"/>
      <point x="318.0" y="768.0"/>
      <point x="240.0" y="920.0"/>
      <point x="240.0" y="1035.0" type="qcurve" smooth="yes"/>
      <point x="240.0" y="1162.0"/>
      <point x="411.0" y="1393.0"/>
      <point x="664.0" y="1468.0"/>
      <point x="799.0" y="1468.0" type="qcurve" smooth="yes"/>
      <point x="935.0" y="1468.0"/>
      <point x="1170.0" y="1394.0"/>
      <point x="1228.0" y="1337.0" type="qcurve" smooth="yes"/>
      <point x="1286.0" y="1280.0"/>
      <point x="1249.0" y="1238.0" type="qcurve" smooth="yes"/>
      <point x="1161.0" y="1138.0" type="line" smooth="yes"/>
      <point x="1118.0" y="1089.0"/>
      <point x="1051.0" y="1141.0" type="qcurve" smooth="yes"/>
      <point x="1000.0" y="1182.0"/>
      <point x="858.0" y="1232.0"/>
      <point x="773.0" y="1232.0" type="qcurve" smooth="yes"/>
      <point x="688.0" y="1232.0"/>
      <point x="589.0" y="1196.0"/>
      <point x="530.0" y="1112.0"/>
      <point x="530.0" y="1068.0" type="qcurve" smooth="yes"/>
      <point x="530.0" y="1033.0"/>
      <point x="554.0" y="968.0"/>
      <point x="604.0" y="914.0"/>
      <point x="650.0" y="892.0" type="qcurve" smooth="yes"/>
      <point x="714.0" y="862.0"/>
      <point x="880.0" y="813.0"/>
      <point x="933.0" y="791.0" type="qcurve" smooth="yes"/>
      <point x="1011.0" y="759.0"/>
      <point x="1124.0" y="654.0"/>
      <point x="1177.0" y="506.0"/>
      <point x="1177.0" y="416.0" type="qcurve" smooth="yes"/>
      <point x="1177.0" y="292.0"/>
      <point x="1046.0" y="102.0"/>
      <point x="780.0" y="-34.0"/>
      <point x="559.0" y="-34.0" type="qcurve" smooth="yes"/>
      <point x="381.0" y="-34.0"/>
      <point x="176.0" y="33.0"/>
    </contour>
  </outline>
</glyph>
<glyph name="W" format="2">
  <advance width="2022"/>
  <unicode hex="0057"/>
  <outline>
    <contour>
      <point x="238.0" y="1354.0" type="line" smooth="yes"/>
      <point x="235.0" y="1434.0"/>
      <point x="302.0" y="1434.0" type="qcurve" smooth="yes"/>
      <point x="472.0" y="1434.0" type="line" smooth="yes"/>
      <point x="519.0" y="1434.0"/>
      <point x="520.0" y="1368.0" type="qcurve" smooth="yes"/>
      <point x="528.0" y="582.0" type="line" smooth="yes"/>
      <point x="529.0" y="491.0"/>
      <point x="528.0" y="433.0"/>
      <point x="517.0" y="363.0" type="qcurve"/>
      <point x="522.0" y="363.0" type="line"/>
      <point x="543.0" y="433.0"/>
      <point x="570.0" y="506.0"/>
      <point x="613.0" y="588.0" type="qcurve" smooth="yes"/>
      <point x="1014.0" y="1360.0" type="line" smooth="yes"/>
      <point x="1052.0" y="1434.0"/>
      <point x="1115.0" y="1434.0" type="qcurve" smooth="yes"/>
      <point x="1299.0" y="1434.0" type="line" smooth="yes"/>
      <point x="1362.0" y="1434.0"/>
      <point x="1366.0" y="1360.0" type="qcurve" smooth="yes"/>
      <point x="1411.0" y="588.0" type="line" smooth="yes"/>
      <point x="1416.0" y="504.0"/>
      <point x="1409.0" y="433.0"/>
      <point x="1398.0" y="363.0" type="qcurve"/>
      <point x="1403.0" y="363.0" type="line"/>
      <point x="1424.0" y="433.0"/>
      <point x="1463.0" y="520.0"/>
      <point x="1492.0" y="582.0" type="qcurve" smooth="yes"/>
      <point x="1864.0" y="1368.0" type="line" smooth="yes"/>
      <point x="1895.0" y="1434.0"/>
      <point x="1942.0" y="1434.0" type="qcurve" smooth="yes"/>
      <point x="2142.0" y="1434.0" type="line" smooth="yes"/>
      <point x="2210.0" y="1434.0"/>
      <point x="2170.0" y="1354.0" type="qcurve" smooth="yes"/>
      <point x="1539.0" y="97.0" type="line" smooth="yes"/>
      <point x="1490.0" y="0.0"/>
      <point x="1423.0" y="0.0" type="qcurve" smooth="yes"/>
      <point x="1248.0" y="0.0" type="line" smooth="yes"/>
      <point x="1190.0" y="0.0"/>
      <point x="1185.0" y="96.0" type="qcurve" smooth="yes"/>
      <point x="1139.0" y="934.0" type="line" smooth="yes"/>
      <point x="1135.0" y="1004.0"/>
      <point x="1138.0" y="1043.0"/>
      <point x="1146.0" y="1099.0" type="qcurve"/>
      <point x="1144.0" y="1099.0" type="line"/>
      <point x="1126.0" y="1043.0"/>
      <point x="1109.0" y="1000.0"/>
      <point x="1075.0" y="934.0" type="qcurve" smooth="yes"/>
      <point x="641.0" y="96.0" type="line" smooth="yes"/>
      <point x="591.0" y="0.0"/>
      <point x="534.0" y="0.0" type="qcurve" smooth="yes"/>
      <point x="359.0" y="0.0" type="line" smooth="yes"/>
      <point x="291.0" y="0.0"/>
      <point x="287.0" y="97.0" type="qcurve" smooth="yes"/>
    </contour>
  </outline>
</glyph>
<glyph name="X" format="2">
  <advance width="1392"/>
  <unicode hex="0058"/>
  <outline>
    <contour>
      <point x="-12.0" y="0.0" type="line" smooth="yes"/>
      <point x="-109.0" y="0.0"/>
      <point x="-30.0" y="86.0" type="qcurve" smooth="yes"/>
      <point x="594.0" y="764.0" type="line"/>
      <point x="297.0" y="1348.0" type="line" smooth="yes"/>
      <point x="253.0" y="1434.0"/>
      <point x="355.0" y="1434.0" type="qcurve" smooth="yes"/>
      <point x="531.0" y="1434.0" type="line" smooth="yes"/>
      <point x="582.0" y="1434.0"/>
      <point x="607.0" y="1375.0" type="qcurve" smooth="yes"/>
      <point x="782.0" y="958.0" type="line"/>
      <point x="1120.0" y="1375.0" type="line" smooth="yes"/>
      <point x="1168.0" y="1434.0"/>
      <point x="1224.0" y="1434.0" type="qcurve" smooth="yes"/>
      <point x="1459.0" y="1434.0" type="line" smooth="yes"/>
      <point x="1557.0" y="1434.0"/>
      <point x="1477.0" y="1348.0" type="qcurve" smooth="yes"/>
      <point x="898.0" y="722.0" type="line"/>
      <point x="1222.0" y="86.0" type="line" smooth="yes"/>
      <point x="1266.0" y="0.0"/>
      <point x="1164.0" y="0.0" type="qcurve" smooth="yes"/>
      <point x="985.0" y="0.0" type="line" smooth="yes"/>
      <point x="934.0" y="0.0"/>
      <point x="909.0" y="59.0" type="qcurve" smooth="yes"/>
      <point x="709.0" y="528.0" type="line"/>
      <point x="330.0" y="59.0" type="line" smooth="yes"/>
      <point x="282.0" y="0.0"/>
      <point x="226.0" y="0.0" type="qcurve" smooth="yes"/>
    </contour>
  </outline>
</glyph>
<glyph name="Z" format="2">
  <advance width="1252"/>
  <unicode hex="005A"/>
  <outline>
    <contour>
      <point x="16.0" y="0.0" type="line" smooth="yes"/>
      <point x="-59.0" y="0.0"/>
      <point x="-44.0" y="65.0" type="qcurve" smooth="yes"/>
      <point x="-25.0" y="147.0" type="line" smooth="yes"/>
      <point x="-8.0" y="219.0"/>
      <point x="58.0" y="290.0" type="qcurve" smooth="yes"/>
      <point x="894.0" y="1184.0" type="line"/>
      <point x="896.0" y="1191.0" type="line"/>
      <point x="835.0" y="1186.0"/>
      <point x="775.0" y="1186.0" type="qcurve" smooth="yes"/>
      <point x="330.0" y="1186.0" type="line" smooth="yes"/>
      <point x="255.0" y="1186.0"/>
      <point x="270.0" y="1251.0" type="qcurve" smooth="yes"/>
      <point x="297.0" y="1369.0" type="line" smooth="yes"/>
      <point x="312.0" y="1434.0"/>
      <point x="387.0" y="1434.0" type="qcurve" smooth="yes"/>
      <point x="1299.0" y="1434.0" type="line" smooth="yes"/>
      <point x="1374.0" y="1434.0"/>
      <point x="1359.0" y="1369.0" type="qcurve" smooth="yes"/>
      <point x="1344.0" y="1302.0" type="line" smooth="yes"/>
      <point x="1332.0" y="1247.0"/>
      <point x="1285.0" y="1197.0" type="qcurve" smooth="yes"/>
      <point x="398.0" y="250.0" type="line"/>
      <point x="396.0" y="243.0" type="line"/>
      <point x="457.0" y="248.0"/>
      <point x="517.0" y="248.0" type="qcurve" smooth="yes"/>
      <point x="1053.0" y="248.0" type="line" smooth="yes"/>
      <point x="1128.0" y="248.0"/>
      <point x="1113.0" y="183.0" type="qcurve" smooth="yes"/>
      <point x="1086.0" y="65.0" type="line" smooth="yes"/>
      <point x="1071.0" y="0.0"/>
      <point x="996.0" y="0.0" type="qcurve" smooth="yes"/>
    </contour>
  </outline>
</glyph>
<glyph name="bracketleft" format="2">
  <advance width="694"/>
  <unicode hex="005B"/>
  <outline>
    <contour>
      <point x="6.0" y="-408.0" type="line" smooth="yes"/>
      <point x="-54.0" y="-408.0"/>
      <point x="-40.0" y="-348.0" type="qcurve" smooth="yes"/>
      <point x="372.0" y="1436.0" type="line" smooth="yes"/>
      <point x="386.0" y="1496.0"/>
      <point x="445.0" y="1496.0" type="qcurve" smooth="yes"/>
      <point x="793.0" y="1496.0" type="line" smooth="yes"/>
      <point x="853.0" y="1496.0"/>
      <point x="842.0" y="1446.0" type="qcurve" smooth="yes"/>
      <point x="819.0" y="1346.0" type="line" smooth="yes"/>
      <point x="807.0" y="1296.0"/>
      <point x="747.0" y="1296.0" type="qcurve" smooth="yes"/>
      <point x="619.0" y="1296.0" type="line"/>
      <point x="272.0" y="-208.0" type="line"/>
      <point x="400.0" y="-208.0" type="line" smooth="yes"/>
      <point x="460.0" y="-208.0"/>
      <point x="448.0" y="-258.0" type="qcurve" smooth="yes"/>
      <point x="425.0" y="-358.0" type="line" smooth="yes"/>
      <point x="413.0" y="-408.0"/>
      <point x="354.0" y="-408.0" type="qcurve" smooth="yes"/>
    </contour>
  </outline>
</glyph>
<glyph name="backslash" format="2">
  <advance width="856"/>
  <unicode hex="005C"/>
  <outline>
    <contour>
      <point x="138.0" y="1365.0" type="line" smooth="yes"/>
      <point x="124.0" y="1424.0"/>
      <point x="173.0" y="1439.0" type="qcurve" smooth="yes"/>
      <point x="253.0" y="1464.0" type="line" smooth="yes"/>
      <point x="302.0" y="1479.0"/>
      <point x="315.0" y="1426.0" type="qcurve" smooth="yes"/>
      <point x="738.0" y="-310.0" type="line" smooth="yes"/>
      <point x="752.0" y="-369.0"/>
      <point x="703.0" y="-384.0" type="qcurve" smooth="yes"/>
      <point x="623.0" y="-409.0" type="line" smooth="yes"/>
      <point x="574.0" y="-424.0"/>
      <point x="561.0" y="-371.0" type="qcurve" smooth="yes"/>
    </contour>
  </outline>
</glyph>
<glyph name="bracketright" format="2">
  <advance width="694"/>
  <unicode hex="005D"/>
  <outline>
    <contour>
      <point x="-88.0" y="-408.0" type="line" smooth="yes"/>
      <point x="-148.0" y="-408.0"/>
      <point x="-137.0" y="-358.0" type="qcurve" smooth="yes"/>
      <point x="-114.0" y="-258.0" type="line" smooth="yes"/>
      <point x="-102.0" y="-208.0"/>
      <point x="-42.0" y="-208.0" type="qcurve" smooth="yes"/>
      <point x="86.0" y="-208.0" type="line"/>
      <point x="433.0" y="1296.0" type="line"/>
      <point x="305.0" y="1296.0" type="line" smooth="yes"/>
      <point x="245.0" y="1296.0"/>
      <point x="257.0" y="1346.0" type="qcurve" smooth="yes"/>
      <point x="280.0" y="1446.0" type="line" smooth="yes"/>
      <point x="292.0" y="1496.0"/>
      <point x="351.0" y="1496.0" type="qcurve" smooth="yes"/>
      <point x="699.0" y="1496.0" type="line" smooth="yes"/>
      <point x="759.0" y="1496.0"/>
      <point x="745.0" y="1436.0" type="qcurve" smooth="yes"/>
      <point x="333.0" y="-348.0" type="line" smooth="yes"/>
      <point x="319.0" y="-408.0"/>
      <point x="260.0" y="-408.0" type="qcurve" smooth="yes"/>
    </contour>
  </outline>
</glyph>
<glyph name="asciicircum" format="2">
  <advance width="920"/>
  <unicode hex="005E"/>
  <outline>
    <contour>
      <point x="185.0" y="929.0" type="line" smooth="yes"/>
      <point x="145.0" y="958.0"/>
      <point x="180.0" y="1007.0" type="qcurve" smooth="yes"/>
      <point x="470.0" y="1405.0" type="line" smooth="yes"/>
      <point x="496.0" y="1441.0"/>
      <point x="542.0" y="1441.0" type="qcurve" smooth="yes"/>
      <point x="578.0" y="1441.0" type="line" smooth="yes"/>
      <point x="624.0" y="1441.0"/>
      <point x="650.0" y="1405.0" type="qcurve" smooth="yes"/>
      <point x="940.0" y="1007.0" type="line" smooth="yes"/>
      <point x="976.0" y="958.0"/>
      <point x="935.0" y="929.0" type="qcurve" smooth="yes"/>
      <point x="873.0" y="885.0" type="line" smooth="yes"/>
      <point x="832.0" y="856.0"/>
      <point x="798.0" y="904.0" type="qcurve" smooth="yes"/>
      <point x="561.0" y="1233.0" type="line"/>
      <point x="559.0" y="1233.0" type="line"/>
      <point x="322.0" y="904.0" type="line" smooth="yes"/>
      <point x="288.0" y="856.0"/>
      <point x="247.0" y="885.0" type="qcurve" smooth="yes"/>
    </contour>
  </outline>
</glyph>
<glyph name="underscore" format="2">
  <advance width="1200"/>
  <unicode hex="005F"/>
  <outline>
    <contour>
      <point x="-160.0" y="-425.0" type="line" smooth="yes"/>
      <point x="-220.0" y="-425.0"/>
      <point x="-220.0" y="-375.0" type="qcurve" smooth="yes"/>
      <point x="-220.0" y="-275.0" type="line" smooth="yes"/>
      <point x="-220.0" y="-225.0"/>
      <point x="-160.0" y="-225.0" type="qcurve" smooth="yes"/>
      <point x="970.0" y="-225.0" type="line" smooth="yes"/>
      <point x="1030.0" y="-225.0"/>
      <point x="1030.0" y="-275.0" type="qcurve" smooth="yes"/>
      <point x="1030.0" y="-375.0" type="line" smooth="yes"/>
      <point x="1030.0" y="-425.0"/>
      <point x="970.0" y="-425.0" type="qcurve" smooth="yes"/>
    </contour>
  </outline>
</glyph>
<glyph name="grave" format="2">
  <advance width="614"/>
  <unicode hex="0060"/>
  <outline>
    <contour>
      <point x="328.0" y="1376.0" type="line" smooth="yes"/>
      <point x="279.0" y="1435.0"/>
      <point x="363.0" y="1435.0" type="qcurve" smooth="yes"/>
      <point x="515.0" y="1435.0" type="line" smooth="yes"/>
      <point x="587.0" y="1435.0"/>
      <point x="610.0" y="1388.0" type="qcurve" smooth="yes"/>
      <point x="697.0" y="1209.0" type="line" smooth="yes"/>
      <point x="726.0" y="1150.0"/>
      <point x="662.0" y="1150.0" type="qcurve" smooth="yes"/>
      <point x="576.0" y="1150.0" type="line" smooth="yes"/>
      <point x="515.0" y="1150.0"/>
      <point x="484.0" y="1187.0" type="qcurve" smooth="yes"/>
    </contour>
  </outline>
</glyph>
<glyph name="a" format="2">
  <advance width="1178"/>
  <unicode hex="0061"/>
  <outline>
    <contour>
      <point x="62.0" y="379.0" type="qcurve" smooth="yes"/>
      <point x="62.0" y="660.0"/>
      <point x="427.0" y="1070.0"/>
      <point x="652.0" y="1070.0" type="qcurve" smooth="yes"/>
      <point x="697.0" y="1070.0"/>
      <point x="815.0" y="1024.0"/>
      <point x="863.0" y="954.0" type="qcurve"/>
      <point x="867.0" y="954.0" type="line"/>
      <point x="884.0" y="990.0" type="line" smooth="yes"/>
      <point x="912.0" y="1050.0"/>
      <point x="951.0" y="1050.0" type="qcurve" smooth="yes"/>
      <point x="1104.0" y="1050.0" type="line" smooth="yes"/>
      <point x="1165.0" y="1050.0"/>
      <point x="1151.0" y="990.0" type="qcurve" smooth="yes"/>
      <point x="936.0" y="60.0" type="line" smooth="yes"/>
      <point x="922.0" y="0.0"/>
      <point x="862.0" y="0.0" type="qcurve" smooth="yes"/>
      <point x="709.0" y="0.0" type="line" smooth="yes"/>
      <point x="653.0" y="0.0"/>
      <point x="664.0" y="60.0" type="qcurve" smooth="yes"/>
      <point x="678.0" y="138.0" type="line"/>
      <point x="674.0" y="138.0" type="line"/>
      <point x="615.0" y="66.0"/>
      <point x="483.0" y="-20.0"/>
      <point x="398.0" y="-20.0" type="qcurve" smooth="yes"/>
      <point x="239.0" y="-20.0"/>
      <point x="62.0" y="222.0"/>
    </contour>
    <contour>
      <point x="358.0" y="360.0" type="qcurve" smooth="yes"/>
      <point x="358.0" y="274.0"/>
      <point x="435.0" y="176.0"/>
      <point x="483.0" y="176.0" type="qcurve" smooth="yes"/>
      <point x="569.0" y="176.0"/>
      <point x="722.0" y="349.0"/>
      <point x="763.0" y="522.0" type="qcurve" smooth="yes"/>
      <point x="800.0" y="680.0" type="line"/>
      <point x="800.0" y="771.0"/>
      <point x="734.0" y="874.0"/>
      <point x="648.0" y="874.0" type="qcurve" smooth="yes"/>
      <point x="524.0" y="874.0"/>
      <point x="358.0" y="558.0"/>
    </contour>
  </outline>
</glyph>
<glyph name="b" format="2">
  <advance width="1192"/>
  <unicode hex="0062"/>
  <outline>
    <contour>
      <point x="76.0" y="0.0" type="line" smooth="yes"/>
      <point x="16.0" y="0.0"/>
      <point x="30.0" y="60.0" type="qcurve" smooth="yes"/>
      <point x="343.0" y="1416.0" type="line" smooth="yes"/>
      <point x="357.0" y="1476.0"/>
      <point x="417.0" y="1476.0" type="qcurve" smooth="yes"/>
      <point x="577.0" y="1476.0" type="line" smooth="yes"/>
      <point x="637.0" y="1476.0"/>
      <point x="623.0" y="1416.0" type="qcurve" smooth="yes"/>
      <point x="526.0" y="992.0" type="line" smooth="yes"/>
      <point x="517.0" y="951.0"/>
      <point x="503.0" y="912.0" type="qcurve"/>
      <point x="507.0" y="912.0" type="line"/>
      <point x="579.0" y="998.0"/>
      <point x="693.0" y="1070.0"/>
      <point x="766.0" y="1070.0" type="qcurve" smooth="yes"/>
      <point x="964.0" y="1070.0"/>
      <point x="1129.0" y="810.0"/>
      <point x="1129.0" y="651.0" type="qcurve" smooth="yes"/>
      <point x="1129.0" y="388.0"/>
      <point x="808.0" y="-20.0"/>
      <point x="596.0" y="-20.0" type="qcurve" smooth="yes"/>
      <point x="524.0" y="-20.0"/>
      <point x="368.0" y="18.0"/>
      <point x="318.0" y="96.0" type="qcurve"/>
      <point x="314.0" y="96.0" type="line"/>
      <point x="302.0" y="60.0" type="line" smooth="yes"/>
      <point x="282.0" y="0.0"/>
      <point x="234.0" y="0.0" type="qcurve" smooth="yes"/>
    </contour>
    <contour>
      <point x="381.0" y="370.0" type="line"/>
      <point x="381.0" y="274.0"/>
      <point x="448.0" y="176.0"/>
      <point x="548.0" y="176.0" type="qcurve" smooth="yes"/>
      <point x="683.0" y="176.0"/>
      <point x="833.0" y="480.0"/>
      <point x="833.0" y="670.0" type="qcurve" smooth="yes"/>
      <point x="833.0" y="774.0"/>
      <point x="756.0" y="874.0"/>
      <point x="688.0" y="874.0" type="qcurve" smooth="yes"/>
      <point x="618.0" y="874.0"/>
      <point x="457.0" y="696.0"/>
      <point x="418.0" y="528.0" type="qcurve" smooth="yes"/>
    </contour>
  </outline>
</glyph>
<glyph name="k" format="2">
  <advance width="1119"/>
  <unicode hex="006B"/>
  <outline>
    <contour>
      <point x="76.0" y="0.0" type="line" smooth="yes"/>
      <point x="16.0" y="0.0"/>
      <point x="30.0" y="60.0" type="qcurve" smooth="yes"/>
      <point x="343.0" y="1416.0" type="line" smooth="yes"/>
      <point x="357.0" y="1476.0"/>
      <point x="417.0" y="1476.0" type="qcurve" smooth="yes"/>
      <point x="577.0" y="1476.0" type="line" smooth="yes"/>
      <point x="637.0" y="1476.0"/>
      <point x="623.0" y="1416.0" type="qcurve" smooth="yes"/>
      <point x="462.0" y="719.0" type="line" smooth="yes"/>
      <point x="453.0" y="681.0"/>
      <point x="440.0" y="639.0" type="qcurve"/>
      <point x="444.0" y="639.0" type="line"/>
      <point x="822.0" y="1009.0" type="line" smooth="yes"/>
      <point x="864.0" y="1050.0"/>
      <point x="909.0" y="1050.0" type="qcurve" smooth="yes"/>
      <point x="1100.0" y="1050.0" type="line" smooth="yes"/>
      <point x="1191.0" y="1050.0"/>
      <point x="1114.0" y="976.0" type="qcurve" smooth="yes"/>
      <point x="728.0" y="605.0" type="line"/>
      <point x="951.0" y="74.0" type="line" smooth="yes"/>
      <point x="982.0" y="0.0"/>
      <point x="903.0" y="0.0" type="qcurve" smooth="yes"/>
      <point x="760.0" y="0.0" type="line" smooth="yes"/>
      <point x="711.0" y="0.0"/>
      <point x="690.0" y="52.0" type="qcurve" smooth="yes"/>
      <point x="538.0" y="430.0" type="line"/>
      <point x="355.0" y="257.0" type="line"/>
      <point x="310.0" y="60.0" type="line" smooth="yes"/>
      <point x="296.0" y="0.0"/>
      <point x="236.0" y="0.0" type="qcurve" smooth="yes"/>
    </contour>
  </outline>
</glyph>
<glyph name="l" format="2">
  <advance width="552"/>
  <unicode hex="006C"/>
  <outline>
    <contour>
      <point x="76.0" y="0.0" type="line" smooth="yes"/>
      <point x="16.0" y="0.0"/>
      <point x="30.0" y="60.0" type="qcurve" smooth="yes"/>
      <point x="303.0" y="1241.0" type="line" smooth="yes"/>
      <point x="313.0" y="1286.0"/>
      <point x="342.0" y="1323.0" type="qcurve" smooth="yes"/>
      <point x="451.0" y="1458.0" type="line" smooth="yes"/>
      <point x="482.0" y="1496.0"/>
      <point x="511.0" y="1496.0" type="qcurve" smooth="yes"/>
      <point x="581.0" y="1496.0" type="line" smooth="yes"/>
      <point x="641.0" y="1496.0"/>
      <point x="628.0" y="1436.0" type="qcurve" smooth="yes"/>
      <point x="310.0" y="60.0" type="line" smooth="yes"/>
      <point x="296.0" y="0.0"/>
      <point x="236.0" y="0.0" type="qcurve" smooth="yes"/>
    </contour>
  </outline>
</glyph>
<glyph name="m" format="2">
  <advance width="1750"/>
  <unicode hex="006D"/>
  <outline>
    <contour>
      <point x="76.0" y="0.0" type="line" smooth="yes"/>
      <point x="16.0" y="0.0"/>
      <point x="30.0" y="60.0" type="qcurve" smooth="yes"/>
      <point x="245.0" y="990.0" type="line" smooth="yes"/>
      <point x="259.0" y="1050.0"/>
      <point x="318.0" y="1050.0" type="qcurve" smooth="yes"/>
      <point x="476.0" y="1050.0" type="line" smooth="yes"/>
      <point x="536.0" y="1050.0"/>
      <point x="523.0" y="990.0" type="qcurve" smooth="yes"/>
      <point x="502.0" y="900.0" type="line"/>
      <point x="506.0" y="900.0" type="line"/>
      <point x="552.0" y="969.0"/>
      <point x="696.0" y="1070.0"/>
      <point x="772.0" y="1070.0" type="qcurve" smooth="yes"/>
      <point x="897.0" y="1070.0"/>
      <point x="1006.0" y="927.0"/>
      <point x="1006.0" y="839.0" type="qcurve"/>
      <point x="1010.0" y="839.0" type="line"/>
      <point x="1083.0" y="951.0"/>
      <point x="1263.0" y="1070.0"/>
      <point x="1392.0" y="1070.0" type="qcurve" smooth="yes"/>
      <point x="1527.0" y="1070.0"/>
      <point x="1695.0" y="858.0"/>
      <point x="1635.0" y="600.0" type="qcurve" smooth="yes"/>
      <point x="1510.0" y="60.0" type="line" smooth="yes"/>
      <point x="1496.0" y="0.0"/>
      <point x="1436.0" y="0.0" type="qcurve" smooth="yes"/>
      <point x="1276.0" y="0.0" type="line" smooth="yes"/>
      <point x="1216.0" y="0.0"/>
      <point x="1230.0" y="60.0" type="qcurve" smooth="yes"/>
      <point x="1336.0" y="520.0" type="line" smooth="yes"/>
      <point x="1379.0" y="708.0"/>
      <point x="1359.0" y="874.0"/>
      <point x="1284.0" y="874.0" type="qcurve" smooth="yes"/>
      <point x="1214.0" y="874.0"/>
      <point x="1060.0" y="711.0"/>
      <point x="991.0" y="412.0" type="qcurve" smooth="yes"/>
      <point x="910.0" y="60.0" type="line" smooth="yes"/>
      <point x="896.0" y="0.0"/>
      <point x="836.0" y="0.0" type="qcurve" smooth="yes"/>
      <point x="676.0" y="0.0" type="line" smooth="yes"/>
      <point x="616.0" y="0.0"/>
      <point x="630.0" y="60.0" type="qcurve" smooth="yes"/>
      <point x="731.0" y="500.0" type="line" smooth="yes"/>
      <point x="778.0" y="705.0"/>
      <point x="759.0" y="874.0"/>
      <point x="684.0" y="874.0" type="qcurve" smooth="yes"/>
      <point x="615.0" y="874.0"/>
      <point x="447.0" y="654.0"/>
      <point x="391.0" y="412.0" type="qcurve" smooth="yes"/>
      <point x="310.0" y="60.0" type="line" smooth="yes"/>
      <point x="296.0" y="0.0"/>
      <point x="236.0" y="0.0" type="qcurve" smooth="yes"/>
    </contour>
  </outline>
</glyph>
<glyph name="n" format="2">
  <advance width="1200"/>
  <unicode hex="006E"/>
  <outline>
    <contour>
      <point x="76.0" y="0.0" type="line" smooth="yes"/>
      <point x="16.0" y="0.0"/>
      <point x="30.0" y="60.0" type="qcurve" smooth="yes"/>
      <point x="245.0" y="990.0" type="line" smooth="yes"/>
      <point x="259.0" y="1050.0"/>
      <point x="318.0" y="1050.0" type="qcurve" smooth="yes"/>
      <point x="476.0" y="1050.0" type="line" smooth="yes"/>
      <point x="538.0" y="1050.0"/>
      <point x="523.0" y="990.0" type="qcurve" smooth="yes"/>
      <point x="504.0" y="912.0" type="line"/>
      <point x="508.0" y="912.0" type="line"/>
      <point x="588.0" y="1006.0"/>
      <point x="733.0" y="1070.0"/>
      <point x="833.0" y="1070.0" type="qcurve" smooth="yes"/>
      <point x="978.0" y="1070.0"/>
      <point x="1144.0" y="856.0"/>
      <point x="1088.0" y="614.0" type="qcurve" smooth="yes"/>
      <point x="960.0" y="60.0" type="line" smooth="yes"/>
      <point x="946.0" y="0.0"/>
      <point x="886.0" y="0.0" type="qcurve" smooth="yes"/>
      <point x="726.0" y="0.0" type="line" smooth="yes"/>
      <point x="666.0" y="0.0"/>
      <point x="680.0" y="60.0" type="qcurve" smooth="yes"/>
      <point x="791.0" y="542.0" type="line" smooth="yes"/>
      <point x="840.0" y="754.0"/>
      <point x="792.0" y="874.0"/>
      <point x="709.0" y="874.0" type="qcurve" smooth="yes"/>
      <point x="604.0" y="874.0"/>
      <point x="442.0" y="640.0"/>
      <point x="393.0" y="424.0" type="qcurve" smooth="yes"/>
      <point x="310.0" y="60.0" type="line" smooth="yes"/>
      <point x="296.0" y="0.0"/>
      <point x="236.0" y="0.0" type="qcurve" smooth="yes"/>
    </contour>
  </outline>
</glyph>
<glyph name="o" format="2">
  <advance width="1206"/>
  <unicode hex="006F"/>
  <outline>
    <contour>
      <point x="58.0" y="412.0" type="qcurve" smooth="yes"/>
      <point x="58.0" y="637.0"/>
      <point x="390.0" y="1070.0"/>
      <point x="690.0" y="1070.0" type="qcurve" smooth="yes"/>
      <point x="950.0" y="1070.0"/>
      <point x="1150.0" y="813.0"/>
      <point x="1150.0" y="638.0" type="qcurve" smooth="yes"/>
      <point x="1150.0" y="413.0"/>
      <point x="818.0" y="-20.0"/>
      <point x="518.0" y="-20.0" type="qcurve" smooth="yes"/>
      <point x="258.0" y="-20.0"/>
      <point x="58.0" y="237.0"/>
    </contour>
    <contour>
      <point x="354.0" y="387.0" type="qcurve" smooth="yes"/>
      <point x="354.0" y="287.0"/>
      <point x="451.0" y="176.0"/>
      <point x="536.0" y="176.0" type="qcurve" smooth="yes"/>
      <point x="661.0" y="176.0"/>
      <point x="854.0" y="433.0"/>
      <point x="854.0" y="663.0" type="qcurve" smooth="yes"/>
      <point x="854.0" y="763.0"/>
      <point x="757.0" y="874.0"/>
      <point x="672.0" y="874.0" type="qcurve" smooth="yes"/>
      <point x="547.0" y="874.0"/>
      <point x="354.0" y="617.0"/>
    </contour>
  </outline>
</glyph>
<glyph name="p" format="2">
  <advance width="1192"/>
  <unicode hex="0070"/>
  <outline>
    <contour>
      <point x="-16.0" y="-400.0" type="line" smooth="yes"/>
      <point x="-76.0" y="-400.0"/>
      <point x="-62.0" y="-340.0" type="qcurve" smooth="yes"/>
      <point x="245.0" y="990.0" type="line" smooth="yes"/>
      <point x="259.0" y="1050.0"/>
      <point x="318.0" y="1050.0" type="qcurve" smooth="yes"/>
      <point x="476.0" y="1050.0" type="line" smooth="yes"/>
      <point x="528.0" y="1050.0"/>
      <point x="517.0" y="990.0" type="qcurve" smooth="yes"/>
      <point x="503.0" y="912.0" type="line"/>
      <point x="507.0" y="912.0" type="line"/>
      <point x="579.0" y="998.0"/>
      <point x="693.0" y="1070.0"/>
      <point x="766.0" y="1070.0" type="qcurve" smooth="yes"/>
      <point x="964.0" y="1070.0"/>
      <point x="1129.0" y="810.0"/>
      <point x="1129.0" y="651.0" type="qcurve" smooth="yes"/>
      <point x="1129.0" y="388.0"/>
      <point x="808.0" y="-20.0"/>
      <point x="596.0" y="-20.0" type="qcurve" smooth="yes"/>
      <point x="524.0" y="-20.0"/>
      <point x="368.0" y="18.0"/>
      <point x="318.0" y="96.0" type="qcurve"/>
      <point x="314.0" y="96.0" type="line"/>
      <point x="309.0" y="54.0"/>
      <point x="300.0" y="16.0" type="qcurve" smooth="yes"/>
      <point x="218.0" y="-340.0" type="line" smooth="yes"/>
      <point x="204.0" y="-400.0"/>
      <point x="144.0" y="-400.0" type="qcurve" smooth="yes"/>
    </contour>
    <contour>
      <point x="381.0" y="370.0" type="line"/>
      <point x="381.0" y="274.0"/>
      <point x="448.0" y="176.0"/>
      <point x="548.0" y="176.0" type="qcurve" smooth="yes"/>
      <point x="683.0" y="176.0"/>
      <point x="833.0" y="480.0"/>
      <point x="833.0" y="670.0" type="qcurve" smooth="yes"/>
      <point x="833.0" y="774.0"/>
      <point x="756.0" y="874.0"/>
      <point x="688.0" y="874.0" type="qcurve" smooth="yes"/>
      <point x="618.0" y="874.0"/>
      <point x="457.0" y="696.0"/>
      <point x="418.0" y="528.0" type="qcurve" smooth="yes"/>
    </contour>
  </outline>
</glyph>
<glyph name="q" format="2">
  <advance width="1192"/>
  <unicode hex="0071"/>
  <outline>
    <contour>
      <point x="66.0" y="399.0" type="qcurve" smooth="yes"/>
      <point x="66.0" y="662.0"/>
      <point x="387.0" y="1070.0"/>
      <point x="599.0" y="1070.0" type="qcurve" smooth="yes"/>
      <point x="671.0" y="1070.0"/>
      <point x="827.0" y="1032.0"/>
      <point x="877.0" y="954.0" type="qcurve"/>
      <point x="881.0" y="954.0" type="line"/>
      <point x="893.0" y="990.0" type="line" smooth="yes"/>
      <point x="913.0" y="1050.0"/>
      <point x="960.0" y="1050.0" type="qcurve" smooth="yes"/>
      <point x="1118.0" y="1050.0" type="line" smooth="yes"/>
      <point x="1179.0" y="1050.0"/>
      <point x="1165.0" y="990.0" type="qcurve" smooth="yes"/>
      <point x="858.0" y="-340.0" type="line" smooth="yes"/>
      <point x="844.0" y="-400.0"/>
      <point x="784.0" y="-400.0" type="qcurve" smooth="yes"/>
      <point x="624.0" y="-400.0" type="line" smooth="yes"/>
      <point x="564.0" y="-400.0"/>
      <point x="578.0" y="-340.0" type="qcurve" smooth="yes"/>
      <point x="670.0" y="58.0" type="line" smooth="yes"/>
      <point x="680.0" y="101.0"/>
      <point x="692.0" y="138.0" type="qcurve"/>
      <point x="688.0" y="138.0" type="line"/>
      <point x="616.0" y="52.0"/>
      <point x="502.0" y="-20.0"/>
      <point x="429.0" y="-20.0" type="qcurve" smooth="yes"/>
      <point x="231.0" y="-20.0"/>
      <point x="66.0" y="240.0"/>
    </contour>
    <contour>
      <point x="362.0" y="380.0" type="qcurve" smooth="yes"/>
      <point x="362.0" y="276.0"/>
      <point x="439.0" y="176.0"/>
      <point x="507.0" y="176.0" type="qcurve" smooth="yes"/>
      <point x="577.0" y="176.0"/>
      <point x="738.0" y="354.0"/>
      <point x="777.0" y="522.0" type="qcurve" smooth="yes"/>
      <point x="814.0" y="680.0" type="line"/>
      <point x="814.0" y="776.0"/>
      <point x="747.0" y="874.0"/>
      <point x="647.0" y="874.0" type="qcurve" smooth="yes"/>
      <point x="512.0" y="874.0"/>
      <point x="362.0" y="570.0"/>
    </contour>
  </outline>
</glyph>
<glyph name="r" format="2">
  <advance width="786"/>
  <unicode hex="0072"/>
  <outline>
    <contour>
      <point x="76.0" y="0.0" type="line" smooth="yes"/>
      <point x="16.0" y="0.0"/>
      <point x="30.0" y="60.0" type="qcurve" smooth="yes"/>
      <point x="245.0" y="990.0" type="line" smooth="yes"/>
      <point x="259.0" y="1050.0"/>
      <point x="318.0" y="1050.0" type="qcurve" smooth="yes"/>
      <point x="472.0" y="1050.0" type="line" smooth="yes"/>
      <point x="533.0" y="1050.0"/>
      <point x="519.0" y="990.0" type="qcurve" smooth="yes"/>
      <point x="491.0" y="867.0" type="line"/>
      <point x="495.0" y="867.0" type="line"/>
      <point x="537.0" y="952.0"/>
      <point x="681.0" y="1070.0"/>
      <point x="769.0" y="1070.0" type="qcurve" smooth="yes"/>
      <point x="827.0" y="1070.0"/>
      <point x="861.0" y="1056.0" type="qcurve" smooth="yes"/>
      <point x="890.0" y="1044.0"/>
      <point x="877.0" y="1008.0" type="qcurve" smooth="yes"/>
      <point x="833.0" y="889.0" type="line" smooth="yes"/>
      <point x="818.0" y="848.0"/>
      <point x="774.0" y="865.0" type="qcurve" smooth="yes"/>
      <point x="750.0" y="874.0"/>
      <point x="720.0" y="874.0" type="qcurve" smooth="yes"/>
      <point x="630.0" y="874.0"/>
      <point x="435.0" y="602.0"/>
      <point x="376.0" y="347.0" type="qcurve" smooth="yes"/>
      <point x="310.0" y="60.0" type="line" smooth="yes"/>
      <point x="296.0" y="0.0"/>
      <point x="236.0" y="0.0" type="qcurve" smooth="yes"/>
    </contour>
  </outline>
</glyph>
<glyph name="s" format="2">
  <advance width="1005"/>
  <unicode hex="0073"/>
  <outline>
    <contour>
      <point x="40.0" y="72.0" type="qcurve" smooth="yes"/>
      <point x="-5.0" y="105.0"/>
      <point x="21.0" y="149.0" type="qcurve" smooth="yes"/>
      <point x="75.0" y="239.0" type="line" smooth="yes"/>
      <point x="99.0" y="280.0"/>
      <point x="160.0" y="242.0" type="qcurve" smooth="yes"/>
      <point x="214.0" y="208.0"/>
      <point x="364.0" y="176.0"/>
      <point x="428.0" y="176.0" type="qcurve" smooth="yes"/>
      <point x="494.0" y="176.0"/>
      <point x="576.0" y="214.0"/>
      <point x="608.0" y="268.0"/>
      <point x="608.0" y="302.0" type="qcurve" smooth="yes"/>
      <point x="608.0" y="326.0"/>
      <point x="590.0" y="366.0"/>
      <point x="544.0" y="398.0"/>
      <point x="513.0" y="410.0" type="qcurve" smooth="yes"/>
      <point x="452.0" y="434.0"/>
      <point x="385.0" y="463.0"/>
      <point x="341.0" y="482.0" type="qcurve" smooth="yes"/>
      <point x="271.0" y="512.0"/>
      <point x="196.0" y="588.0"/>
      <point x="161.0" y="680.0"/>
      <point x="161.0" y="749.0" type="qcurve" smooth="yes"/>
      <point x="161.0" y="850.0"/>
      <point x="282.0" y="1010.0"/>
      <point x="476.0" y="1070.0"/>
      <point x="614.0" y="1070.0" type="qcurve" smooth="yes"/>
      <point x="700.0" y="1070.0"/>
      <point x="862.0" y="1018.0"/>
      <point x="912.0" y="987.0" type="qcurve" smooth="yes"/>
      <point x="970.0" y="951.0"/>
      <point x="933.0" y="903.0" type="qcurve" smooth="yes"/>
      <point x="870.0" y="821.0" type="line" smooth="yes"/>
      <point x="843.0" y="786.0"/>
      <point x="780.0" y="824.0" type="qcurve" smooth="yes"/>
      <point x="750.0" y="842.0"/>
      <point x="644.0" y="874.0"/>
      <point x="595.0" y="874.0" type="qcurve" smooth="yes"/>
      <point x="560.0" y="874.0"/>
      <point x="488.0" y="858.0"/>
      <point x="438.0" y="805.0"/>
      <point x="438.0" y="768.0" type="qcurve" smooth="yes"/>
      <point x="438.0" y="744.0"/>
      <point x="452.0" y="704.0"/>
      <point x="497.0" y="662.0"/>
      <point x="523.0" y="651.0" type="qcurve" smooth="yes"/>
      <point x="566.0" y="633.0"/>
      <point x="648.0" y="603.0"/>
      <point x="698.0" y="580.0" type="qcurve" smooth="yes"/>
      <point x="765.0" y="549.0"/>
      <point x="847.0" y="471.0"/>
      <point x="885.0" y="378.0"/>
      <point x="885.0" y="312.0" type="qcurve" smooth="yes"/>
      <point x="885.0" y="213.0"/>
      <point x="742.0" y="38.0"/>
      <point x="539.0" y="-20.0"/>
      <point x="421.0" y="-20.0" type="qcurve" smooth="yes"/>
      <point x="280.0" y="-20.0"/>
      <point x="112.0" y="19.0"/>
    </contour>
  </outline>
</glyph>
<glyph name="t" format="2">
  <advance width="798"/>
  <unicode hex="0074"/>
  <outline>
    <contour>
      <point x="177.0" y="850.0" type="line" smooth="yes"/>
      <point x="118.0" y="850.0"/>
      <point x="130.0" y="900.0" type="qcurve" smooth="yes"/>
      <point x="153.0" y="1000.0" type="line" smooth="yes"/>
      <point x="165.0" y="1050.0"/>
      <point x="223.0" y="1050.0" type="qcurve" smooth="yes"/>
      <point x="291.0" y="1050.0" type="line"/>
      <point x="299.0" y="1085.0" type="line" smooth="yes"/>
      <point x="309.0" y="1130.0"/>
      <point x="339.0" y="1167.0" type="qcurve" smooth="yes"/>
      <point x="448.0" y="1302.0" type="line" smooth="yes"/>
      <point x="478.0" y="1340.0"/>
      <point x="508.0" y="1340.0" type="qcurve" smooth="yes"/>
      <point x="578.0" y="1340.0" type="line" smooth="yes"/>
      <point x="638.0" y="1340.0"/>
      <point x="625.0" y="1280.0" type="qcurve" smooth="yes"/>
      <point x="571.0" y="1050.0" type="line"/>
      <point x="733.0" y="1050.0" type="line" smooth="yes"/>
      <point x="792.0" y="1050.0"/>
      <point x="781.0" y="1000.0" type="qcurve" smooth="yes"/>
      <point x="758.0" y="900.0" type="line" smooth="yes"/>
      <point x="746.0" y="850.0"/>
      <point x="687.0" y="850.0" type="qcurve" smooth="yes"/>
      <point x="525.0" y="850.0" type="line"/>
      <point x="411.0" y="354.0" type="line" smooth="yes"/>
      <point x="391.0" y="266.0"/>
      <point x="406.0" y="163.0"/>
      <point x="457.0" y="163.0" type="qcurve" smooth="yes"/>
      <point x="488.0" y="163.0"/>
      <point x="564.0" y="178.0"/>
      <point x="589.0" y="188.0" type="qcurve" smooth="yes"/>
      <point x="625.0" y="203.0"/>
      <point x="629.0" y="165.0" type="qcurve" smooth="yes"/>
      <point x="645.0" y="51.0" type="line" smooth="yes"/>
      <point x="649.0" y="18.0"/>
      <point x="608.0" y="1.0" type="qcurve" smooth="yes"/>
      <point x="572.0" y="-14.0"/>
      <point x="444.0" y="-33.0"/>
      <point x="386.0" y="-33.0" type="qcurve" smooth="yes"/>
      <point x="202.0" y="-33.0"/>
      <point x="88.0" y="170.0"/>
      <point x="130.0" y="350.0" type="qcurve" smooth="yes"/>
      <point x="245.0" y="850.0" type="line"/>
    </contour>
  </outline>
</glyph>
<glyph name="u" format="2">
  <advance width="1194"/>
  <unicode hex="0075"/>
  <outline>
    <contour>
      <point x="115.0" y="436.0" type="qcurve" smooth="yes"/>
      <point x="243.0" y="990.0" type="line" smooth="yes"/>
      <point x="257.0" y="1050.0"/>
      <point x="316.0" y="1050.0" type="qcurve" smooth="yes"/>
      <point x="476.0" y="1050.0" type="line" smooth="yes"/>
      <point x="536.0" y="1050.0"/>
      <point x="523.0" y="990.0" type="qcurve" smooth="yes"/>
      <point x="411.0" y="508.0" type="line" smooth="yes"/>
      <point x="362.0" y="296.0"/>
      <point x="411.0" y="176.0"/>
      <point x="491.0" y="176.0" type="qcurve" smooth="yes"/>
      <point x="592.0" y="176.0"/>
      <point x="755.0" y="414.0"/>
      <point x="806.0" y="635.0" type="qcurve" smooth="yes"/>
      <point x="887.0" y="990.0" type="line" smooth="yes"/>
      <point x="901.0" y="1050.0"/>
      <point x="960.0" y="1050.0" type="qcurve" smooth="yes"/>
      <point x="1120.0" y="1050.0" type="line" smooth="yes"/>
      <point x="1180.0" y="1050.0"/>
      <point x="1167.0" y="990.0" type="qcurve" smooth="yes"/>
      <point x="952.0" y="60.0" type="line" smooth="yes"/>
      <point x="938.0" y="0.0"/>
      <point x="878.0" y="0.0" type="qcurve" smooth="yes"/>
      <point x="720.0" y="0.0" type="line" smooth="yes"/>
      <point x="659.0" y="0.0"/>
      <point x="674.0" y="60.0" type="qcurve" smooth="yes"/>
      <point x="695.0" y="147.0" type="line"/>
      <point x="691.0" y="147.0" type="line"/>
      <point x="611.0" y="53.0"/>
      <point x="466.0" y="-20.0"/>
      <point x="366.0" y="-20.0" type="qcurve" smooth="yes"/>
      <point x="224.0" y="-20.0"/>
      <point x="59.0" y="194.0"/>
    </contour>
  </outline>
</glyph>
<glyph name="w" format="2">
  <advance width="1604"/>
  <unicode hex="0077"/>
  <outline>
    <contour>
      <point x="146.0" y="972.0" type="line" smooth="yes"/>
      <point x="142.0" y="1050.0"/>
      <point x="197.0" y="1050.0" type="qcurve" smooth="yes"/>
      <point x="354.0" y="1050.0" type="line" smooth="yes"/>
      <point x="402.0" y="1050.0"/>
      <point x="403.0" y="999.0" type="qcurve"/>
      <point x="402.0" y="413.0" type="line"/>
      <point x="402.0" y="356.0"/>
      <point x="399.0" y="268.0"/>
      <point x="394.0" y="238.0" type="qcurve"/>
      <point x="400.0" y="238.0" type="line"/>
      <point x="409.0" y="268.0"/>
      <point x="446.0" y="358.0"/>
      <point x="472.0" y="413.0" type="qcurve" smooth="yes"/>
      <point x="750.0" y="999.0" type="line" smooth="yes"/>
      <point x="774.0" y="1050.0"/>
      <point x="821.0" y="1050.0" type="qcurve" smooth="yes"/>
      <point x="1003.0" y="1050.0" type="line" smooth="yes"/>
      <point x="1051.0" y="1050.0"/>
      <point x="1052.0" y="999.0" type="qcurve" smooth="yes"/>
      <point x="1058.0" y="413.0" type="line" smooth="yes"/>
      <point x="1059.0" y="358.0"/>
      <point x="1055.0" y="268.0"/>
      <point x="1050.0" y="238.0" type="qcurve"/>
      <point x="1056.0" y="238.0" type="line"/>
      <point x="1065.0" y="268.0"/>
      <point x="1102.0" y="356.0"/>
      <point x="1128.0" y="413.0" type="qcurve" smooth="yes"/>
      <point x="1399.0" y="999.0" type="line" smooth="yes"/>
      <point x="1423.0" y="1050.0"/>
      <point x="1470.0" y="1050.0" type="qcurve" smooth="yes"/>
      <point x="1651.0" y="1050.0" type="line" smooth="yes"/>
      <point x="1706.0" y="1050.0"/>
      <point x="1666.0" y="972.0" type="qcurve" smooth="yes"/>
      <point x="1197.0" y="67.0" type="line" smooth="yes"/>
      <point x="1162.0" y="0.0"/>
      <point x="1109.0" y="0.0" type="qcurve" smooth="yes"/>
      <point x="928.0" y="0.0" type="line" smooth="yes"/>
      <point x="871.0" y="0.0"/>
      <point x="870.0" y="67.0" type="qcurve" smooth="yes"/>
      <point x="862.0" y="660.0" type="line" smooth="yes"/>
      <point x="861.0" y="719.0"/>
      <point x="865.0" y="773.0"/>
      <point x="871.0" y="811.0" type="qcurve"/>
      <point x="867.0" y="811.0" type="line"/>
      <point x="856.0" y="773.0"/>
      <point x="835.0" y="719.0"/>
      <point x="806.0" y="660.0" type="qcurve" smooth="yes"/>
      <point x="524.0" y="67.0" type="line" smooth="yes"/>
      <point x="492.0" y="0.0"/>
      <point x="436.0" y="0.0" type="qcurve" smooth="yes"/>
      <point x="255.0" y="0.0" type="line" smooth="yes"/>
      <point x="201.0" y="0.0"/>
      <point x="197.0" y="67.0" type="qcurve" smooth="yes"/>
    </contour>
  </outline>
</glyph>
<glyph name="braceleft" format="2">
  <advance width="829"/>
  <unicode hex="007B"/>
  <outline>
    <contour>
      <point x="117.0" y="444.0" type="qcurve" smooth="yes"/>
      <point x="67.0" y="444.0"/>
      <point x="81.0" y="503.0" type="qcurve" smooth="yes"/>
      <point x="100.0" y="585.0" type="line" smooth="yes"/>
      <point x="114.0" y="644.0"/>
      <point x="163.0" y="644.0" type="qcurve" smooth="yes"/>
      <point x="246.0" y="644.0"/>
      <point x="368.0" y="792.0"/>
      <point x="400.0" y="931.0" type="qcurve" smooth="yes"/>
      <point x="466.0" y="1216.0" type="line" smooth="yes"/>
      <point x="505.0" y="1386.0"/>
      <point x="664.0" y="1496.0"/>
      <point x="938.0" y="1496.0" type="qcurve" smooth="yes"/>
      <point x="998.0" y="1496.0"/>
      <point x="987.0" y="1446.0" type="qcurve" smooth="yes"/>
      <point x="964.0" y="1346.0" type="line" smooth="yes"/>
      <point x="952.0" y="1296.0"/>
      <point x="892.0" y="1296.0" type="qcurve" smooth="yes"/>
      <point x="812.0" y="1296.0"/>
      <point x="745.0" y="1214.0"/>
      <point x="728.0" y="1139.0" type="qcurve" smooth="yes"/>
      <point x="669.0" y="884.0" type="line" smooth="yes"/>
      <point x="629.0" y="709.0"/>
      <point x="486.0" y="564.0"/>
      <point x="350.0" y="545.0" type="qcurve"/>
      <point x="349.0" y="543.0" type="line"/>
      <point x="453.0" y="504.0"/>
      <point x="543.0" y="338.0"/>
      <point x="505.0" y="174.0" type="qcurve" smooth="yes"/>
      <point x="453.0" y="-51.0" type="line" smooth="yes"/>
      <point x="435.0" y="-129.0"/>
      <point x="441.0" y="-208.0"/>
      <point x="545.0" y="-208.0" type="qcurve" smooth="yes"/>
      <point x="605.0" y="-208.0"/>
      <point x="593.0" y="-258.0" type="qcurve" smooth="yes"/>
      <point x="570.0" y="-358.0" type="line" smooth="yes"/>
      <point x="558.0" y="-408.0"/>
      <point x="499.0" y="-408.0" type="qcurve" smooth="yes"/>
      <point x="264.0" y="-408.0"/>
      <point x="130.0" y="-232.0"/>
      <point x="173.0" y="-48.0" type="qcurve" smooth="yes"/>
      <point x="221.0" y="157.0" type="line" smooth="yes"/>
      <point x="267.0" y="354.0"/>
      <point x="180.0" y="444.0"/>
    </contour>
  </outline>
</glyph>
<glyph name="braceright" format="2">
  <advance width="829"/>
  <unicode hex="007D"/>
  <outline>
    <contour>
      <point x="-98.0" y="-408.0" type="qcurve" smooth="yes"/>
      <point x="-158.0" y="-408.0"/>
      <point x="-147.0" y="-358.0" type="qcurve" smooth="yes"/>
      <point x="-124.0" y="-258.0" type="line" smooth="yes"/>
      <point x="-112.0" y="-208.0"/>
      <point x="-52.0" y="-208.0" type="qcurve" smooth="yes"/>
      <point x="28.0" y="-208.0"/>
      <point x="95.0" y="-126.0"/>
      <point x="112.0" y="-51.0" type="qcurve" smooth="yes"/>
      <point x="171.0" y="204.0" type="line" smooth="yes"/>
      <point x="211.0" y="379.0"/>
      <point x="354.0" y="524.0"/>
      <point x="490.0" y="543.0" type="qcurve"/>
      <point x="491.0" y="545.0" type="line"/>
      <point x="387.0" y="584.0"/>
      <point x="297.0" y="750.0"/>
      <point x="335.0" y="914.0" type="qcurve" smooth="yes"/>
      <point x="387.0" y="1139.0" type="line" smooth="yes"/>
      <point x="405.0" y="1217.0"/>
      <point x="399.0" y="1296.0"/>
      <point x="295.0" y="1296.0" type="qcurve" smooth="yes"/>
      <point x="235.0" y="1296.0"/>
      <point x="247.0" y="1346.0" type="qcurve" smooth="yes"/>
      <point x="270.0" y="1446.0" type="line" smooth="yes"/>
      <point x="282.0" y="1496.0"/>
      <point x="341.0" y="1496.0" type="qcurve" smooth="yes"/>
      <point x="576.0" y="1496.0"/>
      <point x="710.0" y="1320.0"/>
      <point x="667.0" y="1136.0" type="qcurve" smooth="yes"/>
      <point x="619.0" y="931.0" type="line" smooth="yes"/>
      <point x="573.0" y="734.0"/>
      <point x="660.0" y="644.0"/>
      <point x="723.0" y="644.0" type="qcurve" smooth="yes"/>
      <point x="773.0" y="644.0"/>
      <point x="759.0" y="585.0" type="qcurve" smooth="yes"/>
      <point x="740.0" y="503.0" type="line" smooth="yes"/>
      <point x="726.0" y="444.0"/>
      <point x="677.0" y="444.0" type="qcurve" smooth="yes"/>
      <point x="594.0" y="444.0"/>
      <point x="472.0" y="296.0"/>
      <point x="440.0" y="157.0" type="qcurve" smooth="yes"/>
      <point x="374.0" y="-128.0" type="line" smooth="yes"/>
      <point x="335.0" y="-298.0"/>
      <point x="176.0" y="-408.0"/>
    </contour>
  </outline>
</glyph>
<glyph name="cent" format="2">
  <advance width="1200"/>
  <unicode hex="00A2"/>
  <outline>
    <contour>
      <point x="128.0" y="412.0" type="qcurve" smooth="yes"/>
      <point x="128.0" y="644.0"/>
      <point x="448.0" y="1050.0"/>
      <point x="692.0" y="1068.0" type="qcurve"/>
      <point x="732.0" y="1240.0" type="line" smooth="yes"/>
      <point x="746.0" y="1300.0"/>
      <point x="796.0" y="1300.0" type="qcurve" smooth="yes"/>
      <point x="876.0" y="1300.0" type="line" smooth="yes"/>
      <point x="926.0" y="1300.0"/>
      <point x="912.0" y="1240.0" type="qcurve" smooth="yes"/>
      <point x="870.0" y="1060.0" type="line"/>
      <point x="929.0" y="1049.0"/>
      <point x="1048.0" y="980.0"/>
      <point x="1099.0" y="906.0" type="qcurve" smooth="yes"/>
      <point x="1128.0" y="864.0"/>
      <point x="1082.0" y="833.0" type="qcurve" smooth="yes"/>
      <point x="973.0" y="760.0" type="line" smooth="yes"/>
      <point x="934.0" y="734.0"/>
      <point x="896.0" y="790.0" type="qcurve" smooth="yes"/>
      <point x="875.0" y="821.0"/>
      <point x="832.0" y="853.0"/>
      <point x="824.0" y="857.0" type="qcurve"/>
      <point x="668.0" y="182.0" type="line"/>
      <point x="705.0" y="190.0"/>
      <point x="782.0" y="241.0"/>
      <point x="830.0" y="301.0" type="qcurve" smooth="yes"/>
      <point x="867.0" y="347.0"/>
      <point x="911.0" y="306.0" type="qcurve" smooth="yes"/>
      <point x="992.0" y="231.0" type="line" smooth="yes"/>
      <point x="1031.0" y="195.0"/>
      <point x="990.0" y="143.0" type="qcurve" smooth="yes"/>
      <point x="951.0" y="93.0"/>
      <point x="764.0" y="-14.0"/>
      <point x="621.0" y="-19.0" type="qcurve"/>
      <point x="582.0" y="-190.0" type="line" smooth="yes"/>
      <point x="568.0" y="-250.0"/>
      <point x="518.0" y="-250.0" type="qcurve" smooth="yes"/>
      <point x="438.0" y="-250.0" type="line" smooth="yes"/>
      <point x="388.0" y="-250.0"/>
      <point x="402.0" y="-190.0" type="qcurve" smooth="yes"/>
      <point x="444.0" y="-8.0" type="line"/>
      <point x="297.0" y="19.0"/>
      <point x="128.0" y="237.0"/>
    </contour>
    <contour>
      <point x="424.0" y="387.0" type="qcurve" smooth="yes"/>
      <point x="424.0" y="282.0"/>
      <point x="483.0" y="219.0"/>
      <point x="494.0" y="210.0" type="qcurve"/>
      <point x="643.0" y="853.0" type="line"/>
      <point x="580.0" y="822.0"/>
      <point x="424.0" y="622.0"/>
    </contour>
  </outline>
</glyph>
<glyph name="currency" format="2">
  <advance width="1200"/>
  <unicode hex="00A4"/>
  <outline>
    <contour>
      <point x="136.0" y="276.0" type="line" smooth="yes"/>
      <point x="100.0" y="310.0"/>
      <point x="141.0" y="354.0" type="qcurve" smooth="yes"/>
      <point x="267.0" y="490.0" type="line"/>
      <point x="205.0" y="596.0"/>
      <point x="205.0" y="728.0" type="qcurve" smooth="yes"/>
      <point x="205.0" y="860.0"/>
      <point x="267.0" y="966.0" type="qcurve"/>
      <point x="141.0" y="1102.0" type="line" smooth="yes"/>
      <point x="100.0" y="1146.0"/>
      <point x="136.0" y="1180.0" type="qcurve" smooth="yes"/>
      <point x="199.0" y="1239.0" type="line" smooth="yes"/>
      <point x="236.0" y="1273.0"/>
      <point x="277.0" y="1229.0" type="qcurve" smooth="yes"/>
      <point x="392.0" y="1105.0" type="line"/>
      <point x="502.0" y="1187.0"/>
      <point x="650.0" y="1187.0" type="qcurve" smooth="yes"/>
      <point x="798.0" y="1187.0"/>
      <point x="908.0" y="1105.0" type="qcurve"/>
      <point x="1023.0" y="1229.0" type="line" smooth="yes"/>
      <point x="1064.0" y="1273.0"/>
      <point x="1101.0" y="1239.0" type="qcurve" smooth="yes"/>
      <point x="1164.0" y="1180.0" type="line" smooth="yes"/>
      <point x="1200.0" y="1146.0"/>
      <point x="1159.0" y="1102.0" type="qcurve" smooth="yes"/>
      <point x="1033.0" y="966.0" type="line"/>
      <point x="1095.0" y="860.0"/>
      <point x="1095.0" y="728.0" type="qcurve" smooth="yes"/>
      <point x="1095.0" y="596.0"/>
      <point x="1033.0" y="490.0" type="qcurve"/>
      <point x="1159.0" y="354.0" type="line" smooth="yes"/>
      <point x="1200.0" y="310.0"/>
      <point x="1164.0" y="276.0" type="qcurve" smooth="yes"/>
      <point x="1101.0" y="217.0" type="line" smooth="yes"/>
      <point x="1064.0" y="183.0"/>
      <point x="1023.0" y="227.0" type="qcurve" smooth="yes"/>
      <point x="908.0" y="351.0" type="line"/>
      <point x="798.0" y="269.0"/>
      <point x="650.0" y="269.0" type="qcurve" smooth="yes"/>
      <point x="502.0" y="269.0"/>
      <point x="392.0" y="351.0" type="qcurve"/>
      <point x="277.0" y="227.0" type="line" smooth="yes"/>
      <point x="236.0" y="183.0"/>
      <point x="199.0" y="217.0" type="qcurve" smooth="yes"/>
    </contour>
    <contour>
      <point x="400.0" y="728.0" type="qcurve" smooth="yes"/>
      <point x="400.0" y="620.0"/>
      <point x="539.0" y="463.0"/>
      <point x="650.0" y="463.0" type="qcurve" smooth="yes"/>
      <point x="761.0" y="463.0"/>
      <point x="900.0" y="620.0"/>
      <point x="900.0" y="728.0" type="qcurve" smooth="yes"/>
      <point x="900.0" y="836.0"/>
      <point x="761.0" y="993.0"/>
      <point x="650.0" y="993.0" type="qcurve" smooth="yes"/>
      <point x="539.0" y="993.0"/>
      <point x="400.0" y="836.0"/>
    </contour>
  </outline>
</glyph>
<glyph name="yen" format="2">
  <advance width="1200"/>
  <unicode hex="00A5"/>
  <outline>
    <contour>
      <point x="204.0" y="1348.0" type="line" smooth="yes"/>
      <point x="172.0" y="1434.0"/>
      <point x="271.0" y="1434.0" type="qcurve" smooth="yes"/>
      <point x="408.0" y="1434.0" type="line" smooth="yes"/>
      <point x="465.0" y="1434.0"/>
      <point x="484.0" y="1365.0" type="qcurve" smooth="yes"/>
      <point x="585.0" y="994.0" type="line" smooth="yes"/>
      <point x="603.0" y="928.0"/>
      <point x="634.0" y="824.0"/>
      <point x="633.0" y="748.0" type="qcurve"/>
      <point x="637.0" y="748.0" type="line"/>
      <point x="656.0" y="806.0"/>
      <point x="740.0" y="917.0"/>
      <point x="797.0" y="994.0" type="qcurve" smooth="yes"/>
      <point x="1070.0" y="1365.0" type="line" smooth="yes"/>
      <point x="1121.0" y="1434.0"/>
      <point x="1178.0" y="1434.0" type="qcurve" smooth="yes"/>
      <point x="1351.0" y="1434.0" type="line" smooth="yes"/>
      <point x="1450.0" y="1434.0"/>
      <point x="1378.0" y="1348.0" type="qcurve" smooth="yes"/>
      <point x="895.0" y="768.0" type="line"/>
      <point x="1049.0" y="768.0" type="line" smooth="yes"/>
      <point x="1109.0" y="768.0"/>
      <point x="1095.0" y="708.0" type="qcurve" smooth="yes"/>
      <point x="1075.0" y="620.0" type="line" smooth="yes"/>
      <point x="1061.0" y="560.0"/>
      <point x="1001.0" y="560.0" type="qcurve" smooth="yes"/>
      <point x="749.0" y="560.0" type="line"/>
      <point x="710.0" y="391.0" type="line"/>
      <point x="962.0" y="391.0" type="line" smooth="yes"/>
      <point x="1022.0" y="391.0"/>
      <point x="1008.0" y="331.0" type="qcurve" smooth="yes"/>
      <point x="988.0" y="243.0" type="line" smooth="yes"/>
      <point x="974.0" y="183.0"/>
      <point x="914.0" y="183.0" type="qcurve" smooth="yes"/>
      <point x="662.0" y="183.0" type="line"/>
      <point x="634.0" y="60.0" type="line" smooth="yes"/>
      <point x="620.0" y="0.0"/>
      <point x="560.0" y="0.0" type="qcurve" smooth="yes"/>
      <point x="400.0" y="0.0" type="line" smooth="yes"/>
      <point x="340.0" y="0.0"/>
      <point x="354.0" y="60.0" type="qcurve" smooth="yes"/>
      <point x="382.0" y="183.0" type="line"/>
      <point x="130.0" y="183.0" type="line" smooth="yes"/>
      <point x="70.0" y="183.0"/>
      <point x="84.0" y="243.0" type="qcurve" smooth="yes"/>
      <point x="104.0" y="331.0" type="line" smooth="yes"/>
      <point x="118.0" y="391.0"/>
      <point x="178.0" y="391.0" type="qcurve" smooth="yes"/>
      <point x="430.0" y="391.0" type="line"/>
      <point x="469.0" y="560.0" type="line"/>
      <point x="217.0" y="560.0" type="line" smooth="yes"/>
      <point x="157.0" y="560.0"/>
      <point x="171.0" y="620.0" type="qcurve" smooth="yes"/>
      <point x="191.0" y="708.0" type="line" smooth="yes"/>
      <point x="205.0" y="768.0"/>
      <point x="265.0" y="768.0" type="qcurve" smooth="yes"/>
      <point x="419.0" y="768.0" type="line"/>
    </contour>
  </outline>
</glyph>
<glyph name="section" format="2">
  <advance width="1236"/>
  <unicode hex="00A7"/>
  <outline>
    <contour>
      <point x="123.0" y="575.0" type="qcurve" smooth="yes"/>
      <point x="123.0" y="704.0"/>
      <point x="309.0" y="901.0"/>
      <point x="456.0" y="990.0" type="qcurve"/>
      <point x="431.0" y="1057.0"/>
      <point x="431.0" y="1128.0" type="qcurve" smooth="yes"/>
      <point x="431.0" y="1272.0"/>
      <point x="664.0" y="1468.0"/>
      <point x="826.0" y="1468.0" type="qcurve" smooth="yes"/>
      <point x="930.0" y="1468.0"/>
      <point x="1068.0" y="1394.0"/>
      <point x="1103.0" y="1349.0" type="qcurve" smooth="yes"/>
      <point x="1141.0" y="1300.0"/>
      <point x="1115.0" y="1277.0" type="qcurve" smooth="yes"/>
      <point x="1020.0" y="1194.0" type="line" smooth="yes"/>
      <point x="986.0" y="1164.0"/>
      <point x="959.0" y="1204.0" type="qcurve" smooth="yes"/>
      <point x="940.0" y="1232.0"/>
      <point x="886.0" y="1272.0"/>
      <point x="832.0" y="1272.0" type="qcurve" smooth="yes"/>
      <point x="790.0" y="1272.0"/>
      <point x="715.0" y="1208.0"/>
      <point x="715.0" y="1155.0" type="qcurve" smooth="yes"/>
      <point x="715.0" y="1040.0"/>
      <point x="1125.0" y="708.0"/>
      <point x="1125.0" y="515.0" type="qcurve" smooth="yes"/>
      <point x="1125.0" y="386.0"/>
      <point x="939.0" y="189.0"/>
      <point x="792.0" y="100.0" type="qcurve"/>
      <point x="817.0" y="33.0"/>
      <point x="817.0" y="-38.0" type="qcurve" smooth="yes"/>
      <point x="817.0" y="-182.0"/>
      <point x="584.0" y="-378.0"/>
      <point x="422.0" y="-378.0" type="qcurve" smooth="yes"/>
      <point x="318.0" y="-378.0"/>
      <point x="180.0" y="-304.0"/>
      <point x="145.0" y="-259.0" type="qcurve" smooth="yes"/>
      <point x="107.0" y="-210.0"/>
      <point x="133.0" y="-187.0" type="qcurve" smooth="yes"/>
      <point x="228.0" y="-104.0" type="line" smooth="yes"/>
      <point x="262.0" y="-74.0"/>
      <point x="289.0" y="-114.0" type="qcurve" smooth="yes"/>
      <point x="308.0" y="-142.0"/>
      <point x="362.0" y="-182.0"/>
      <point x="416.0" y="-182.0" type="qcurve" smooth="yes"/>
      <point x="458.0" y="-182.0"/>
      <point x="533.0" y="-118.0"/>
      <point x="533.0" y="-65.0" type="qcurve" smooth="yes"/>
      <point x="533.0" y="50.0"/>
      <point x="123.0" y="382.0"/>
    </contour>
    <contour>
      <point x="365.0" y="634.0" type="qcurve" smooth="yes"/>
      <point x="365.0" y="530.0"/>
      <point x="659.0" y="299.0"/>
      <point x="706.0" y="243.0" type="qcurve"/>
      <point x="813.0" y="324.0" type="line" smooth="yes"/>
      <point x="883.0" y="377.0"/>
      <point x="883.0" y="456.0" type="qcurve" smooth="yes"/>
      <point x="883.0" y="560.0"/>
      <point x="589.0" y="791.0"/>
      <point x="542.0" y="847.0" type="qcurve"/>
      <point x="435.0" y="766.0" type="line" smooth="yes"/>
      <point x="365.0" y="713.0"/>
    </contour>
  </outline>
</glyph>
<glyph name="copyright" format="2">
  <advance width="1654"/>
  <unicode hex="00A9"/>
  <outline>
    <contour>
      <point x="96.0" y="717.0" type="qcurve" smooth="yes"/>
      <point x="96.0" y="870.0"/>
      <point x="216.0" y="1147.0"/>
      <point x="417.0" y="1348.0"/>
      <point x="694.0" y="1468.0"/>
      <point x="847.0" y="1468.0" type="qcurve" smooth="yes"/>
      <point x="1000.0" y="1468.0"/>
      <point x="1277.0" y="1348.0"/>
      <point x="1478.0" y="1147.0"/>
      <point x="1598.0" y="870.0"/>
      <point x="1598.0" y="717.0" type="qcurve" smooth="yes"/>
      <point x="1598.0" y="564.0"/>
      <point x="1478.0" y="287.0"/>
      <point x="1277.0" y="86.0"/>
      <point x="1000.0" y="-34.0"/>
      <point x="847.0" y="-34.0" type="qcurve" smooth="yes"/>
      <point x="694.0" y="-34.0"/>
      <point x="417.0" y="86.0"/>
      <point x="216.0" y="287.0"/>
      <point x="96.0" y="564.0"/>
    </contour>
    <contour>
      <point x="212.0" y="717.0" type="qcurve" smooth="yes"/>
      <point x="212.0" y="587.0"/>
      <point x="313.0" y="353.0"/>
      <point x="483.0" y="183.0"/>
      <point x="717.0" y="78.0"/>
      <point x="847.0" y="78.0" type="qcurve" smooth="yes"/>
      <point x="977.0" y="78.0"/>
      <point x="1211.0" y="183.0"/>
      <point x="1381.0" y="353.0"/>
      <point x="1482.0" y="587.0"/>
      <point x="1482.0" y="717.0" type="qcurve" smooth="yes"/>
      <point x="1482.0" y="847.0"/>
      <point x="1381.0" y="1081.0"/>
      <point x="1211.0" y="1251.0"/>
      <point x="977.0" y="1356.0"/>
      <point x="847.0" y="1356.0" type="qcurve" smooth="yes"/>
      <point x="717.0" y="1356.0"/>
      <point x="483.0" y="1251.0"/>
      <point x="313.0" y="1081.0"/>
      <point x="212.0" y="847.0"/>
    </contour>
    <contour>
      <point x="448.0" y="717.0" type="qcurve" smooth="yes"/>
      <point x="448.0" y="917.0"/>
      <point x="652.0" y="1153.0"/>
      <point x="843.0" y="1153.0" type="qcurve" smooth="yes"/>
      <point x="950.0" y="1153.0"/>
      <point x="1109.0" y="1087.0"/>
      <point x="1141.0" y="1022.0" type="qcurve" smooth="yes"/>
      <point x="1162.0" y="980.0"/>
      <point x="1134.0" y="964.0" type="qcurve" smooth="yes"/>
      <point x="1058.0" y="921.0" type="line" smooth="yes"/>
      <point x="1021.0" y="900.0"/>
      <point x="998.0" y="943.0" type="qcurve" smooth="yes"/>
      <point x="983.0" y="970.0"/>
      <point x="904.0" y="1012.0"/>
      <point x="849.0" y="1012.0" type="qcurve" smooth="yes"/>
      <point x="727.0" y="1012.0"/>
      <point x="635.0" y="862.0"/>
      <point x="635.0" y="717.0" type="qcurve" smooth="yes"/>
      <point x="635.0" y="572.0"/>
      <point x="727.0" y="422.0"/>
      <point x="849.0" y="422.0" type="qcurve" smooth="yes"/>
      <point x="915.0" y="422.0"/>
      <point x="1001.0" y="480.0"/>
      <point x="1019.0" y="507.0" type="qcurve" smooth="yes"/>
      <point x="1047.0" y="551.0"/>
      <point x="1079.0" y="529.0" type="qcurve" smooth="yes"/>
      <point x="1155.0" y="477.0" type="line" smooth="yes"/>
      <point x="1183.0" y="458.0"/>
      <point x="1160.0" y="419.0" type="qcurve" smooth="yes"/>
      <point x="1126.0" y="361.0"/>
      <point x="960.0" y="281.0"/>
      <point x="843.0" y="281.0" type="qcurve" smooth="yes"/>
      <point x="655.0" y="281.0"/>
      <point x="448.0" y="517.0"/>
    </contour>
  </outline>
</glyph>
<glyph name="ordfeminine" format="2">
  <advance width="804"/>
  <unicode hex="00AA"/>
  <outline>
    <contour>
      <point x="179.0" y="1046.0" type="qcurve" smooth="yes"/>
      <point x="179.0" y="1229.0"/>
      <point x="428.0" y="1496.0"/>
      <point x="589.0" y="1496.0" type="qcurve" smooth="yes"/>
      <point x="626.0" y="1496.0"/>
      <point x="694.0" y="1454.0"/>
      <point x="712.0" y="1420.0" type="qcurve"/>
      <point x="715.0" y="1420.0" type="line"/>
      <point x="726.0" y="1444.0" type="line" smooth="yes"/>
      <point x="743.0" y="1482.0"/>
      <point x="772.0" y="1482.0" type="qcurve" smooth="yes"/>
      <point x="888.0" y="1482.0" type="line" smooth="yes"/>
      <point x="929.0" y="1482.0"/>
      <point x="920.0" y="1444.0" type="qcurve" smooth="yes"/>
      <point x="777.0" y="839.0" type="line" smooth="yes"/>
      <point x="768.0" y="800.0"/>
      <point x="727.0" y="800.0" type="qcurve" smooth="yes"/>
      <point x="611.0" y="800.0" type="line" smooth="yes"/>
      <point x="574.0" y="800.0"/>
      <point x="581.0" y="839.0" type="qcurve" smooth="yes"/>
      <point x="590.0" y="890.0" type="line"/>
      <point x="587.0" y="890.0" type="line"/>
      <point x="550.0" y="838.0"/>
      <point x="454.0" y="787.0"/>
      <point x="398.0" y="787.0" type="qcurve" smooth="yes"/>
      <point x="290.0" y="787.0"/>
      <point x="179.0" y="932.0"/>
    </contour>
    <contour>
      <point x="391.0" y="1034.0" type="qcurve" smooth="yes"/>
      <point x="391.0" y="988.0"/>
      <point x="438.0" y="943.0"/>
      <point x="465.0" y="943.0" type="qcurve" smooth="yes"/>
      <point x="523.0" y="943.0"/>
      <point x="623.0" y="1054.0"/>
      <point x="644.0" y="1139.0" type="qcurve" smooth="yes"/>
      <point x="666.0" y="1228.0" type="line"/>
      <point x="664.0" y="1284.0"/>
      <point x="618.0" y="1340.0"/>
      <point x="578.0" y="1340.0" type="qcurve" smooth="yes"/>
      <point x="504.0" y="1340.0"/>
      <point x="391.0" y="1154.0"/>
    </contour>
  </outline>
</glyph>
<glyph name="registered" format="2">
  <advance width="1654"/>
  <unicode hex="00AE"/>
  <outline>
    <contour>
      <point x="96.0" y="717.0" type="qcurve" smooth="yes"/>
      <point x="96.0" y="870.0"/>
      <point x="216.0" y="1147.0"/>
      <point x="417.0" y="1348.0"/>
      <point x="694.0" y="1468.0"/>
      <point x="847.0" y="1468.0" type="qcurve" smooth="yes"/>
      <point x="1000.0" y="1468.0"/>
      <point x="1277.0" y="1348.0"/>
      <point x="1478.0" y="1147.0"/>
      <point x="1598.0" y="870.0"/>
      <point x="1598.0" y="717.0" type="qcurve" smooth="yes"/>
      <point x="1598.0" y="564.0"/>
      <point x="1478.0" y="287.0"/>
      <point x="1277.0" y="86.0"/>
      <point x="1000.0" y="-34.0"/>
      <point x="847.0" y="-34.0" type="qcurve" smooth="yes"/>
      <point x="694.0" y="-34.0"/>
      <point x="417.0" y="86.0"/>
      <point x="216.0" y="287.0"/>
      <point x="96.0" y="564.0"/>
    </contour>
    <contour>
      <point x="212.0" y="717.0" type="qcurve" smooth="yes"/>
      <point x="212.0" y="587.0"/>
      <point x="313.0" y="353.0"/>
      <point x="483.0" y="183.0"/>
      <point x="717.0" y="78.0"/>
      <point x="847.0" y="78.0" type="qcurve" smooth="yes"/>
      <point x="977.0" y="78.0"/>
      <point x="1211.0" y="183.0"/>
      <point x="1381.0" y="353.0"/>
      <point x="1482.0" y="587.0"/>
      <point x="1482.0" y="717.0" type="qcurve" smooth="yes"/>
      <point x="1482.0" y="847.0"/>
      <point x="1381.0" y="1081.0"/>
      <point x="1211.0" y="1251.0"/>
      <point x="977.0" y="1356.0"/>
      <point x="847.0" y="1356.0" type="qcurve" smooth="yes"/>
      <point x="717.0" y="1356.0"/>
      <point x="483.0" y="1251.0"/>
      <point x="313.0" y="1081.0"/>
      <point x="212.0" y="847.0"/>
    </contour>
    <contour>
      <point x="582.0" y="283.0" type="line" smooth="yes"/>
      <point x="541.0" y="283.0"/>
      <point x="541.0" y="326.0" type="qcurve" smooth="yes"/>
      <point x="541.0" y="1071.0" type="line" smooth="yes"/>
      <point x="541.0" y="1114.0"/>
      <point x="582.0" y="1114.0" type="qcurve" smooth="yes"/>
      <point x="850.0" y="1114.0" type="line" smooth="yes"/>
      <point x="1029.0" y="1114.0"/>
      <point x="1194.0" y="1003.0"/>
      <point x="1194.0" y="879.0" type="qcurve" smooth="yes"/>
      <point x="1194.0" y="786.0"/>
      <point x="1061.0" y="676.0"/>
      <point x="958.0" y="658.0" type="qcurve"/>
      <point x="958.0" y="657.0" type="line"/>
      <point x="1014.0" y="636.0"/>
      <point x="1070.0" y="563.0"/>
      <point x="1088.0" y="534.0" type="qcurve" smooth="yes"/>
      <point x="1216.0" y="333.0" type="line" smooth="yes"/>
      <point x="1248.0" y="283.0"/>
      <point x="1194.0" y="283.0" type="qcurve" smooth="yes"/>
      <point x="1087.0" y="283.0" type="line" smooth="yes"/>
      <point x="1055.0" y="283.0"/>
      <point x="1035.0" y="317.0" type="qcurve" smooth="yes"/>
      <point x="918.0" y="512.0" type="line" smooth="yes"/>
      <point x="900.0" y="542.0"/>
      <point x="798.0" y="618.0"/>
      <point x="747.0" y="618.0" type="qcurve" smooth="yes"/>
      <point x="716.0" y="618.0" type="line"/>
      <point x="716.0" y="326.0" type="line" smooth="yes"/>
      <point x="716.0" y="283.0"/>
      <point x="676.0" y="283.0" type="qcurve" smooth="yes"/>
    </contour>
    <contour>
      <point x="716.0" y="763.0" type="line"/>
      <point x="810.0" y="763.0" type="line" smooth="yes"/>
      <point x="926.0" y="763.0"/>
      <point x="1024.0" y="815.0"/>
      <point x="1024.0" y="872.0" type="qcurve" smooth="yes"/>
      <point x="1024.0" y="935.0"/>
      <point x="930.0" y="970.0"/>
      <point x="838.0" y="970.0" type="qcurve" smooth="yes"/>
      <point x="716.0" y="970.0" type="line"/>
    </contour>
  </outline>
</glyph>
<glyph name="uni00B3" format="2">
  <advance width="630"/>
  <unicode hex="00B3"/>
  <outline>
    <contour>
      <point x="125.0" y="767.0" type="qcurve" smooth="yes"/>
      <point x="102.0" y="789.0"/>
      <point x="122.0" y="816.0" type="qcurve" smooth="yes"/>
      <point x="159.0" y="867.0" type="line" smooth="yes"/>
      <point x="184.0" y="902.0"/>
      <point x="214.0" y="872.0" type="qcurve" smooth="yes"/>
      <point x="241.0" y="845.0"/>
      <point x="328.0" y="821.0"/>
      <point x="368.0" y="821.0" type="qcurve" smooth="yes"/>
      <point x="423.0" y="821.0"/>
      <point x="504.0" y="890.0"/>
      <point x="504.0" y="945.0" type="qcurve" smooth="yes"/>
      <point x="504.0" y="999.0"/>
      <point x="456.0" y="1047.0"/>
      <point x="405.0" y="1047.0" type="qcurve" smooth="yes"/>
      <point x="365.0" y="1047.0" type="line" smooth="yes"/>
      <point x="331.0" y="1047.0"/>
      <point x="337.0" y="1074.0" type="qcurve" smooth="yes"/>
      <point x="353.0" y="1143.0" type="line" smooth="yes"/>
      <point x="360.0" y="1172.0"/>
      <point x="394.0" y="1172.0" type="qcurve" smooth="yes"/>
      <point x="415.0" y="1172.0" type="line" smooth="yes"/>
      <point x="458.0" y="1172.0"/>
      <point x="556.0" y="1238.0"/>
      <point x="556.0" y="1281.0" type="qcurve" smooth="yes"/>
      <point x="556.0" y="1318.0"/>
      <point x="506.0" y="1342.0"/>
      <point x="460.0" y="1342.0" type="qcurve" smooth="yes"/>
      <point x="421.0" y="1342.0"/>
      <point x="346.0" y="1309.0"/>
      <point x="327.0" y="1292.0" type="qcurve" smooth="yes"/>
      <point x="295.0" y="1263.0"/>
      <point x="274.0" y="1295.0" type="qcurve" smooth="yes"/>
      <point x="245.0" y="1340.0" type="line" smooth="yes"/>
      <point x="229.0" y="1366.0"/>
      <point x="255.0" y="1391.0" type="qcurve" smooth="yes"/>
      <point x="292.0" y="1427.0"/>
      <point x="407.0" y="1468.0"/>
      <point x="464.0" y="1468.0" type="qcurve" smooth="yes"/>
      <point x="597.0" y="1468.0"/>
      <point x="714.0" y="1365.0"/>
      <point x="714.0" y="1298.0" type="qcurve" smooth="yes"/>
      <point x="714.0" y="1223.0"/>
      <point x="615.0" y="1135.0"/>
      <point x="545.0" y="1116.0" type="qcurve"/>
      <point x="545.0" y="1114.0" type="line"/>
      <point x="596.0" y="1099.0"/>
      <point x="670.0" y="1008.0"/>
      <point x="670.0" y="949.0" type="qcurve" smooth="yes"/>
      <point x="670.0" y="852.0"/>
      <point x="496.0" y="694.0"/>
      <point x="354.0" y="694.0" type="qcurve" smooth="yes"/>
      <point x="286.0" y="694.0"/>
      <point x="162.0" y="732.0"/>
    </contour>
  </outline>
</glyph>
<glyph name="uni00B5" format="2">
  <advance width="1234"/>
  <unicode hex="00B5"/>
  <outline>
    <contour>
      <point x="-16.0" y="-400.0" type="line" smooth="yes"/>
      <point x="-76.0" y="-400.0"/>
      <point x="-62.0" y="-340.0" type="qcurve" smooth="yes"/>
      <point x="245.0" y="990.0" type="line" smooth="yes"/>
      <point x="259.0" y="1050.0"/>
      <point x="318.0" y="1050.0" type="qcurve" smooth="yes"/>
      <point x="478.0" y="1050.0" type="line" smooth="yes"/>
      <point x="539.0" y="1050.0"/>
      <point x="525.0" y="990.0" type="qcurve" smooth="yes"/>
      <point x="434.0" y="596.0" type="line" smooth="yes"/>
      <point x="373.0" y="330.0"/>
      <point x="440.0" y="176.0"/>
      <point x="521.0" y="176.0" type="qcurve" smooth="yes"/>
      <point x="606.0" y="176.0"/>
      <point x="788.0" y="387.0"/>
      <point x="836.0" y="596.0" type="qcurve" smooth="yes"/>
      <point x="927.0" y="990.0" type="line" smooth="yes"/>
      <point x="941.0" y="1050.0"/>
      <point x="1000.0" y="1050.0" type="qcurve" smooth="yes"/>
      <point x="1160.0" y="1050.0" type="line" smooth="yes"/>
      <point x="1221.0" y="1050.0"/>
      <point x="1207.0" y="990.0" type="qcurve" smooth="yes"/>
      <point x="992.0" y="60.0" type="line" smooth="yes"/>
      <point x="978.0" y="0.0"/>
      <point x="918.0" y="0.0" type="qcurve" smooth="yes"/>
      <point x="760.0" y="0.0" type="line" smooth="yes"/>
      <point x="701.0" y="0.0"/>
      <point x="714.0" y="60.0" type="qcurve" smooth="yes"/>
      <point x="727.0" y="118.0" type="line"/>
      <point x="723.0" y="118.0" type="line"/>
      <point x="680.0" y="54.0"/>
      <point x="574.0" y="-20.0"/>
      <point x="502.0" y="-20.0" type="qcurve" smooth="yes"/>
      <point x="454.0" y="-20.0"/>
      <point x="348.0" y="42.0"/>
      <point x="325.0" y="118.0" type="qcurve"/>
      <point x="319.0" y="118.0" type="line"/>
      <point x="314.0" y="76.0"/>
      <point x="305.0" y="38.0" type="qcurve" smooth="yes"/>
      <point x="218.0" y="-340.0" type="line" smooth="yes"/>
      <point x="204.0" y="-400.0"/>
      <point x="144.0" y="-400.0" type="qcurve" smooth="yes"/>
    </contour>
  </outline>
</glyph>
<glyph name="cedilla" format="2">
  <advance width="614"/>
  <unicode hex="00B8"/>
  <outline>
    <contour>
      <point x="-77.0" y="-399.0" type="qcurve" smooth="yes"/>
      <point x="-108.0" y="-390.0"/>
      <point x="-95.0" y="-357.0" type="qcurve" smooth="yes"/>
      <point x="-75.0" y="-308.0" type="line" smooth="yes"/>
      <point x="-63.0" y="-278.0"/>
      <point x="-29.0" y="-289.0" type="qcurve" smooth="yes"/>
      <point x="17.0" y="-304.0"/>
      <point x="60.0" y="-304.0" type="qcurve" smooth="yes"/>
      <point x="97.0" y="-304.0"/>
      <point x="156.0" y="-270.0"/>
      <point x="156.0" y="-243.0" type="qcurve" smooth="yes"/>
      <point x="156.0" y="-222.0"/>
      <point x="116.0" y="-197.0"/>
      <point x="55.0" y="-197.0" type="qcurve" smooth="yes"/>
      <point x="34.0" y="-197.0" type="line" smooth="yes"/>
      <point x="4.0" y="-197.0"/>
      <point x="8.0" y="-162.0" type="qcurve" smooth="yes"/>
      <point x="14.0" y="-115.0"/>
      <point x="40.0" y="-81.0" type="qcurve" smooth="yes"/>
      <point x="102.0" y="0.0" type="line" smooth="yes"/>
      <point x="119.0" y="22.0"/>
      <point x="147.0" y="22.0" type="qcurve" smooth="yes"/>
      <point x="239.0" y="22.0" type="line" smooth="yes"/>
      <point x="269.0" y="22.0"/>
      <point x="253.0" y="0.0" type="qcurve" smooth="yes"/>
      <point x="188.0" y="-88.0" type="line"/>
      <point x="188.0" y="-91.0" type="line"/>
      <point x="248.0" y="-102.0"/>
      <point x="311.0" y="-163.0"/>
      <point x="311.0" y="-214.0" type="qcurve" smooth="yes"/>
      <point x="311.0" y="-295.0"/>
      <point x="167.0" y="-419.0"/>
      <point x="44.0" y="-419.0" type="qcurve" smooth="yes"/>
      <point x="-7.0" y="-419.0"/>
    </contour>
  </outline>
</glyph>
<glyph name="uni00B9" format="2">
  <advance width="520"/>
  <unicode hex="00B9"/>
  <outline>
    <contour>
      <point x="254.0" y="1298.0" type="line" smooth="yes"/>
      <point x="243.0" y="1323.0"/>
      <point x="281.0" y="1338.0" type="qcurve" smooth="yes"/>
      <point x="313.0" y="1351.0"/>
      <point x="410.0" y="1405.0"/>
      <point x="437.0" y="1431.0" type="qcurve" smooth="yes"/>
      <point x="467.0" y="1460.0"/>
      <point x="489.0" y="1460.0" type="qcurve" smooth="yes"/>
      <point x="586.0" y="1460.0" type="line" smooth="yes"/>
      <point x="617.0" y="1460.0"/>
      <point x="610.0" y="1429.0" type="qcurve" smooth="yes"/>
      <point x="452.0" y="743.0" type="line" smooth="yes"/>
      <point x="445.0" y="712.0"/>
      <point x="413.0" y="712.0" type="qcurve" smooth="yes"/>
      <point x="315.0" y="712.0" type="line" smooth="yes"/>
      <point x="285.0" y="712.0"/>
      <point x="292.0" y="743.0" type="qcurve" smooth="yes"/>
      <point x="401.0" y="1218.0" type="line" smooth="yes"/>
      <point x="405.0" y="1237.0"/>
      <point x="413.0" y="1260.0" type="qcurve"/>
      <point x="411.0" y="1260.0" type="line"/>
      <point x="389.0" y="1240.0"/>
      <point x="337.0" y="1214.0"/>
      <point x="322.0" y="1208.0" type="qcurve" smooth="yes"/>
      <point x="298.0" y="1199.0"/>
      <point x="288.0" y="1222.0" type="qcurve" smooth="yes"/>
    </contour>
  </outline>
</glyph>
<glyph name="ordmasculine" format="2">
  <advance width="820"/>
  <unicode hex="00BA"/>
  <outline>
    <contour>
      <point x="182.0" y="1068.0" type="qcurve" smooth="yes"/>
      <point x="182.0" y="1223.0"/>
      <point x="412.0" y="1496.0"/>
      <point x="612.0" y="1496.0" type="qcurve" smooth="yes"/>
      <point x="782.0" y="1496.0"/>
      <point x="925.0" y="1350.0"/>
      <point x="925.0" y="1215.0" type="qcurve" smooth="yes"/>
      <point x="925.0" y="1060.0"/>
      <point x="694.0" y="787.0"/>
      <point x="494.0" y="787.0" type="qcurve" smooth="yes"/>
      <point x="324.0" y="787.0"/>
      <point x="182.0" y="933.0"/>
    </contour>
    <contour>
      <point x="394.0" y="1062.0" type="qcurve" smooth="yes"/>
      <point x="394.0" y="1002.0"/>
      <point x="457.0" y="943.0"/>
      <point x="507.0" y="943.0" type="qcurve" smooth="yes"/>
      <point x="577.0" y="943.0"/>
      <point x="713.0" y="1090.0"/>
      <point x="713.0" y="1220.0" type="qcurve" smooth="yes"/>
      <point x="713.0" y="1280.0"/>
      <point x="649.0" y="1340.0"/>
      <point x="599.0" y="1340.0" type="qcurve" smooth="yes"/>
      <point x="529.0" y="1340.0"/>
      <point x="394.0" y="1192.0"/>
    </contour>
  </outline>
</glyph>
<glyph name="questiondown" format="2">
  <advance width="1106"/>
  <unicode hex="00BF"/>
  <outline>
    <contour>
      <point x="-28.0" y="-108.0" type="qcurve" smooth="yes"/>
      <point x="-28.0" y="102.0"/>
      <point x="406.0" y="422.0"/>
      <point x="439.0" y="556.0" type="qcurve" smooth="yes"/>
      <point x="443.0" y="572.0" type="line" smooth="yes"/>
      <point x="459.0" y="637.0"/>
      <point x="523.0" y="637.0" type="qcurve" smooth="yes"/>
      <point x="673.0" y="637.0" type="line" smooth="yes"/>
      <point x="738.0" y="637.0"/>
      <point x="723.0" y="572.0" type="qcurve" smooth="yes"/>
      <point x="716.0" y="542.0" type="line" smooth="yes"/>
      <point x="664.0" y="320.0"/>
      <point x="272.0" y="33.0"/>
      <point x="272.0" y="-84.0" type="qcurve" smooth="yes"/>
      <point x="272.0" y="-130.0"/>
      <point x="340.0" y="-194.0"/>
      <point x="424.0" y="-194.0" type="qcurve" smooth="yes"/>
      <point x="494.0" y="-194.0"/>
      <point x="628.0" y="-111.0"/>
      <point x="674.0" y="-55.0" type="qcurve" smooth="yes"/>
      <point x="721.0" y="2.0"/>
      <point x="763.0" y="-36.0" type="qcurve" smooth="yes"/>
      <point x="850.0" y="-114.0" type="line" smooth="yes"/>
      <point x="909.0" y="-167.0"/>
      <point x="863.0" y="-216.0" type="qcurve" smooth="yes"/>
      <point x="796.0" y="-288.0"/>
      <point x="574.0" y="-418.0"/>
      <point x="404.0" y="-418.0" type="qcurve" smooth="yes"/>
      <point x="208.0" y="-418.0"/>
      <point x="-28.0" y="-273.0"/>
    </contour>
    <contour>
      <point x="551.0" y="766.0" type="line" smooth="yes"/>
      <point x="481.0" y="766.0"/>
      <point x="499.0" y="841.0" type="qcurve" smooth="yes"/>
      <point x="530.0" y="975.0" type="line" smooth="yes"/>
      <point x="547.0" y="1050.0"/>
      <point x="617.0" y="1050.0" type="qcurve" smooth="yes"/>
      <point x="769.0" y="1050.0" type="line" smooth="yes"/>
      <point x="839.0" y="1050.0"/>
      <point x="822.0" y="975.0" type="qcurve" smooth="yes"/>
      <point x="791.0" y="841.0" type="line" smooth="yes"/>
      <point x="774.0" y="766.0"/>
      <point x="703.0" y="766.0" type="qcurve" smooth="yes"/>
    </contour>
  </outline>
</glyph>
<glyph name="AE" format="2">
  <advance width="1911"/>
  <unicode hex="00C6"/>
  <outline>
    <contour>
      <point x="-30.0" y="0.0" type="line" smooth="yes"/>
      <point x="-105.0" y="0.0"/>
      <point x="-63.0" y="66.0" type="qcurve" smooth="yes"/>
      <point x="755.0" y="1353.0" type="line" smooth="yes"/>
      <point x="806.0" y="1434.0"/>
      <point x="866.0" y="1434.0" type="qcurve" smooth="yes"/>
      <point x="1930.0" y="1434.0" type="line" smooth="yes"/>
      <point x="2005.0" y="1434.0"/>
      <point x="1990.0" y="1369.0" type="qcurve" smooth="yes"/>
      <point x="1963.0" y="1251.0" type="line" smooth="yes"/>
      <point x="1948.0" y="1186.0"/>
      <point x="1873.0" y="1186.0" type="qcurve" smooth="yes"/>
      <point x="1270.0" y="1186.0" type="line"/>
      <point x="1196.0" y="868.0" type="line"/>
      <point x="1746.0" y="868.0" type="line" smooth="yes"/>
      <point x="1821.0" y="868.0"/>
      <point x="1806.0" y="803.0" type="qcurve" smooth="yes"/>
      <point x="1779.0" y="685.0" type="line" smooth="yes"/>
      <point x="1764.0" y="620.0"/>
      <point x="1689.0" y="620.0" type="qcurve" smooth="yes"/>
      <point x="1139.0" y="620.0" type="line"/>
      <point x="1053.0" y="248.0" type="line"/>
      <point x="1688.0" y="248.0" type="line" smooth="yes"/>
      <point x="1763.0" y="248.0"/>
      <point x="1748.0" y="183.0" type="qcurve" smooth="yes"/>
      <point x="1721.0" y="65.0" type="line" smooth="yes"/>
      <point x="1706.0" y="0.0"/>
      <point x="1631.0" y="0.0" type="qcurve" smooth="yes"/>
      <point x="774.0" y="0.0" type="line" smooth="yes"/>
      <point x="704.0" y="0.0"/>
      <point x="721.0" y="75.0" type="qcurve" smooth="yes"/>
      <point x="782.0" y="338.0" type="line"/>
      <point x="433.0" y="338.0" type="line"/>
      <point x="262.0" y="69.0" type="line" smooth="yes"/>
      <point x="218.0" y="0.0"/>
      <point x="155.0" y="0.0" type="qcurve" smooth="yes"/>
    </contour>
    <contour>
      <point x="591.0" y="586.0" type="line"/>
      <point x="839.0" y="586.0" type="line"/>
      <point x="978.0" y="1186.0" type="line"/>
      <point x="943.0" y="1186.0" type="line"/>
      <point x="916.0" y="1114.0"/>
      <point x="869.0" y="1024.0"/>
      <point x="831.0" y="964.0" type="qcurve" smooth="yes"/>
    </contour>
  </outline>
</glyph>
<glyph name="Eth" format="2">
  <advance width="1452"/>
  <unicode hex="00D0"/>
  <outline>
    <contour>
      <point x="126.0" y="612.0" type="line" smooth="yes"/>
      <point x="51.0" y="612.0"/>
      <point x="66.0" y="677.0" type="qcurve" smooth="yes"/>
      <point x="94.0" y="795.0" type="line" smooth="yes"/>
      <point x="109.0" y="860.0"/>
      <point x="184.0" y="860.0" type="qcurve" smooth="yes"/>
      <point x="289.0" y="860.0" type="line"/>
      <point x="404.0" y="1359.0" type="line" smooth="yes"/>
      <point x="421.0" y="1434.0"/>
      <point x="491.0" y="1434.0" type="qcurve" smooth="yes"/>
      <point x="790.0" y="1434.0" type="line" smooth="yes"/>
      <point x="1148.0" y="1434.0"/>
      <point x="1460.0" y="1104.0"/>
      <point x="1460.0" y="831.0" type="qcurve" smooth="yes"/>
      <point x="1460.0" y="471.0"/>
      <point x="1006.0" y="0.0"/>
      <point x="539.0" y="0.0" type="qcurve" smooth="yes"/>
      <point x="160.0" y="0.0" type="line" smooth="yes"/>
      <point x="90.0" y="0.0"/>
      <point x="107.0" y="75.0" type="qcurve" smooth="yes"/>
      <point x="231.0" y="612.0" type="line"/>
    </contour>
    <contour>
      <point x="439.0" y="248.0" type="line"/>
      <point x="577.0" y="248.0" type="line" smooth="yes"/>
      <point x="878.0" y="248.0"/>
      <point x="1148.0" y="568.0"/>
      <point x="1148.0" y="852.0" type="qcurve" smooth="yes"/>
      <point x="1148.0" y="1005.0"/>
      <point x="1001.0" y="1188.0"/>
      <point x="734.0" y="1188.0" type="qcurve" smooth="yes"/>
      <point x="656.0" y="1188.0" type="line"/>
      <point x="580.0" y="860.0" type="line"/>
      <point x="820.0" y="860.0" type="line" smooth="yes"/>
      <point x="895.0" y="860.0"/>
      <point x="880.0" y="795.0" type="qcurve" smooth="yes"/>
      <point x="852.0" y="677.0" type="line" smooth="yes"/>
      <point x="837.0" y="612.0"/>
      <point x="762.0" y="612.0" type="qcurve" smooth="yes"/>
      <point x="523.0" y="612.0" type="line"/>
    </contour>
  </outline>
</glyph>
<glyph name="multiply" format="2">
  <advance width="1280"/>
  <unicode hex="00D7"/>
  <outline>
    <contour>
      <point x="242.20899963378906" y="389.32501220703125" type="line" smooth="yes"/>
      <point x="206.85400390625" y="424.6809997558594"/>
      <point x="249.27999877929688" y="467.10699462890625" type="qcurve" smooth="yes"/>
      <point x="540.6079711914062" y="758.4359741210938" type="line"/>
      <point x="249.27999877929688" y="1049.760009765625" type="line" smooth="yes"/>
      <point x="206.85400390625" y="1092.18994140625"/>
      <point x="242.20899963378906" y="1127.5400390625" type="qcurve" smooth="yes"/>
      <point x="303.02099609375" y="1188.3599853515625" type="line" smooth="yes"/>
      <point x="338.375" y="1223.7099609375"/>
      <point x="380.802001953125" y="1181.2900390625" type="qcurve" smooth="yes"/>
      <point x="672.1300048828125" y="889.9569702148438" type="line"/>
      <point x="963.4580078125" y="1181.2900390625" type="line" smooth="yes"/>
      <point x="1005.8800048828125" y="1223.7099609375"/>
      <point x="1041.239990234375" y="1188.3599853515625" type="qcurve" smooth="yes"/>
      <point x="1102.050048828125" y="1127.5400390625" type="line" smooth="yes"/>
      <point x="1137.4100341796875" y="1092.18994140625"/>
      <point x="1094.97998046875" y="1049.760009765625" type="qcurve" smooth="yes"/>
      <point x="803.6519775390625" y="758.4359741210938" type="line"/>
      <point x="1094.97998046875" y="467.10699462890625" type="line" smooth="yes"/>
      <point x="1137.4100341796875" y="424.6809997558594"/>
      <point x="1102.050048828125" y="389.32501220703125" type="qcurve" smooth="yes"/>
      <point x="1041.239990234375" y="328.5140075683594" type="line" smooth="yes"/>
      <point x="1005.8800048828125" y="293.1579895019531"/>
      <point x="963.4580078125" y="335.5849914550781" type="qcurve" smooth="yes"/>
      <point x="672.1300048828125" y="626.9130249023438" type="line"/>
      <point x="380.802001953125" y="335.5849914550781" type="line" smooth="yes"/>
      <point x="338.375" y="293.1579895019531"/>
      <point x="303.02099609375" y="328.5140075683594" type="qcurve" smooth="yes"/>
    </contour>
  </outline>
</glyph>
<glyph name="divide" format="2">
  <advance width="1280"/>
  <unicode hex="00F7"/>
  <outline>
    <contour>
      <point x="135.0" y="632.0" type="line" smooth="yes"/>
      <point x="75.0" y="632.0"/>
      <point x="75.0" y="682.0" type="qcurve" smooth="yes"/>
      <point x="75.0" y="768.0" type="line" smooth="yes"/>
      <point x="75.0" y="818.0"/>
      <point x="135.0" y="818.0" type="qcurve" smooth="yes"/>
      <point x="1145.0" y="818.0" type="line" smooth="yes"/>
      <point x="1205.0" y="818.0"/>
      <point x="1205.0" y="768.0" type="qcurve" smooth="yes"/>
      <point x="1205.0" y="682.0" type="line" smooth="yes"/>
      <point x="1205.0" y="632.0"/>
      <point x="1145.0" y="632.0" type="qcurve" smooth="yes"/>
    </contour>
    <contour>
      <point x="564.0" y="968.0" type="line" smooth="yes"/>
      <point x="494.0" y="968.0"/>
      <point x="494.0" y="1043.0" type="qcurve" smooth="yes"/>
      <point x="494.0" y="1177.0" type="line" smooth="yes"/>
      <point x="494.0" y="1252.0"/>
      <point x="564.0" y="1252.0" type="qcurve" smooth="yes"/>
      <point x="716.0" y="1252.0" type="line" smooth="yes"/>
      <point x="786.0" y="1252.0"/>
      <point x="786.0" y="1177.0" type="qcurve" smooth="yes"/>
      <point x="786.0" y="1043.0" type="line" smooth="yes"/>
      <point x="786.0" y="968.0"/>
      <point x="716.0" y="968.0" type="qcurve" smooth="yes"/>
    </contour>
    <contour>
      <point x="564.0" y="198.0" type="line" smooth="yes"/>
      <point x="494.0" y="198.0"/>
      <point x="494.0" y="273.0" type="qcurve" smooth="yes"/>
      <point x="494.0" y="407.0" type="line" smooth="yes"/>
      <point x="494.0" y="482.0"/>
      <point x="564.0" y="482.0" type="qcurve" smooth="yes"/>
      <point x="716.0" y="482.0" type="line" smooth="yes"/>
      <point x="786.0" y="482.0"/>
      <point x="786.0" y="407.0" type="qcurve" smooth="yes"/>
      <point x="786.0" y="273.0" type="line" smooth="yes"/>
      <point x="786.0" y="198.0"/>
      <point x="716.0" y="198.0" type="qcurve" smooth="yes"/>
    </contour>
  </outline>
</glyph>
<glyph name="oslash" format="2">
  <advance width="1206"/>
  <unicode hex="00F8"/>
  <outline>
    <contour>
      <point x="58.0" y="412.0" type="qcurve" smooth="yes"/>
      <point x="58.0" y="637.0"/>
      <point x="390.0" y="1070.0"/>
      <point x="690.0" y="1070.0" type="qcurve" smooth="yes"/>
      <point x="886.0" y="1070.0"/>
      <point x="991.0" y="997.0" type="qcurve"/>
      <point x="1036.0" y="1037.0" type="line" smooth="yes"/>
      <point x="1080.0" y="1076.0"/>
      <point x="1114.0" y="1038.0" type="qcurve" smooth="yes"/>
      <point x="1181.0" y="963.0" type="line" smooth="yes"/>
      <point x="1214.0" y="926.0"/>
      <point x="1168.0" y="886.0" type="qcurve" smooth="yes"/>
      <point x="1112.0" y="837.0" type="line"/>
      <point x="1150.0" y="747.0"/>
      <point x="1150.0" y="638.0" type="qcurve" smooth="yes"/>
      <point x="1150.0" y="413.0"/>
      <point x="818.0" y="-20.0"/>
      <point x="518.0" y="-20.0" type="qcurve" smooth="yes"/>
      <point x="322.0" y="-20.0"/>
      <point x="217.0" y="53.0" type="qcurve"/>
      <point x="172.0" y="13.0" type="line" smooth="yes"/>
      <point x="128.0" y="-26.0"/>
      <point x="94.0" y="12.0" type="qcurve" smooth="yes"/>
      <point x="27.0" y="87.0" type="line" smooth="yes"/>
      <point x="-6.0" y="124.0"/>
      <point x="40.0" y="164.0" type="qcurve" smooth="yes"/>
      <point x="96.0" y="213.0" type="line"/>
      <point x="58.0" y="304.0"/>
    </contour>
    <contour>
      <point x="350.0" y="447.0" type="qcurve" smooth="yes"/>
      <point x="350.0" y="441.0"/>
      <point x="350.0" y="436.0" type="qcurve"/>
      <point x="797.0" y="828.0" type="line"/>
      <point x="755.0" y="874.0"/>
      <point x="672.0" y="874.0" type="qcurve" smooth="yes"/>
      <point x="547.0" y="874.0"/>
      <point x="350.0" y="610.0"/>
    </contour>
    <contour>
      <point x="411.0" y="222.0" type="line"/>
      <point x="453.0" y="176.0"/>
      <point x="536.0" y="176.0" type="qcurve" smooth="yes"/>
      <point x="661.0" y="176.0"/>
      <point x="858.0" y="440.0"/>
      <point x="858.0" y="603.0" type="qcurve" smooth="yes"/>
      <point x="858.0" y="609.0"/>
      <point x="858.0" y="614.0" type="qcurve"/>
    </contour>
  </outline>
</glyph>
<glyph name="aogonek" format="2">
  <advance width="1178"/>
  <unicode hex="0105"/>
  <outline>
    <contour>
      <point x="62.0" y="379.0" type="qcurve" smooth="yes"/>
      <point x="62.0" y="660.0"/>
      <point x="427.0" y="1070.0"/>
      <point x="652.0" y="1070.0" type="qcurve" smooth="yes"/>
      <point x="697.0" y="1070.0"/>
      <point x="815.0" y="1024.0"/>
      <point x="863.0" y="954.0" type="qcurve"/>
      <point x="867.0" y="954.0" type="line"/>
      <point x="884.0" y="990.0" type="line" smooth="yes"/>
      <point x="912.0" y="1050.0"/>
      <point x="951.0" y="1050.0" type="qcurve" smooth="yes"/>
      <point x="1104.0" y="1050.0" type="line" smooth="yes"/>
      <point x="1165.0" y="1050.0"/>
      <point x="1151.0" y="990.0" type="qcurve" smooth="yes"/>
      <point x="936.0" y="60.0" type="line" smooth="yes"/>
      <point x="926.0" y="15.0"/>
      <point x="882.0" y="-11.0" type="qcurve" smooth="yes"/>
      <point x="771.0" y="-80.0"/>
      <point x="656.0" y="-160.0"/>
      <point x="656.0" y="-189.0" type="qcurve" smooth="yes"/>
      <point x="656.0" y="-210.0"/>
      <point x="690.0" y="-224.0"/>
      <point x="717.0" y="-224.0" type="qcurve" smooth="yes"/>
      <point x="761.0" y="-224.0"/>
      <point x="802.0" y="-219.0" type="qcurve" smooth="yes"/>
      <point x="841.0" y="-214.0"/>
      <point x="842.0" y="-253.0" type="qcurve" smooth="yes"/>
      <point x="845.0" y="-368.0" type="line" smooth="yes"/>
      <point x="846.0" y="-406.0"/>
      <point x="811.0" y="-411.0" type="qcurve" smooth="yes"/>
      <point x="742.0" y="-420.0"/>
      <point x="664.0" y="-420.0" type="qcurve" smooth="yes"/>
      <point x="540.0" y="-420.0"/>
      <point x="420.0" y="-333.0"/>
      <point x="420.0" y="-266.0" type="qcurve" smooth="yes"/>
      <point x="420.0" y="-230.0"/>
      <point x="438.0" y="-161.0"/>
      <point x="538.0" y="-60.0"/>
      <point x="620.0" y="-7.0" type="qcurve"/>
      <point x="655.0" y="11.0"/>
      <point x="664.0" y="60.0" type="qcurve" smooth="yes"/>
      <point x="678.0" y="138.0" type="line"/>
      <point x="674.0" y="138.0" type="line"/>
      <point x="615.0" y="66.0"/>
      <point x="483.0" y="-20.0"/>
      <point x="398.0" y="-20.0" type="qcurve" smooth="yes"/>
      <point x="239.0" y="-20.0"/>
      <point x="62.0" y="222.0"/>
    </contour>
    <contour>
      <point x="358.0" y="360.0" type="qcurve" smooth="yes"/>
      <point x="358.0" y="274.0"/>
      <point x="435.0" y="176.0"/>
      <point x="483.0" y="176.0" type="qcurve" smooth="yes"/>
      <point x="569.0" y="176.0"/>
      <point x="722.0" y="349.0"/>
      <point x="763.0" y="522.0" type="qcurve" smooth="yes"/>
      <point x="800.0" y="680.0" type="line"/>
      <point x="800.0" y="771.0"/>
      <point x="734.0" y="874.0"/>
      <point x="648.0" y="874.0" type="qcurve" smooth="yes"/>
      <point x="524.0" y="874.0"/>
      <point x="358.0" y="558.0"/>
    </contour>
  </outline>
</glyph>
<glyph name="Eogonek" format="2">
  <advance width="1280"/>
  <unicode hex="0118"/>
  <outline>
    <contour>
      <point x="110.0" y="0.0" type="line" smooth="yes"/>
      <point x="40.0" y="0.0"/>
      <point x="57.0" y="75.0" type="qcurve" smooth="yes"/>
      <point x="354.0" y="1359.0" type="line" smooth="yes"/>
      <point x="371.0" y="1434.0"/>
      <point x="441.0" y="1434.0" type="qcurve" smooth="yes"/>
      <point x="1299.0" y="1434.0" type="line" smooth="yes"/>
      <point x="1374.0" y="1434.0"/>
      <point x="1359.0" y="1369.0" type="qcurve" smooth="yes"/>
      <point x="1332.0" y="1251.0" type="line" smooth="yes"/>
      <point x="1317.0" y="1186.0"/>
      <point x="1242.0" y="1186.0" type="qcurve" smooth="yes"/>
      <point x="606.0" y="1186.0" type="line"/>
      <point x="532.0" y="868.0" type="line"/>
      <point x="1115.0" y="868.0" type="line" smooth="yes"/>
      <point x="1190.0" y="868.0"/>
      <point x="1175.0" y="803.0" type="qcurve" smooth="yes"/>
      <point x="1148.0" y="685.0" type="line" smooth="yes"/>
      <point x="1133.0" y="620.0"/>
      <point x="1058.0" y="620.0" type="qcurve" smooth="yes"/>
      <point x="475.0" y="620.0" type="line"/>
      <point x="389.0" y="248.0" type="line"/>
      <point x="1057.0" y="248.0" type="line" smooth="yes"/>
      <point x="1132.0" y="248.0"/>
      <point x="1117.0" y="183.0" type="qcurve" smooth="yes"/>
      <point x="1090.0" y="65.0" type="line" smooth="yes"/>
      <point x="1075.0" y="0.0"/>
      <point x="1000.0" y="0.0" type="qcurve" smooth="yes"/>
      <point x="990.0" y="0.0" type="line"/>
      <point x="876.0" y="-70.0"/>
      <point x="744.0" y="-160.0"/>
      <point x="744.0" y="-189.0" type="qcurve" smooth="yes"/>
      <point x="744.0" y="-210.0"/>
      <point x="778.0" y="-224.0"/>
      <point x="805.0" y="-224.0" type="qcurve" smooth="yes"/>
      <point x="849.0" y="-224.0"/>
      <point x="890.0" y="-219.0" type="qcurve" smooth="yes"/>
      <point x="929.0" y="-214.0"/>
      <point x="930.0" y="-253.0" type="qcurve" smooth="yes"/>
      <point x="933.0" y="-368.0" type="line" smooth="yes"/>
      <point x="934.0" y="-406.0"/>
      <point x="899.0" y="-411.0" type="qcurve" smooth="yes"/>
      <point x="830.0" y="-420.0"/>
      <point x="752.0" y="-420.0" type="qcurve" smooth="yes"/>
      <point x="628.0" y="-420.0"/>
      <point x="508.0" y="-333.0"/>
      <point x="508.0" y="-266.0" type="qcurve" smooth="yes"/>
      <point x="508.0" y="-230.0"/>
      <point x="526.0" y="-161.0"/>
      <point x="626.0" y="-60.0"/>
      <point x="708.0" y="-7.0" type="qcurve"/>
      <point x="708.0" y="4.0" type="line"/>
      <point x="647.0" y="0.0"/>
      <point x="587.0" y="0.0" type="qcurve" smooth="yes"/>
    </contour>
  </outline>
</glyph>
<glyph name="eogonek" format="2">
  <advance width="1150"/>
  <unicode hex="0119"/>
  <outline>
    <contour>
      <point x="58.0" y="415.0" type="qcurve" smooth="yes"/>
      <point x="58.0" y="646.0"/>
      <point x="388.0" y="1070.0"/>
      <point x="679.0" y="1070.0" type="qcurve" smooth="yes"/>
      <point x="880.0" y="1070.0"/>
      <point x="1104.0" y="890.0"/>
      <point x="1104.0" y="774.0" type="qcurve" smooth="yes"/>
      <point x="1104.0" y="582.0"/>
      <point x="817.0" y="461.0"/>
      <point x="566.0" y="418.0" type="qcurve" smooth="yes"/>
      <point x="357.0" y="382.0" type="line"/>
      <point x="356.0" y="369.0"/>
      <point x="356.0" y="354.0" type="qcurve" smooth="yes"/>
      <point x="356.0" y="290.0"/>
      <point x="426.0" y="176.0"/>
      <point x="552.0" y="176.0" type="qcurve" smooth="yes"/>
      <point x="624.0" y="176.0"/>
      <point x="774.0" y="231.0"/>
      <point x="819.0" y="265.0" type="qcurve" smooth="yes"/>
      <point x="871.0" y="304.0"/>
      <point x="900.0" y="265.0" type="qcurve" smooth="yes"/>
      <point x="959.0" y="187.0" type="line" smooth="yes"/>
      <point x="995.0" y="139.0"/>
      <point x="951.0" y="99.0" type="qcurve" smooth="yes"/>
      <point x="919.0" y="70.0"/>
      <point x="855.0" y="26.0"/>
      <point x="793.0" y="-16.0" type="qcurve" smooth="yes"/>
      <point x="731.0" y="-58.0"/>
      <point x="613.0" y="-160.0"/>
      <point x="613.0" y="-189.0" type="qcurve" smooth="yes"/>
      <point x="613.0" y="-210.0"/>
      <point x="647.0" y="-224.0"/>
      <point x="674.0" y="-224.0" type="qcurve" smooth="yes"/>
      <point x="718.0" y="-224.0"/>
      <point x="759.0" y="-219.0" type="qcurve" smooth="yes"/>
      <point x="798.0" y="-214.0"/>
      <point x="799.0" y="-253.0" type="qcurve" smooth="yes"/>
      <point x="802.0" y="-368.0" type="line" smooth="yes"/>
      <point x="803.0" y="-406.0"/>
      <point x="768.0" y="-411.0" type="qcurve" smooth="yes"/>
      <point x="699.0" y="-420.0"/>
      <point x="621.0" y="-420.0" type="qcurve" smooth="yes"/>
      <point x="497.0" y="-420.0"/>
      <point x="377.0" y="-333.0"/>
      <point x="377.0" y="-266.0" type="qcurve" smooth="yes"/>
      <point x="377.0" y="-230.0"/>
      <point x="395.0" y="-161.0"/>
      <point x="502.0" y="-75.0"/>
      <point x="584.0" y="-22.0" type="qcurve"/>
      <point x="584.0" y="-15.0" type="line"/>
      <point x="562.0" y="-20.0"/>
      <point x="534.0" y="-20.0" type="qcurve" smooth="yes"/>
      <point x="258.0" y="-20.0"/>
      <point x="58.0" y="234.0"/>
    </contour>
    <contour>
      <point x="370.0" y="570.0" type="qcurve"/>
      <point x="589.0" y="606.0" type="line" smooth="yes"/>
      <point x="694.0" y="623.0"/>
      <point x="867.0" y="690.0"/>
      <point x="867.0" y="751.0" type="qcurve" smooth="yes"/>
      <point x="867.0" y="806.0"/>
      <point x="762.0" y="874.0"/>
      <point x="682.0" y="874.0" type="qcurve" smooth="yes"/>
      <point x="555.0" y="874.0"/>
      <point x="404.0" y="698.0"/>
    </contour>
  </outline>
</glyph>
<glyph name="hbar" format="2">
  <advance width="1233"/>
  <unicode hex="0127"/>
  <outline>
    <contour>
      <point x="229.0" y="1180.0" type="line" smooth="yes"/>
      <point x="169.0" y="1180.0"/>
      <point x="181.0" y="1230.0" type="qcurve" smooth="yes"/>
      <point x="204.0" y="1330.0" type="line" smooth="yes"/>
      <point x="216.0" y="1380.0"/>
      <point x="276.0" y="1380.0" type="qcurve" smooth="yes"/>
      <point x="367.0" y="1380.0" type="line"/>
      <point x="375.0" y="1416.0" type="line" smooth="yes"/>
      <point x="389.0" y="1476.0"/>
      <point x="449.0" y="1476.0" type="qcurve" smooth="yes"/>
      <point x="609.0" y="1476.0" type="line" smooth="yes"/>
      <point x="669.0" y="1476.0"/>
      <point x="655.0" y="1416.0" type="qcurve" smooth="yes"/>
      <point x="647.0" y="1380.0" type="line"/>
      <point x="990.0" y="1380.0" type="line" smooth="yes"/>
      <point x="1050.0" y="1380.0"/>
      <point x="1038.0" y="1330.0" type="qcurve" smooth="yes"/>
      <point x="1015.0" y="1230.0" type="line" smooth="yes"/>
      <point x="1003.0" y="1180.0"/>
      <point x="943.0" y="1180.0" type="qcurve" smooth="yes"/>
      <point x="600.0" y="1180.0" type="line"/>
      <point x="559.0" y="992.0" type="line" smooth="yes"/>
      <point x="550.0" y="951.0"/>
      <point x="536.0" y="912.0" type="qcurve"/>
      <point x="541.0" y="912.0" type="line"/>
      <point x="621.0" y="1006.0"/>
      <point x="766.0" y="1070.0"/>
      <point x="866.0" y="1070.0" type="qcurve" smooth="yes"/>
      <point x="1011.0" y="1070.0"/>
      <point x="1177.0" y="856.0"/>
      <point x="1121.0" y="614.0" type="qcurve" smooth="yes"/>
      <point x="992.0" y="60.0" type="line" smooth="yes"/>
      <point x="978.0" y="0.0"/>
      <point x="918.0" y="0.0" type="qcurve" smooth="yes"/>
      <point x="758.0" y="0.0" type="line" smooth="yes"/>
      <point x="698.0" y="0.0"/>
      <point x="712.0" y="60.0" type="qcurve" smooth="yes"/>
      <point x="824.0" y="542.0" type="line" smooth="yes"/>
      <point x="873.0" y="754.0"/>
      <point x="825.0" y="874.0"/>
      <point x="742.0" y="874.0" type="qcurve" smooth="yes"/>
      <point x="637.0" y="874.0"/>
      <point x="475.0" y="640.0"/>
      <point x="426.0" y="424.0" type="qcurve" smooth="yes"/>
      <point x="342.0" y="60.0" type="line" smooth="yes"/>
      <point x="328.0" y="0.0"/>
      <point x="268.0" y="0.0" type="qcurve" smooth="yes"/>
      <point x="108.0" y="0.0" type="line" smooth="yes"/>
      <point x="48.0" y="0.0"/>
      <point x="62.0" y="60.0" type="qcurve" smooth="yes"/>
      <point x="320.0" y="1180.0" type="line"/>
    </contour>
  </outline>
</glyph>
<glyph name="Eng" format="2">
  <advance width="1442"/>
  <unicode hex="014A"/>
  <outline>
    <contour>
      <point x="110.0" y="0.0" type="line" smooth="yes"/>
      <point x="40.0" y="0.0"/>
      <point x="57.0" y="75.0" type="qcurve" smooth="yes"/>
      <point x="354.0" y="1359.0" type="line" smooth="yes"/>
      <point x="371.0" y="1434.0"/>
      <point x="441.0" y="1434.0" type="qcurve" smooth="yes"/>
      <point x="575.0" y="1434.0" type="line" smooth="yes"/>
      <point x="641.0" y="1434.0"/>
      <point x="628.0" y="1359.0" type="qcurve" smooth="yes"/>
      <point x="599.0" y="1187.0" type="line"/>
      <point x="606.0" y="1187.0" type="line"/>
      <point x="690.0" y="1306.0"/>
      <point x="904.0" y="1468.0"/>
      <point x="1074.0" y="1468.0" type="qcurve" smooth="yes"/>
      <point x="1239.0" y="1468.0"/>
      <point x="1434.0" y="1176.0"/>
      <point x="1382.0" y="952.0" type="qcurve" smooth="yes"/>
      <point x="1170.0" y="35.0" type="line" smooth="yes"/>
      <point x="1115.0" y="-202.0"/>
      <point x="875.0" y="-420.0"/>
      <point x="685.0" y="-420.0" type="qcurve" smooth="yes"/>
      <point x="582.0" y="-420.0"/>
      <point x="501.0" y="-389.0" type="qcurve" smooth="yes"/>
      <point x="461.0" y="-374.0"/>
      <point x="479.0" y="-320.0" type="qcurve" smooth="yes"/>
      <point x="518.0" y="-206.0" type="line" smooth="yes"/>
      <point x="538.0" y="-146.0"/>
      <point x="590.0" y="-167.0" type="qcurve" smooth="yes"/>
      <point x="634.0" y="-184.0"/>
      <point x="681.0" y="-184.0" type="qcurve" smooth="yes"/>
      <point x="758.0" y="-184.0"/>
      <point x="854.0" y="-69.0"/>
      <point x="891.0" y="91.0" type="qcurve" smooth="yes"/>
      <point x="1069.0" y="864.0" type="line" smooth="yes"/>
      <point x="1106.0" y="1024.0"/>
      <point x="1052.0" y="1232.0"/>
      <point x="916.0" y="1232.0" type="qcurve" smooth="yes"/>
      <point x="806.0" y="1232.0"/>
      <point x="535.0" y="877.0"/>
      <point x="463.0" y="567.0" type="qcurve" smooth="yes"/>
      <point x="349.0" y="75.0" type="line" smooth="yes"/>
      <point x="332.0" y="0.0"/>
      <point x="262.0" y="0.0" type="qcurve" smooth="yes"/>
    </contour>
  </outline>
</glyph>
<glyph name="longs" format="2">
  <advance width="652"/>
  <unicode hex="017F"/>
  <outline>
    <contour>
      <point x="-16.0" y="-400.0" type="line" smooth="yes"/>
      <point x="-76.0" y="-400.0"/>
      <point x="-62.0" y="-340.0" type="qcurve" smooth="yes"/>
      <point x="291.0" y="1190.0" type="line" smooth="yes"/>
      <point x="329.0" y="1353.0"/>
      <point x="538.0" y="1496.0"/>
      <point x="708.0" y="1496.0" type="qcurve" smooth="yes"/>
      <point x="762.0" y="1496.0"/>
      <point x="856.0" y="1473.0"/>
      <point x="894.0" y="1458.0" type="qcurve" smooth="yes"/>
      <point x="929.0" y="1444.0"/>
      <point x="913.0" y="1405.0" type="qcurve" smooth="yes"/>
      <point x="868.0" y="1297.0" type="line" smooth="yes"/>
      <point x="858.0" y="1272.0"/>
      <point x="819.0" y="1284.0" type="qcurve" smooth="yes"/>
      <point x="790.0" y="1293.0"/>
      <point x="722.0" y="1300.0"/>
      <point x="700.0" y="1300.0" type="qcurve" smooth="yes"/>
      <point x="628.0" y="1300.0"/>
      <point x="570.0" y="1185.0"/>
      <point x="548.0" y="1090.0" type="qcurve" smooth="yes"/>
      <point x="218.0" y="-340.0" type="line" smooth="yes"/>
      <point x="204.0" y="-400.0"/>
      <point x="144.0" y="-400.0" type="qcurve" smooth="yes"/>
    </contour>
  </outline>
</glyph>
<glyph name="uni0190" format="2">
  <advance width="1254"/>
  <unicode hex="0190"/>
  <outline>
    <contour>
      <point x="78.0" y="315.0" type="qcurve" smooth="yes"/>
      <point x="78.0" y="490.0"/>
      <point x="290.0" y="724.0"/>
      <point x="472.0" y="764.0" type="qcurve"/>
      <point x="472.0" y="768.0" type="line"/>
      <point x="404.0" y="786.0"/>
      <point x="272.0" y="906.0"/>
      <point x="272.0" y="1006.0" type="qcurve" smooth="yes"/>
      <point x="272.0" y="1188.0"/>
      <point x="585.0" y="1468.0"/>
      <point x="789.0" y="1468.0" type="qcurve" smooth="yes"/>
      <point x="917.0" y="1468.0"/>
      <point x="1128.0" y="1406.0"/>
      <point x="1225.0" y="1311.0" type="qcurve" smooth="yes"/>
      <point x="1279.0" y="1258.0"/>
      <point x="1227.0" y="1210.0" type="qcurve" smooth="yes"/>
      <point x="1140.0" y="1128.0" type="line" smooth="yes"/>
      <point x="1099.0" y="1090.0"/>
      <point x="1030.0" y="1148.0" type="qcurve" smooth="yes"/>
      <point x="975.0" y="1194.0"/>
      <point x="860.0" y="1232.0"/>
      <point x="768.0" y="1232.0" type="qcurve" smooth="yes"/>
      <point x="676.0" y="1232.0"/>
      <point x="553.0" y="1096.0"/>
      <point x="553.0" y="1013.0" type="qcurve" smooth="yes"/>
      <point x="553.0" y="970.0"/>
      <point x="618.0" y="872.0"/>
      <point x="724.0" y="872.0" type="qcurve" smooth="yes"/>
      <point x="859.0" y="872.0" type="line" smooth="yes"/>
      <point x="923.0" y="872.0"/>
      <point x="908.0" y="807.0" type="qcurve" smooth="yes"/>
      <point x="883.0" y="699.0" type="line" smooth="yes"/>
      <point x="868.0" y="636.0"/>
      <point x="805.0" y="636.0" type="qcurve" smooth="yes"/>
      <point x="684.0" y="636.0" type="line" smooth="yes"/>
      <point x="579.0" y="636.0"/>
      <point x="380.0" y="479.0"/>
      <point x="380.0" y="362.0" type="qcurve" smooth="yes"/>
      <point x="380.0" y="247.0"/>
      <point x="554.0" y="202.0"/>
      <point x="618.0" y="202.0" type="qcurve" smooth="yes"/>
      <point x="715.0" y="202.0"/>
      <point x="848.0" y="278.0"/>
      <point x="913.0" y="322.0" type="qcurve" smooth="yes"/>
      <point x="989.0" y="373.0"/>
      <point x="1024.0" y="327.0" type="qcurve" smooth="yes"/>
      <point x="1100.0" y="226.0" type="line" smooth="yes"/>
      <point x="1140.0" y="173.0"/>
      <point x="1080.0" y="128.0" type="qcurve" smooth="yes"/>
      <point x="988.0" y="58.0"/>
      <point x="746.0" y="-34.0"/>
      <point x="592.0" y="-34.0" type="qcurve" smooth="yes"/>
      <point x="332.0" y="-34.0"/>
      <point x="78.0" y="166.0"/>
    </contour>
  </outline>
</glyph>
<glyph name="florin" format="2">
  <advance width="682"/>
  <unicode hex="0192"/>
  <outline>
    <contour>
      <point x="-275.0" y="-405.0" type="qcurve" smooth="yes"/>
      <point x="-312.0" y="-394.0"/>
      <point x="-296.0" y="-349.0" type="qcurve" smooth="yes"/>
      <point x="-259.0" y="-243.0" type="line" smooth="yes"/>
      <point x="-247.0" y="-208.0"/>
      <point x="-205.0" y="-215.0" type="qcurve" smooth="yes"/>
      <point x="-156.0" y="-224.0"/>
      <point x="-138.0" y="-224.0" type="qcurve" smooth="yes"/>
      <point x="-65.0" y="-224.0"/>
      <point x="15.0" y="-94.0"/>
      <point x="43.0" y="26.0" type="qcurve" smooth="yes"/>
      <point x="233.0" y="850.0" type="line"/>
      <point x="177.0" y="850.0" type="line" smooth="yes"/>
      <point x="119.0" y="850.0"/>
      <point x="130.0" y="900.0" type="qcurve" smooth="yes"/>
      <point x="153.0" y="1000.0" type="line" smooth="yes"/>
      <point x="165.0" y="1050.0"/>
      <point x="223.0" y="1050.0" type="qcurve" smooth="yes"/>
      <point x="279.0" y="1050.0" type="line"/>
      <point x="312.0" y="1190.0" type="line" smooth="yes"/>
      <point x="350.0" y="1353.0"/>
      <point x="552.0" y="1496.0"/>
      <point x="732.0" y="1496.0" type="qcurve" smooth="yes"/>
      <point x="791.0" y="1496.0"/>
      <point x="883.0" y="1473.0"/>
      <point x="921.0" y="1458.0" type="qcurve" smooth="yes"/>
      <point x="956.0" y="1444.0"/>
      <point x="940.0" y="1405.0" type="qcurve" smooth="yes"/>
      <point x="895.0" y="1297.0" type="line" smooth="yes"/>
      <point x="885.0" y="1272.0"/>
      <point x="846.0" y="1284.0" type="qcurve" smooth="yes"/>
      <point x="817.0" y="1293.0"/>
      <point x="747.0" y="1300.0"/>
      <point x="724.0" y="1300.0" type="qcurve" smooth="yes"/>
      <point x="640.0" y="1300.0"/>
      <point x="593.0" y="1184.0"/>
      <point x="569.0" y="1090.0" type="qcurve" smooth="yes"/>
      <point x="559.0" y="1050.0" type="line"/>
      <point x="691.0" y="1050.0" type="line" smooth="yes"/>
      <point x="751.0" y="1050.0"/>
      <point x="739.0" y="1000.0" type="qcurve" smooth="yes"/>
      <point x="716.0" y="900.0" type="line" smooth="yes"/>
      <point x="704.0" y="850.0"/>
      <point x="645.0" y="850.0" type="qcurve" smooth="yes"/>
      <point x="513.0" y="850.0" type="line"/>
      <point x="316.0" y="-4.0" type="line" smooth="yes"/>
      <point x="259.0" y="-252.0"/>
      <point x="37.0" y="-420.0"/>
      <point x="-134.0" y="-420.0" type="qcurve" smooth="yes"/>
      <point x="-224.0" y="-420.0"/>
    </contour>
  </outline>
</glyph>
<glyph name="uni0194" format="2">
  <advance width="1348"/>
  <unicode hex="0194"/>
  <outline>
    <contour>
      <point x="240.0" y="1356.0" type="line" smooth="yes"/>
      <point x="215.0" y="1434.0"/>
      <point x="309.0" y="1434.0" type="qcurve" smooth="yes"/>
      <point x="464.0" y="1434.0" type="line" smooth="yes"/>
      <point x="520.0" y="1434.0"/>
      <point x="540.0" y="1365.0" type="qcurve" smooth="yes"/>
      <point x="653.0" y="974.0" type="line" smooth="yes"/>
      <point x="667.0" y="924.0"/>
      <point x="704.0" y="802.0"/>
      <point x="704.0" y="728.0" type="qcurve"/>
      <point x="708.0" y="728.0" type="line"/>
      <point x="732.0" y="802.0"/>
      <point x="831.0" y="929.0"/>
      <point x="865.0" y="974.0" type="qcurve" smooth="yes"/>
      <point x="1158.0" y="1365.0" type="line" smooth="yes"/>
      <point x="1210.0" y="1434.0"/>
      <point x="1266.0" y="1434.0" type="qcurve" smooth="yes"/>
      <point x="1461.0" y="1434.0" type="line" smooth="yes"/>
      <point x="1555.0" y="1434.0"/>
      <point x="1488.0" y="1348.0" type="qcurve" smooth="yes"/>
      <point x="845.0" y="528.0" type="line"/>
      <point x="896.0" y="466.0"/>
      <point x="962.0" y="342.0"/>
      <point x="962.0" y="272.0" type="qcurve" smooth="yes"/>
      <point x="962.0" y="165.0"/>
      <point x="764.0" y="-34.0"/>
      <point x="564.0" y="-34.0" type="qcurve" smooth="yes"/>
      <point x="408.0" y="-34.0"/>
      <point x="264.0" y="100.0"/>
      <point x="264.0" y="204.0" type="qcurve" smooth="yes"/>
      <point x="264.0" y="304.0"/>
      <point x="408.0" y="484.0"/>
      <point x="503.0" y="542.0" type="qcurve"/>
    </contour>
    <contour>
      <point x="538.0" y="254.0" type="qcurve" smooth="yes"/>
      <point x="538.0" y="220.0"/>
      <point x="570.0" y="196.0"/>
      <point x="594.0" y="196.0" type="qcurve" smooth="yes"/>
      <point x="632.0" y="196.0"/>
      <point x="688.0" y="253.0"/>
      <point x="688.0" y="292.0" type="qcurve" smooth="yes"/>
      <point x="688.0" y="304.0"/>
      <point x="676.0" y="357.0"/>
      <point x="647.0" y="394.0" type="qcurve"/>
      <point x="643.0" y="394.0" type="line"/>
      <point x="590.0" y="357.0"/>
      <point x="538.0" y="273.0"/>
    </contour>
  </outline>
</glyph>
<glyph name="uni0196" format="2">
  <advance width="938"/>
  <unicode hex="0196"/>
  <outline>
    <contour>
      <point x="160.0" y="518.0" type="qcurve" smooth="yes"/>
      <point x="354.0" y="1359.0" type="line" smooth="yes"/>
      <point x="371.0" y="1434.0"/>
      <point x="441.0" y="1434.0" type="qcurve" smooth="yes"/>
      <point x="593.0" y="1434.0" type="line" smooth="yes"/>
      <point x="663.0" y="1434.0"/>
      <point x="646.0" y="1359.0" type="qcurve" smooth="yes"/>
      <point x="436.0" y="448.0" type="line" smooth="yes"/>
      <point x="407.0" y="324.0"/>
      <point x="460.0" y="202.0"/>
      <point x="538.0" y="202.0" type="qcurve" smooth="yes"/>
      <point x="578.0" y="202.0"/>
      <point x="648.0" y="220.0"/>
      <point x="685.0" y="234.0" type="qcurve" smooth="yes"/>
      <point x="752.0" y="259.0"/>
      <point x="766.0" y="208.0" type="qcurve" smooth="yes"/>
      <point x="797.0" y="97.0" type="line" smooth="yes"/>
      <point x="811.0" y="48.0"/>
      <point x="763.0" y="26.0" type="qcurve" smooth="yes"/>
      <point x="694.0" y="-6.0"/>
      <point x="558.0" y="-34.0"/>
      <point x="484.0" y="-34.0" type="qcurve" smooth="yes"/>
      <point x="272.0" y="-34.0"/>
      <point x="102.0" y="268.0"/>
    </contour>
  </outline>
</glyph>
<glyph name="uni0237" format="2">
  <advance width="562"/>
  <unicode hex="0237"/>
  <outline>
    <contour>
      <point x="-286.0" y="-405.0" type="qcurve" smooth="yes"/>
      <point x="-323.0" y="-394.0"/>
      <point x="-307.0" y="-349.0" type="qcurve" smooth="yes"/>
      <point x="-270.0" y="-243.0" type="line" smooth="yes"/>
      <point x="-258.0" y="-208.0"/>
      <point x="-216.0" y="-215.0" type="qcurve" smooth="yes"/>
      <point x="-167.0" y="-224.0"/>
      <point x="-149.0" y="-224.0" type="qcurve" smooth="yes"/>
      <point x="-76.0" y="-224.0"/>
      <point x="4.0" y="-94.0"/>
      <point x="32.0" y="26.0" type="qcurve" smooth="yes"/>
      <point x="255.0" y="990.0" type="line" smooth="yes"/>
      <point x="269.0" y="1050.0"/>
      <point x="328.0" y="1050.0" type="qcurve" smooth="yes"/>
      <point x="488.0" y="1050.0" type="line" smooth="yes"/>
      <point x="549.0" y="1050.0"/>
      <point x="535.0" y="990.0" type="qcurve" smooth="yes"/>
      <point x="305.0" y="-4.0" type="line" smooth="yes"/>
      <point x="248.0" y="-252.0"/>
      <point x="26.0" y="-420.0"/>
      <point x="-145.0" y="-420.0" type="qcurve" smooth="yes"/>
      <point x="-235.0" y="-420.0"/>
    </contour>
  </outline>
</glyph>
<glyph name="uni025B" format="2">
  <advance width="988"/>
  <unicode hex="025B"/>
  <outline>
    <contour>
      <point x="45.0" y="242.0" type="qcurve" smooth="yes"/>
      <point x="45.0" y="372.0"/>
      <point x="208.0" y="520.0"/>
      <point x="326.0" y="558.0" type="qcurve"/>
      <point x="326.0" y="561.0" type="line"/>
      <point x="270.0" y="580.0"/>
      <point x="183.0" y="666.0"/>
      <point x="183.0" y="741.0" type="qcurve" smooth="yes"/>
      <point x="183.0" y="878.0"/>
      <point x="460.0" y="1070.0"/>
      <point x="613.0" y="1070.0" type="qcurve" smooth="yes"/>
      <point x="690.0" y="1070.0"/>
      <point x="893.0" y="1031.0"/>
      <point x="957.0" y="970.0" type="qcurve" smooth="yes"/>
      <point x="992.0" y="935.0"/>
      <point x="960.0" y="900.0" type="qcurve" smooth="yes"/>
      <point x="895.0" y="829.0" type="line" smooth="yes"/>
      <point x="861.0" y="792.0"/>
      <point x="814.0" y="829.0" type="qcurve" smooth="yes"/>
      <point x="772.0" y="862.0"/>
      <point x="678.0" y="874.0"/>
      <point x="613.0" y="874.0" type="qcurve" smooth="yes"/>
      <point x="547.0" y="874.0"/>
      <point x="453.0" y="795.0"/>
      <point x="453.0" y="738.0" type="qcurve" smooth="yes"/>
      <point x="453.0" y="698.0"/>
      <point x="514.0" y="648.0"/>
      <point x="570.0" y="648.0" type="qcurve" smooth="yes"/>
      <point x="673.0" y="648.0" type="line" smooth="yes"/>
      <point x="725.0" y="648.0"/>
      <point x="713.0" y="598.0" type="qcurve" smooth="yes"/>
      <point x="690.0" y="498.0" type="line" smooth="yes"/>
      <point x="678.0" y="448.0"/>
      <point x="626.0" y="448.0" type="qcurve" smooth="yes"/>
      <point x="542.0" y="448.0" type="line" smooth="yes"/>
      <point x="420.0" y="448.0"/>
      <point x="333.0" y="354.0"/>
      <point x="333.0" y="294.0" type="qcurve" smooth="yes"/>
      <point x="333.0" y="256.0"/>
      <point x="398.0" y="176.0"/>
      <point x="480.0" y="176.0" type="qcurve" smooth="yes"/>
      <point x="524.0" y="176.0"/>
      <point x="672.0" y="216.0"/>
      <point x="724.0" y="245.0" type="qcurve" smooth="yes"/>
      <point x="777.0" y="274.0"/>
      <point x="800.0" y="226.0" type="qcurve" smooth="yes"/>
      <point x="838.0" y="147.0" type="line" smooth="yes"/>
      <point x="865.0" y="91.0"/>
      <point x="823.0" y="70.0" type="qcurve" smooth="yes"/>
      <point x="762.0" y="40.0"/>
      <point x="580.0" y="-20.0"/>
      <point x="470.0" y="-20.0" type="qcurve" smooth="yes"/>
      <point x="276.0" y="-20.0"/>
      <point x="45.0" y="120.0"/>
    </contour>
  </outline>
</glyph>
<glyph name="uni0263" format="2">
  <advance width="1030"/>
  <unicode hex="0263"/>
  <outline>
    <contour>
      <point x="286.0" y="-148.0" type="qcurve" smooth="yes"/>
      <point x="286.0" y="-187.0"/>
      <point x="314.0" y="-224.0"/>
      <point x="344.0" y="-224.0" type="qcurve" smooth="yes"/>
      <point x="386.0" y="-224.0"/>
      <point x="432.0" y="-144.0"/>
      <point x="432.0" y="-101.0" type="qcurve" smooth="yes"/>
      <point x="432.0" y="-68.0"/>
      <point x="422.0" y="-22.0"/>
      <point x="401.0" y="20.0" type="qcurve"/>
      <point x="397.0" y="20.0" type="line"/>
      <point x="354.0" y="-18.0"/>
      <point x="286.0" y="-112.0"/>
    </contour>
    <contour>
      <point x="146.0" y="972.0" type="line" smooth="yes"/>
      <point x="136.0" y="1050.0"/>
      <point x="197.0" y="1050.0" type="qcurve" smooth="yes"/>
      <point x="358.0" y="1050.0" type="line" smooth="yes"/>
      <point x="403.0" y="1050.0"/>
      <point x="407.0" y="999.0" type="qcurve" smooth="yes"/>
      <point x="450.0" y="473.0" type="line" smooth="yes"/>
      <point x="452.0" y="448.0"/>
      <point x="454.0" y="368.0"/>
      <point x="448.0" y="318.0" type="qcurve"/>
      <point x="454.0" y="318.0" type="line"/>
      <point x="467.0" y="361.0"/>
      <point x="508.0" y="452.0"/>
      <point x="520.0" y="473.0" type="qcurve" smooth="yes"/>
      <point x="807.0" y="999.0" type="line" smooth="yes"/>
      <point x="835.0" y="1050.0"/>
      <point x="878.0" y="1050.0" type="qcurve" smooth="yes"/>
      <point x="1075.0" y="1050.0" type="line" smooth="yes"/>
      <point x="1136.0" y="1050.0"/>
      <point x="1090.0" y="972.0" type="qcurve" smooth="yes"/>
      <point x="620.0" y="174.0" type="line"/>
      <point x="673.0" y="74.0"/>
      <point x="698.0" y="-44.0"/>
      <point x="698.0" y="-104.0" type="qcurve" smooth="yes"/>
      <point x="698.0" y="-210.0"/>
      <point x="518.0" y="-420.0"/>
      <point x="317.0" y="-420.0" type="qcurve" smooth="yes"/>
      <point x="148.0" y="-420.0"/>
      <point x="20.0" y="-284.0"/>
      <point x="20.0" y="-201.0" type="qcurve" smooth="yes"/>
      <point x="20.0" y="-98.0"/>
      <point x="136.0" y="88.0"/>
      <point x="246.0" y="198.0" type="qcurve"/>
    </contour>
  </outline>
</glyph>
<glyph name="uni0265" format="2">
  <advance width="1194"/>
  <unicode hex="0265"/>
  <outline>
    <contour>
      <point x="115.0" y="436.0" type="qcurve" smooth="yes"/>
      <point x="243.0" y="990.0" type="line" smooth="yes"/>
      <point x="257.0" y="1050.0"/>
      <point x="316.0" y="1050.0" type="qcurve" smooth="yes"/>
      <point x="476.0" y="1050.0" type="line" smooth="yes"/>
      <point x="536.0" y="1050.0"/>
      <point x="523.0" y="990.0" type="qcurve" smooth="yes"/>
      <point x="411.0" y="508.0" type="line" smooth="yes"/>
      <point x="362.0" y="296.0"/>
      <point x="411.0" y="176.0"/>
      <point x="491.0" y="176.0" type="qcurve" smooth="yes"/>
      <point x="592.0" y="176.0"/>
      <point x="755.0" y="414.0"/>
      <point x="806.0" y="635.0" type="qcurve" smooth="yes"/>
      <point x="887.0" y="990.0" type="line" smooth="yes"/>
      <point x="901.0" y="1050.0"/>
      <point x="960.0" y="1050.0" type="qcurve" smooth="yes"/>
      <point x="1120.0" y="1050.0" type="line" smooth="yes"/>
      <point x="1180.0" y="1050.0"/>
      <point x="1167.0" y="990.0" type="qcurve" smooth="yes"/>
      <point x="860.0" y="-340.0" type="line" smooth="yes"/>
      <point x="846.0" y="-400.0"/>
      <point x="786.0" y="-400.0" type="qcurve" smooth="yes"/>
      <point x="626.0" y="-400.0" type="line" smooth="yes"/>
      <point x="566.0" y="-400.0"/>
      <point x="580.0" y="-340.0" type="qcurve" smooth="yes"/>
      <point x="674.0" y="67.0" type="line" smooth="yes"/>
      <point x="684.0" y="109.0"/>
      <point x="696.0" y="147.0" type="qcurve"/>
      <point x="691.0" y="147.0" type="line"/>
      <point x="611.0" y="53.0"/>
      <point x="466.0" y="-20.0"/>
      <point x="366.0" y="-20.0" type="qcurve" smooth="yes"/>
      <point x="224.0" y="-20.0"/>
      <point x="59.0" y="194.0"/>
    </contour>
  </outline>
</glyph>
<glyph name="uni026A" format="2">
  <advance width="748"/>
  <unicode hex="026A"/>
  <outline>
    <contour>
      <point x="32.0" y="0.0" type="line" smooth="yes"/>
      <point x="-28.0" y="0.0"/>
      <point x="-16.0" y="50.0" type="qcurve" smooth="yes"/>
      <point x="7.0" y="150.0" type="line" smooth="yes"/>
      <point x="19.0" y="200.0"/>
      <point x="78.0" y="200.0" type="qcurve" smooth="yes"/>
      <point x="160.0" y="200.0" type="line"/>
      <point x="310.0" y="850.0" type="line"/>
      <point x="228.0" y="850.0" type="line" smooth="yes"/>
      <point x="168.0" y="850.0"/>
      <point x="180.0" y="900.0" type="qcurve" smooth="yes"/>
      <point x="203.0" y="1000.0" type="line" smooth="yes"/>
      <point x="215.0" y="1050.0"/>
      <point x="274.0" y="1050.0" type="qcurve" smooth="yes"/>
      <point x="718.0" y="1050.0" type="line" smooth="yes"/>
      <point x="778.0" y="1050.0"/>
      <point x="767.0" y="1000.0" type="qcurve" smooth="yes"/>
      <point x="744.0" y="900.0" type="line" smooth="yes"/>
      <point x="732.0" y="850.0"/>
      <point x="672.0" y="850.0" type="qcurve" smooth="yes"/>
      <point x="590.0" y="850.0" type="line"/>
      <point x="440.0" y="200.0" type="line"/>
      <point x="522.0" y="200.0" type="line" smooth="yes"/>
      <point x="582.0" y="200.0"/>
      <point x="571.0" y="150.0" type="qcurve" smooth="yes"/>
      <point x="548.0" y="50.0" type="line" smooth="yes"/>
      <point x="536.0" y="0.0"/>
      <point x="476.0" y="0.0" type="qcurve" smooth="yes"/>
    </contour>
  </outline>
</glyph>
<glyph name="uni0283" format="2">
  <advance width="572"/>
  <unicode hex="0283"/>
  <outline>
    <contour>
      <point x="-286.0" y="-405.0" type="qcurve" smooth="yes"/>
      <point x="-323.0" y="-394.0"/>
      <point x="-307.0" y="-349.0" type="qcurve" smooth="yes"/>
      <point x="-270.0" y="-243.0" type="line" smooth="yes"/>
      <point x="-258.0" y="-208.0"/>
      <point x="-216.0" y="-215.0" type="qcurve" smooth="yes"/>
      <point x="-167.0" y="-224.0"/>
      <point x="-149.0" y="-224.0" type="qcurve" smooth="yes"/>
      <point x="-76.0" y="-224.0"/>
      <point x="4.0" y="-94.0"/>
      <point x="32.0" y="26.0" type="qcurve" smooth="yes"/>
      <point x="301.0" y="1190.0" type="line" smooth="yes"/>
      <point x="339.0" y="1352.0"/>
      <point x="548.0" y="1496.0"/>
      <point x="718.0" y="1496.0" type="qcurve" smooth="yes"/>
      <point x="772.0" y="1496.0"/>
      <point x="866.0" y="1473.0"/>
      <point x="904.0" y="1458.0" type="qcurve" smooth="yes"/>
      <point x="939.0" y="1444.0"/>
      <point x="923.0" y="1405.0" type="qcurve" smooth="yes"/>
      <point x="878.0" y="1297.0" type="line" smooth="yes"/>
      <point x="868.0" y="1272.0"/>
      <point x="829.0" y="1284.0" type="qcurve" smooth="yes"/>
      <point x="800.0" y="1293.0"/>
      <point x="732.0" y="1300.0"/>
      <point x="710.0" y="1300.0" type="qcurve" smooth="yes"/>
      <point x="638.0" y="1300.0"/>
      <point x="580.0" y="1185.0"/>
      <point x="558.0" y="1090.0" type="qcurve" smooth="yes"/>
      <point x="305.0" y="-4.0" type="line" smooth="yes"/>
      <point x="248.0" y="-252.0"/>
      <point x="26.0" y="-420.0"/>
      <point x="-145.0" y="-420.0" type="qcurve" smooth="yes"/>
      <point x="-235.0" y="-420.0"/>
    </contour>
  </outline>
</glyph>
<glyph name="uni0289" format="2">
  <advance width="1372"/>
  <unicode hex="0289"/>
  <outline>
    <contour>
      <point x="90.0" y="448.0" type="line" smooth="yes"/>
      <point x="30.0" y="448.0"/>
      <point x="42.0" y="498.0" type="qcurve" smooth="yes"/>
      <point x="65.0" y="598.0" type="line" smooth="yes"/>
      <point x="77.0" y="648.0"/>
      <point x="137.0" y="648.0" type="qcurve" smooth="yes"/>
      <point x="254.0" y="648.0" type="line"/>
      <point x="333.0" y="990.0" type="line" smooth="yes"/>
      <point x="347.0" y="1050.0"/>
      <point x="406.0" y="1050.0" type="qcurve" smooth="yes"/>
      <point x="566.0" y="1050.0" type="line" smooth="yes"/>
      <point x="627.0" y="1050.0"/>
      <point x="613.0" y="990.0" type="qcurve" smooth="yes"/>
      <point x="534.0" y="648.0" type="line"/>
      <point x="899.0" y="648.0" type="line"/>
      <point x="977.0" y="990.0" type="line" smooth="yes"/>
      <point x="991.0" y="1050.0"/>
      <point x="1050.0" y="1050.0" type="qcurve" smooth="yes"/>
      <point x="1210.0" y="1050.0" type="line" smooth="yes"/>
      <point x="1271.0" y="1050.0"/>
      <point x="1257.0" y="990.0" type="qcurve" smooth="yes"/>
      <point x="1178.0" y="648.0" type="line"/>
      <point x="1295.0" y="648.0" type="line" smooth="yes"/>
      <point x="1354.0" y="648.0"/>
      <point x="1343.0" y="598.0" type="qcurve" smooth="yes"/>
      <point x="1320.0" y="498.0" type="line" smooth="yes"/>
      <point x="1308.0" y="448.0"/>
      <point x="1248.0" y="448.0" type="qcurve" smooth="yes"/>
      <point x="1132.0" y="448.0" type="line"/>
      <point x="1042.0" y="60.0" type="line" smooth="yes"/>
      <point x="1028.0" y="0.0"/>
      <point x="968.0" y="0.0" type="qcurve" smooth="yes"/>
      <point x="810.0" y="0.0" type="line" smooth="yes"/>
      <point x="750.0" y="0.0"/>
      <point x="764.0" y="60.0" type="qcurve" smooth="yes"/>
      <point x="785.0" y="147.0" type="line"/>
      <point x="781.0" y="147.0" type="line"/>
      <point x="701.0" y="53.0"/>
      <point x="556.0" y="-20.0"/>
      <point x="456.0" y="-20.0" type="qcurve" smooth="yes"/>
      <point x="314.0" y="-20.0"/>
      <point x="149.0" y="194.0"/>
      <point x="205.0" y="436.0" type="qcurve" smooth="yes"/>
      <point x="208.0" y="448.0" type="line"/>
      <point x="207.0" y="448.0" type="line"/>
    </contour>
    <contour>
      <point x="485.0" y="432.0" type="line" smooth="yes"/>
      <point x="455.0" y="277.0"/>
      <point x="507.0" y="176.0"/>
      <point x="581.0" y="176.0" type="qcurve" smooth="yes"/>
      <point x="670.0" y="176.0"/>
      <point x="808.0" y="352.0"/>
      <point x="841.0" y="448.0" type="qcurve"/>
      <point x="488.0" y="448.0" type="line"/>
    </contour>
  </outline>
</glyph>
<glyph name="ring" format="2">
  <advance width="614"/>
  <unicode hex="02DA"/>
  <outline>
    <contour>
      <point x="300.0" y="1313.0" type="qcurve" smooth="yes"/>
      <point x="300.0" y="1390.0"/>
      <point x="410.0" y="1499.0"/>
      <point x="489.0" y="1499.0" type="qcurve" smooth="yes"/>
      <point x="568.0" y="1499.0"/>
      <point x="678.0" y="1390.0"/>
      <point x="678.0" y="1313.0" type="qcurve" smooth="yes"/>
      <point x="678.0" y="1236.0"/>
      <point x="568.0" y="1127.0"/>
      <point x="489.0" y="1127.0" type="qcurve" smooth="yes"/>
      <point x="410.0" y="1127.0"/>
      <point x="300.0" y="1236.0"/>
    </contour>
    <contour>
      <point x="395.0" y="1313.0" type="qcurve" smooth="yes"/>
      <point x="395.0" y="1273.0"/>
      <point x="449.0" y="1219.0"/>
      <point x="489.0" y="1219.0" type="qcurve" smooth="yes"/>
      <point x="529.0" y="1219.0"/>
      <point x="583.0" y="1273.0"/>
      <point x="583.0" y="1313.0" type="qcurve" smooth="yes"/>
      <point x="583.0" y="1353.0"/>
      <point x="529.0" y="1407.0"/>
      <point x="489.0" y="1407.0" type="qcurve" smooth="yes"/>
      <point x="449.0" y="1407.0"/>
      <point x="395.0" y="1353.0"/>
    </contour>
  </outline>
</glyph>
<glyph name="ogonek" format="2">
  <advance width="614"/>
  <unicode hex="02DB"/>
  <outline>
    <contour>
      <point x="-100.0" y="-266.0" type="qcurve" smooth="yes"/>
      <point x="-100.0" y="-230.0"/>
      <point x="-82.0" y="-161.0"/>
      <point x="18.0" y="-60.0"/>
      <point x="100.0" y="-7.0" type="qcurve"/>
      <point x="133.0" y="11.0"/>
      <point x="144.0" y="60.0" type="qcurve"/>
      <point x="416.0" y="60.0" type="line"/>
      <point x="406.0" y="15.0"/>
      <point x="362.0" y="-11.0" type="qcurve" smooth="yes"/>
      <point x="251.0" y="-80.0"/>
      <point x="136.0" y="-160.0"/>
      <point x="136.0" y="-189.0" type="qcurve" smooth="yes"/>
      <point x="136.0" y="-210.0"/>
      <point x="170.0" y="-224.0"/>
      <point x="197.0" y="-224.0" type="qcurve" smooth="yes"/>
      <point x="241.0" y="-224.0"/>
      <point x="282.0" y="-219.0" type="qcurve" smooth="yes"/>
      <point x="321.0" y="-214.0"/>
      <point x="322.0" y="-253.0" type="qcurve" smooth="yes"/>
      <point x="325.0" y="-368.0" type="line" smooth="yes"/>
      <point x="326.0" y="-406.0"/>
      <point x="291.0" y="-411.0" type="qcurve" smooth="yes"/>
      <point x="222.0" y="-420.0"/>
      <point x="144.0" y="-420.0" type="qcurve" smooth="yes"/>
      <point x="20.0" y="-420.0"/>
      <point x="-100.0" y="-333.0"/>
    </contour>
  </outline>
</glyph>
<glyph name="tilde" format="2">
  <advance width="614"/>
  <unicode hex="02DC"/>
  <outline>
    <contour>
      <point x="149.0" y="1192.0" type="line" smooth="yes"/>
      <point x="124.0" y="1208.0"/>
      <point x="148.0" y="1253.0" type="qcurve" smooth="yes"/>
      <point x="186.0" y="1323.0"/>
      <point x="298.0" y="1396.0"/>
      <point x="380.0" y="1396.0" type="qcurve" smooth="yes"/>
      <point x="446.0" y="1396.0"/>
      <point x="574.0" y="1292.0"/>
      <point x="619.0" y="1292.0" type="qcurve" smooth="yes"/>
      <point x="650.0" y="1292.0"/>
      <point x="687.0" y="1312.0"/>
      <point x="711.0" y="1349.0" type="qcurve" smooth="yes"/>
      <point x="742.0" y="1396.0"/>
      <point x="771.0" y="1377.0" type="qcurve" smooth="yes"/>
      <point x="812.0" y="1350.0" type="line" smooth="yes"/>
      <point x="837.0" y="1334.0"/>
      <point x="813.0" y="1289.0" type="qcurve" smooth="yes"/>
      <point x="775.0" y="1219.0"/>
      <point x="663.0" y="1146.0"/>
      <point x="581.0" y="1146.0" type="qcurve" smooth="yes"/>
      <point x="515.0" y="1146.0"/>
      <point x="387.0" y="1250.0"/>
      <point x="342.0" y="1250.0" type="qcurve" smooth="yes"/>
      <point x="311.0" y="1250.0"/>
      <point x="274.0" y="1230.0"/>
      <point x="250.0" y="1193.0" type="qcurve" smooth="yes"/>
      <point x="219.0" y="1146.0"/>
      <point x="190.0" y="1165.0" type="qcurve" smooth="yes"/>
    </contour>
  </outline>
</glyph>
<glyph name="afii10059" format="2">
  <advance width="2180"/>
  <unicode hex="040A"/>
  <outline>
    <contour>
      <point x="110.0" y="0.0" type="line" smooth="yes"/>
      <point x="40.0" y="0.0"/>
      <point x="57.0" y="75.0" type="qcurve" smooth="yes"/>
      <point x="354.0" y="1359.0" type="line" smooth="yes"/>
      <point x="371.0" y="1434.0"/>
      <point x="441.0" y="1434.0" type="qcurve" smooth="yes"/>
      <point x="593.0" y="1434.0" type="line" smooth="yes"/>
      <point x="663.0" y="1434.0"/>
      <point x="646.0" y="1359.0" type="qcurve" smooth="yes"/>
      <point x="533.0" y="870.0" type="line"/>
      <point x="1071.0" y="870.0" type="line"/>
      <point x="1184.0" y="1359.0" type="line" smooth="yes"/>
      <point x="1201.0" y="1434.0"/>
      <point x="1271.0" y="1434.0" type="qcurve" smooth="yes"/>
      <point x="1423.0" y="1434.0" type="line" smooth="yes"/>
      <point x="1493.0" y="1434.0"/>
      <point x="1476.0" y="1359.0" type="qcurve" smooth="yes"/>
      <point x="1363.0" y="870.0" type="line"/>
      <point x="1498.0" y="870.0" type="line" smooth="yes"/>
      <point x="1830.0" y="870.0"/>
      <point x="2065.0" y="640.0"/>
      <point x="2065.0" y="474.0" type="qcurve" smooth="yes"/>
      <point x="2065.0" y="267.0"/>
      <point x="1702.0" y="0.0"/>
      <point x="1337.0" y="0.0" type="qcurve" smooth="yes"/>
      <point x="940.0" y="0.0" type="line" smooth="yes"/>
      <point x="870.0" y="0.0"/>
      <point x="887.0" y="75.0" type="qcurve" smooth="yes"/>
      <point x="1014.0" y="622.0" type="line"/>
      <point x="476.0" y="622.0" type="line"/>
      <point x="349.0" y="75.0" type="line" smooth="yes"/>
      <point x="332.0" y="0.0"/>
      <point x="262.0" y="0.0" type="qcurve" smooth="yes"/>
    </contour>
    <contour>
      <point x="1218.0" y="244.0" type="line"/>
      <point x="1364.0" y="244.0" type="line" smooth="yes"/>
      <point x="1554.0" y="244.0"/>
      <point x="1753.0" y="332.0"/>
      <point x="1753.0" y="457.0" type="qcurve" smooth="yes"/>
      <point x="1753.0" y="555.0"/>
      <point x="1622.0" y="626.0"/>
      <point x="1413.0" y="626.0" type="qcurve" smooth="yes"/>
      <point x="1307.0" y="626.0" type="line"/>
    </contour>
  </outline>
</glyph>
<glyph name="afii10060" format="2">
  <advance width="1614"/>
  <unicode hex="040B"/>
  <outline>
    <contour>
      <point x="261.0" y="1178.0" type="line" smooth="yes"/>
      <point x="186.0" y="1178.0"/>
      <point x="201.0" y="1243.0" type="qcurve" smooth="yes"/>
      <point x="230.0" y="1369.0" type="line" smooth="yes"/>
      <point x="245.0" y="1434.0"/>
      <point x="320.0" y="1434.0" type="qcurve" smooth="yes"/>
      <point x="1348.0" y="1434.0" type="line" smooth="yes"/>
      <point x="1423.0" y="1434.0"/>
      <point x="1408.0" y="1369.0" type="qcurve" smooth="yes"/>
      <point x="1379.0" y="1243.0" type="line" smooth="yes"/>
      <point x="1364.0" y="1178.0"/>
      <point x="1289.0" y="1178.0" type="qcurve" smooth="yes"/>
      <point x="891.0" y="1178.0" type="line"/>
      <point x="837.0" y="943.0" type="line" smooth="yes"/>
      <point x="824.0" y="885.0"/>
      <point x="804.0" y="823.0" type="qcurve"/>
      <point x="811.0" y="823.0" type="line"/>
      <point x="892.0" y="860.0"/>
      <point x="1071.0" y="910.0"/>
      <point x="1180.0" y="910.0" type="qcurve" smooth="yes"/>
      <point x="1341.0" y="910.0"/>
      <point x="1517.0" y="667.0"/>
      <point x="1479.0" y="502.0" type="qcurve" smooth="yes"/>
      <point x="1380.0" y="75.0" type="line" smooth="yes"/>
      <point x="1363.0" y="0.0"/>
      <point x="1293.0" y="0.0" type="qcurve" smooth="yes"/>
      <point x="1141.0" y="0.0" type="line" smooth="yes"/>
      <point x="1071.0" y="0.0"/>
      <point x="1088.0" y="75.0" type="qcurve" smooth="yes"/>
      <point x="1176.0" y="454.0" type="line" smooth="yes"/>
      <point x="1203.0" y="571.0"/>
      <point x="1122.0" y="674.0"/>
      <point x="1053.0" y="674.0" type="qcurve" smooth="yes"/>
      <point x="1014.0" y="674.0"/>
      <point x="854.0" y="646.0"/>
      <point x="758.0" y="601.0" type="qcurve"/>
      <point x="632.0" y="55.0" type="line" smooth="yes"/>
      <point x="619.0" y="0.0"/>
      <point x="569.0" y="0.0" type="qcurve" smooth="yes"/>
      <point x="377.0" y="0.0" type="line" smooth="yes"/>
      <point x="327.0" y="0.0"/>
      <point x="340.0" y="55.0" type="qcurve" smooth="yes"/>
      <point x="599.0" y="1178.0" type="line"/>
    </contour>
  </outline>
</glyph>
<glyph name="afii10145" format="2">
  <advance width="1430"/>
  <unicode hex="040F"/>
  <outline>
    <contour>
      <point x="110.0" y="0.0" type="line" smooth="yes"/>
      <point x="40.0" y="0.0"/>
      <point x="57.0" y="75.0" type="qcurve" smooth="yes"/>
      <point x="354.0" y="1359.0" type="line" smooth="yes"/>
      <point x="371.0" y="1434.0"/>
      <point x="441.0" y="1434.0" type="qcurve" smooth="yes"/>
      <point x="593.0" y="1434.0" type="line" smooth="yes"/>
      <point x="663.0" y="1434.0"/>
      <point x="646.0" y="1359.0" type="qcurve" smooth="yes"/>
      <point x="389.0" y="248.0" type="line"/>
      <point x="915.0" y="248.0" type="line"/>
      <point x="1172.0" y="1359.0" type="line" smooth="yes"/>
      <point x="1189.0" y="1434.0"/>
      <point x="1259.0" y="1434.0" type="qcurve" smooth="yes"/>
      <point x="1411.0" y="1434.0" type="line" smooth="yes"/>
      <point x="1481.0" y="1434.0"/>
      <point x="1464.0" y="1359.0" type="qcurve" smooth="yes"/>
      <point x="1167.0" y="75.0" type="line" smooth="yes"/>
      <point x="1150.0" y="0.0"/>
      <point x="1080.0" y="0.0" type="qcurve" smooth="yes"/>
      <point x="720.0" y="0.0" type="line"/>
      <point x="651.0" y="-300.0" type="line" smooth="yes"/>
      <point x="635.0" y="-370.0"/>
      <point x="575.0" y="-370.0" type="qcurve" smooth="yes"/>
      <point x="445.0" y="-370.0" type="line" smooth="yes"/>
      <point x="385.0" y="-370.0"/>
      <point x="401.0" y="-300.0" type="qcurve" smooth="yes"/>
      <point x="470.0" y="0.0" type="line"/>
    </contour>
  </outline>
</glyph>
<glyph name="afii10018" format="2">
  <advance width="1370"/>
  <unicode hex="0411"/>
  <outline>
    <contour>
      <point x="110.0" y="0.0" type="line" smooth="yes"/>
      <point x="40.0" y="0.0"/>
      <point x="57.0" y="75.0" type="qcurve" smooth="yes"/>
      <point x="354.0" y="1359.0" type="line" smooth="yes"/>
      <point x="371.0" y="1434.0"/>
      <point x="441.0" y="1434.0" type="qcurve" smooth="yes"/>
      <point x="1266.0" y="1434.0" type="line" smooth="yes"/>
      <point x="1341.0" y="1434.0"/>
      <point x="1326.0" y="1369.0" type="qcurve" smooth="yes"/>
      <point x="1299.0" y="1251.0" type="line" smooth="yes"/>
      <point x="1284.0" y="1186.0"/>
      <point x="1209.0" y="1186.0" type="qcurve" smooth="yes"/>
      <point x="606.0" y="1186.0" type="line"/>
      <point x="534.0" y="876.0" type="line"/>
      <point x="679.0" y="876.0" type="line" smooth="yes"/>
      <point x="1011.0" y="876.0"/>
      <point x="1245.0" y="646.0"/>
      <point x="1245.0" y="477.0" type="qcurve" smooth="yes"/>
      <point x="1245.0" y="267.0"/>
      <point x="882.0" y="0.0"/>
      <point x="517.0" y="0.0" type="qcurve" smooth="yes"/>
    </contour>
    <contour>
      <point x="388.0" y="244.0" type="line"/>
      <point x="544.0" y="244.0" type="line" smooth="yes"/>
      <point x="734.0" y="244.0"/>
      <point x="933.0" y="332.0"/>
      <point x="933.0" y="460.0" type="qcurve" smooth="yes"/>
      <point x="933.0" y="561.0"/>
      <point x="803.0" y="632.0"/>
      <point x="594.0" y="632.0" type="qcurve" smooth="yes"/>
      <point x="478.0" y="632.0" type="line"/>
    </contour>
  </outline>
</glyph>
<glyph name="afii10020" format="2">
  <advance width="1118"/>
  <unicode hex="0413"/>
  <outline>
    <contour>
      <point x="110.0" y="0.0" type="line" smooth="yes"/>
      <point x="40.0" y="0.0"/>
      <point x="57.0" y="75.0" type="qcurve" smooth="yes"/>
      <point x="354.0" y="1359.0" type="line" smooth="yes"/>
      <point x="371.0" y="1434.0"/>
      <point x="441.0" y="1434.0" type="qcurve" smooth="yes"/>
      <point x="1220.0" y="1434.0" type="line" smooth="yes"/>
      <point x="1295.0" y="1434.0"/>
      <point x="1280.0" y="1369.0" type="qcurve" smooth="yes"/>
      <point x="1253.0" y="1251.0" type="line" smooth="yes"/>
      <point x="1238.0" y="1186.0"/>
      <point x="1163.0" y="1186.0" type="qcurve" smooth="yes"/>
      <point x="606.0" y="1186.0" type="line"/>
      <point x="349.0" y="75.0" type="line" smooth="yes"/>
      <point x="332.0" y="0.0"/>
      <point x="262.0" y="0.0" type="qcurve" smooth="yes"/>
    </contour>
  </outline>
</glyph>
<glyph name="afii10026" format="2">
  <advance width="1492"/>
  <unicode hex="0418"/>
  <outline>
    <contour>
      <point x="110.0" y="0.0" type="line" smooth="yes"/>
      <point x="40.0" y="0.0"/>
      <point x="57.0" y="75.0" type="qcurve" smooth="yes"/>
      <point x="354.0" y="1359.0" type="line" smooth="yes"/>
      <point x="371.0" y="1434.0"/>
      <point x="441.0" y="1434.0" type="qcurve" smooth="yes"/>
      <point x="593.0" y="1434.0" type="line" smooth="yes"/>
      <point x="663.0" y="1434.0"/>
      <point x="646.0" y="1359.0" type="qcurve" smooth="yes"/>
      <point x="470.0" y="596.0" type="line" smooth="yes"/>
      <point x="457.0" y="538.0"/>
      <point x="437.0" y="476.0" type="qcurve"/>
      <point x="444.0" y="476.0" type="line"/>
      <point x="1129.0" y="1364.0" type="line" smooth="yes"/>
      <point x="1183.0" y="1434.0"/>
      <point x="1275.0" y="1434.0" type="qcurve" smooth="yes"/>
      <point x="1473.0" y="1434.0" type="line" smooth="yes"/>
      <point x="1543.0" y="1434.0"/>
      <point x="1526.0" y="1359.0" type="qcurve" smooth="yes"/>
      <point x="1229.0" y="75.0" type="line" smooth="yes"/>
      <point x="1212.0" y="0.0"/>
      <point x="1142.0" y="0.0" type="qcurve" smooth="yes"/>
      <point x="990.0" y="0.0" type="line" smooth="yes"/>
      <point x="920.0" y="0.0"/>
      <point x="937.0" y="75.0" type="qcurve" smooth="yes"/>
      <point x="1113.0" y="838.0" type="line" smooth="yes"/>
      <point x="1126.0" y="896.0"/>
      <point x="1146.0" y="958.0" type="qcurve"/>
      <point x="1139.0" y="958.0" type="line"/>
      <point x="454.0" y="70.0" type="line" smooth="yes"/>
      <point x="400.0" y="0.0"/>
      <point x="308.0" y="0.0" type="qcurve" smooth="yes"/>
    </contour>
  </outline>
</glyph>
<glyph name="afii10029" format="2">
  <advance width="1482"/>
  <unicode hex="041B"/>
  <outline>
    <contour>
      <point x="-44.0" y="-10.0" type="qcurve" smooth="yes"/>
      <point x="-77.0" y="2.0"/>
      <point x="-59.0" y="58.0" type="qcurve" smooth="yes"/>
      <point x="-23.0" y="172.0" type="line" smooth="yes"/>
      <point x="-6.0" y="227.0"/>
      <point x="48.0" y="210.0" type="qcurve" smooth="yes"/>
      <point x="74.0" y="202.0"/>
      <point x="115.0" y="202.0" type="qcurve" smooth="yes"/>
      <point x="276.0" y="202.0"/>
      <point x="478.0" y="620.0"/>
      <point x="586.0" y="1090.0" type="qcurve" smooth="yes"/>
      <point x="648.0" y="1359.0" type="line" smooth="yes"/>
      <point x="665.0" y="1434.0"/>
      <point x="735.0" y="1434.0" type="qcurve" smooth="yes"/>
      <point x="1463.0" y="1434.0" type="line" smooth="yes"/>
      <point x="1533.0" y="1434.0"/>
      <point x="1516.0" y="1359.0" type="qcurve" smooth="yes"/>
      <point x="1219.0" y="75.0" type="line" smooth="yes"/>
      <point x="1202.0" y="0.0"/>
      <point x="1132.0" y="0.0" type="qcurve" smooth="yes"/>
      <point x="980.0" y="0.0" type="line" smooth="yes"/>
      <point x="910.0" y="0.0"/>
      <point x="927.0" y="75.0" type="qcurve" smooth="yes"/>
      <point x="1184.0" y="1186.0" type="line"/>
      <point x="858.0" y="1186.0" type="line"/>
      <point x="823.0" y="1034.0" type="line" smooth="yes"/>
      <point x="685.0" y="434.0"/>
      <point x="378.0" y="-34.0"/>
      <point x="78.0" y="-34.0" type="qcurve" smooth="yes"/>
      <point x="24.0" y="-34.0"/>
    </contour>
  </outline>
</glyph>
<glyph name="afii10033" format="2">
  <advance width="1436"/>
  <unicode hex="041F"/>
  <outline>
    <contour>
      <point x="110.0" y="0.0" type="line" smooth="yes"/>
      <point x="40.0" y="0.0"/>
      <point x="57.0" y="75.0" type="qcurve" smooth="yes"/>
      <point x="354.0" y="1359.0" type="line" smooth="yes"/>
      <point x="371.0" y="1434.0"/>
      <point x="441.0" y="1434.0" type="qcurve" smooth="yes"/>
      <point x="1417.0" y="1434.0" type="line" smooth="yes"/>
      <point x="1487.0" y="1434.0"/>
      <point x="1470.0" y="1359.0" type="qcurve" smooth="yes"/>
      <point x="1173.0" y="75.0" type="line" smooth="yes"/>
      <point x="1156.0" y="0.0"/>
      <point x="1086.0" y="0.0" type="qcurve" smooth="yes"/>
      <point x="934.0" y="0.0" type="line" smooth="yes"/>
      <point x="864.0" y="0.0"/>
      <point x="881.0" y="75.0" type="qcurve" smooth="yes"/>
      <point x="1138.0" y="1186.0" type="line"/>
      <point x="606.0" y="1186.0" type="line"/>
      <point x="349.0" y="75.0" type="line" smooth="yes"/>
      <point x="332.0" y="0.0"/>
      <point x="262.0" y="0.0" type="qcurve" smooth="yes"/>
    </contour>
  </outline>
</glyph>
<glyph name="afii10041" format="2">
  <advance width="1308"/>
  <unicode hex="0427"/>
  <outline>
    <contour>
      <point x="212.0" y="953.0" type="qcurve" smooth="yes"/>
      <point x="306.0" y="1359.0" type="line" smooth="yes"/>
      <point x="323.0" y="1434.0"/>
      <point x="393.0" y="1434.0" type="qcurve" smooth="yes"/>
      <point x="545.0" y="1434.0" type="line" smooth="yes"/>
      <point x="615.0" y="1434.0"/>
      <point x="598.0" y="1359.0" type="qcurve" smooth="yes"/>
      <point x="510.0" y="980.0" type="line" smooth="yes"/>
      <point x="482.0" y="858.0"/>
      <point x="544.0" y="760.0"/>
      <point x="612.0" y="760.0" type="qcurve" smooth="yes"/>
      <point x="684.0" y="760.0"/>
      <point x="829.0" y="786.0"/>
      <point x="927.0" y="827.0" type="qcurve"/>
      <point x="1050.0" y="1359.0" type="line" smooth="yes"/>
      <point x="1067.0" y="1434.0"/>
      <point x="1137.0" y="1434.0" type="qcurve" smooth="yes"/>
      <point x="1289.0" y="1434.0" type="line" smooth="yes"/>
      <point x="1359.0" y="1434.0"/>
      <point x="1342.0" y="1359.0" type="qcurve" smooth="yes"/>
      <point x="1045.0" y="75.0" type="line" smooth="yes"/>
      <point x="1028.0" y="0.0"/>
      <point x="958.0" y="0.0" type="qcurve" smooth="yes"/>
      <point x="806.0" y="0.0" type="line" smooth="yes"/>
      <point x="736.0" y="0.0"/>
      <point x="753.0" y="75.0" type="qcurve" smooth="yes"/>
      <point x="849.0" y="491.0" type="line" smooth="yes"/>
      <point x="862.0" y="549.0"/>
      <point x="882.0" y="611.0" type="qcurve"/>
      <point x="875.0" y="611.0" type="line"/>
      <point x="794.0" y="574.0"/>
      <point x="612.0" y="524.0"/>
      <point x="514.0" y="524.0" type="qcurve" smooth="yes"/>
      <point x="354.0" y="524.0"/>
      <point x="170.0" y="770.0"/>
    </contour>
  </outline>
</glyph>
<glyph name="afii10043" format="2">
  <advance width="2232"/>
  <unicode hex="0429"/>
  <outline>
    <contour>
      <point x="110.0" y="0.0" type="line" smooth="yes"/>
      <point x="40.0" y="0.0"/>
      <point x="57.0" y="75.0" type="qcurve" smooth="yes"/>
      <point x="354.0" y="1359.0" type="line" smooth="yes"/>
      <point x="371.0" y="1434.0"/>
      <point x="441.0" y="1434.0" type="qcurve" smooth="yes"/>
      <point x="593.0" y="1434.0" type="line" smooth="yes"/>
      <point x="663.0" y="1434.0"/>
      <point x="646.0" y="1359.0" type="qcurve" smooth="yes"/>
      <point x="389.0" y="248.0" type="line"/>
      <point x="861.0" y="248.0" type="line"/>
      <point x="1118.0" y="1359.0" type="line" smooth="yes"/>
      <point x="1135.0" y="1434.0"/>
      <point x="1205.0" y="1434.0" type="qcurve" smooth="yes"/>
      <point x="1357.0" y="1434.0" type="line" smooth="yes"/>
      <point x="1427.0" y="1434.0"/>
      <point x="1410.0" y="1359.0" type="qcurve" smooth="yes"/>
      <point x="1153.0" y="248.0" type="line"/>
      <point x="1625.0" y="248.0" type="line"/>
      <point x="1882.0" y="1359.0" type="line" smooth="yes"/>
      <point x="1899.0" y="1434.0"/>
      <point x="1969.0" y="1434.0" type="qcurve" smooth="yes"/>
      <point x="2121.0" y="1434.0" type="line" smooth="yes"/>
      <point x="2191.0" y="1434.0"/>
      <point x="2174.0" y="1359.0" type="qcurve" smooth="yes"/>
      <point x="1917.0" y="248.0" type="line"/>
      <point x="2039.0" y="248.0" type="line" smooth="yes"/>
      <point x="2109.0" y="248.0"/>
      <point x="2092.0" y="173.0" type="qcurve" smooth="yes"/>
      <point x="1983.0" y="-300.0" type="line" smooth="yes"/>
      <point x="1967.0" y="-370.0"/>
      <point x="1907.0" y="-370.0" type="qcurve" smooth="yes"/>
      <point x="1777.0" y="-370.0" type="line" smooth="yes"/>
      <point x="1717.0" y="-370.0"/>
      <point x="1733.0" y="-300.0" type="qcurve" smooth="yes"/>
      <point x="1802.0" y="0.0" type="line"/>
    </contour>
  </outline>
</glyph>
<glyph name="afii10049" format="2">
  <advance width="1416"/>
  <unicode hex="042F"/>
  <outline>
    <contour>
      <point x="31.0" y="0.0" type="line" smooth="yes"/>
      <point x="-63.0" y="0.0"/>
      <point x="13.0" y="86.0" type="qcurve" smooth="yes"/>
      <point x="295.0" y="407.0" type="line" smooth="yes"/>
      <point x="359.0" y="480.0"/>
      <point x="492.0" y="585.0"/>
      <point x="580.0" y="636.0" type="qcurve"/>
      <point x="580.0" y="638.0" type="line"/>
      <point x="429.0" y="648.0"/>
      <point x="243.0" y="840.0"/>
      <point x="243.0" y="963.0" type="qcurve" smooth="yes"/>
      <point x="243.0" y="1191.0"/>
      <point x="582.0" y="1434.0"/>
      <point x="933.0" y="1434.0" type="qcurve" smooth="yes"/>
      <point x="1397.0" y="1434.0" type="line" smooth="yes"/>
      <point x="1467.0" y="1434.0"/>
      <point x="1450.0" y="1359.0" type="qcurve" smooth="yes"/>
      <point x="1153.0" y="75.0" type="line" smooth="yes"/>
      <point x="1136.0" y="0.0"/>
      <point x="1066.0" y="0.0" type="qcurve" smooth="yes"/>
      <point x="914.0" y="0.0" type="line" smooth="yes"/>
      <point x="844.0" y="0.0"/>
      <point x="861.0" y="75.0" type="qcurve" smooth="yes"/>
      <point x="976.0" y="573.0" type="line"/>
      <point x="931.0" y="573.0" type="line" smooth="yes"/>
      <point x="843.0" y="573.0"/>
      <point x="710.0" y="478.0"/>
      <point x="627.0" y="382.0" type="qcurve" smooth="yes"/>
      <point x="347.0" y="59.0" type="line" smooth="yes"/>
      <point x="296.0" y="0.0"/>
      <point x="243.0" y="0.0" type="qcurve" smooth="yes"/>
    </contour>
    <contour>
      <point x="539.0" y="983.0" type="qcurve" smooth="yes"/>
      <point x="539.0" y="897.0"/>
      <point x="690.0" y="817.0"/>
      <point x="851.0" y="817.0" type="qcurve" smooth="yes"/>
      <point x="1033.0" y="817.0" type="line"/>
      <point x="1119.0" y="1190.0" type="line"/>
      <point x="901.0" y="1190.0" type="line" smooth="yes"/>
      <point x="717.0" y="1190.0"/>
      <point x="539.0" y="1086.0"/>
    </contour>
  </outline>
</glyph>
<glyph name="afii10069" format="2">
  <advance width="1224"/>
  <unicode hex="0434"/>
  <outline>
    <contour>
      <point x="58.0" y="412.0" type="qcurve" smooth="yes"/>
      <point x="58.0" y="636.0"/>
      <point x="387.0" y="1058.0"/>
      <point x="670.0" y="1058.0" type="qcurve" smooth="yes"/>
      <point x="756.0" y="1058.0"/>
      <point x="885.0" y="975.0"/>
      <point x="919.0" y="903.0" type="qcurve"/>
      <point x="923.0" y="903.0" type="line"/>
      <point x="927.0" y="937.0"/>
      <point x="927.0" y="984.0" type="qcurve" smooth="yes"/>
      <point x="927.0" y="1128.0"/>
      <point x="816.0" y="1300.0"/>
      <point x="711.0" y="1300.0" type="qcurve" smooth="yes"/>
      <point x="651.0" y="1300.0"/>
      <point x="522.0" y="1272.0"/>
      <point x="472.0" y="1247.0" type="qcurve" smooth="yes"/>
      <point x="415.0" y="1218.0"/>
      <point x="388.0" y="1271.0" type="qcurve" smooth="yes"/>
      <point x="358.0" y="1329.0" type="line" smooth="yes"/>
      <point x="327.0" y="1389.0"/>
      <point x="373.0" y="1416.0" type="qcurve" smooth="yes"/>
      <point x="441.0" y="1455.0"/>
      <point x="626.0" y="1496.0"/>
      <point x="730.0" y="1496.0" type="qcurve" smooth="yes"/>
      <point x="942.0" y="1496.0"/>
      <point x="1194.0" y="1209.0"/>
      <point x="1194.0" y="876.0" type="qcurve" smooth="yes"/>
      <point x="1194.0" y="507.0"/>
      <point x="822.0" y="-20.0"/>
      <point x="518.0" y="-20.0" type="qcurve" smooth="yes"/>
      <point x="249.0" y="-20.0"/>
      <point x="58.0" y="237.0"/>
    </contour>
    <contour>
      <point x="354.0" y="387.0" type="qcurve" smooth="yes"/>
      <point x="354.0" y="273.0"/>
      <point x="451.0" y="176.0"/>
      <point x="536.0" y="176.0" type="qcurve" smooth="yes"/>
      <point x="661.0" y="176.0"/>
      <point x="854.0" y="438.0"/>
      <point x="854.0" y="647.0" type="qcurve" smooth="yes"/>
      <point x="854.0" y="747.0"/>
      <point x="757.0" y="862.0"/>
      <point x="672.0" y="862.0" type="qcurve" smooth="yes"/>
      <point x="547.0" y="862.0"/>
      <point x="354.0" y="609.0"/>
    </contour>
  </outline>
</glyph>
<glyph name="afii10076" format="2">
  <advance width="1085"/>
  <unicode hex="043A"/>
  <outline>
    <contour>
      <point x="76.0" y="0.0" type="line" smooth="yes"/>
      <point x="16.0" y="0.0"/>
      <point x="30.0" y="60.0" type="qcurve" smooth="yes"/>
      <point x="245.0" y="990.0" type="line" smooth="yes"/>
      <point x="259.0" y="1050.0"/>
      <point x="318.0" y="1050.0" type="qcurve" smooth="yes"/>
      <point x="478.0" y="1050.0" type="line" smooth="yes"/>
      <point x="539.0" y="1050.0"/>
      <point x="525.0" y="990.0" type="qcurve" smooth="yes"/>
      <point x="446.0" y="648.0" type="line"/>
      <point x="469.0" y="648.0" type="line" smooth="yes"/>
      <point x="498.0" y="648.0"/>
      <point x="564.0" y="697.0"/>
      <point x="629.0" y="776.0" type="qcurve" smooth="yes"/>
      <point x="821.0" y="1009.0" type="line" smooth="yes"/>
      <point x="855.0" y="1050.0"/>
      <point x="908.0" y="1050.0" type="qcurve" smooth="yes"/>
      <point x="1092.0" y="1050.0" type="line" smooth="yes"/>
      <point x="1170.0" y="1050.0"/>
      <point x="1106.0" y="976.0" type="qcurve" smooth="yes"/>
      <point x="882.0" y="716.0" type="line" smooth="yes"/>
      <point x="826.0" y="651.0"/>
      <point x="720.0" y="570.0"/>
      <point x="655.0" y="554.0" type="qcurve"/>
      <point x="654.0" y="552.0" type="line"/>
      <point x="712.0" y="542.0"/>
      <point x="792.0" y="443.0"/>
      <point x="817.0" y="372.0" type="qcurve" smooth="yes"/>
      <point x="921.0" y="74.0" type="line" smooth="yes"/>
      <point x="947.0" y="0.0"/>
      <point x="873.0" y="0.0" type="qcurve" smooth="yes"/>
      <point x="726.0" y="0.0" type="line" smooth="yes"/>
      <point x="672.0" y="0.0"/>
      <point x="656.0" y="52.0" type="qcurve" smooth="yes"/>
      <point x="567.0" y="338.0" type="line" smooth="yes"/>
      <point x="547.0" y="401.0"/>
      <point x="474.0" y="448.0"/>
      <point x="423.0" y="448.0" type="qcurve" smooth="yes"/>
      <point x="399.0" y="448.0" type="line"/>
      <point x="310.0" y="60.0" type="line" smooth="yes"/>
      <point x="296.0" y="0.0"/>
      <point x="236.0" y="0.0" type="qcurve" smooth="yes"/>
    </contour>
  </outline>
</glyph>
<glyph name="afii10089" format="2">
  <advance width="1130"/>
  <unicode hex="0447"/>
  <outline>
    <contour>
      <point x="150.0" y="736.0" type="qcurve" smooth="yes"/>
      <point x="209.0" y="990.0" type="line" smooth="yes"/>
      <point x="223.0" y="1050.0"/>
      <point x="282.0" y="1050.0" type="qcurve" smooth="yes"/>
      <point x="442.0" y="1050.0" type="line" smooth="yes"/>
      <point x="503.0" y="1050.0"/>
      <point x="489.0" y="990.0" type="qcurve" smooth="yes"/>
      <point x="427.0" y="724.0" type="line" smooth="yes"/>
      <point x="406.0" y="634.0"/>
      <point x="464.0" y="576.0"/>
      <point x="537.0" y="576.0" type="qcurve" smooth="yes"/>
      <point x="576.0" y="576.0"/>
      <point x="693.0" y="591.0"/>
      <point x="743.0" y="646.0" type="qcurve"/>
      <point x="823.0" y="990.0" type="line" smooth="yes"/>
      <point x="837.0" y="1050.0"/>
      <point x="896.0" y="1050.0" type="qcurve" smooth="yes"/>
      <point x="1056.0" y="1050.0" type="line" smooth="yes"/>
      <point x="1117.0" y="1050.0"/>
      <point x="1103.0" y="990.0" type="qcurve" smooth="yes"/>
      <point x="888.0" y="60.0" type="line" smooth="yes"/>
      <point x="874.0" y="0.0"/>
      <point x="814.0" y="0.0" type="qcurve" smooth="yes"/>
      <point x="654.0" y="0.0" type="line" smooth="yes"/>
      <point x="594.0" y="0.0"/>
      <point x="608.0" y="60.0" type="qcurve" smooth="yes"/>
      <point x="676.0" y="356.0" type="line" smooth="yes"/>
      <point x="686.0" y="398.0"/>
      <point x="699.0" y="436.0" type="qcurve"/>
      <point x="693.0" y="436.0" type="line"/>
      <point x="626.0" y="406.0"/>
      <point x="468.0" y="380.0"/>
      <point x="400.0" y="380.0" type="qcurve" smooth="yes"/>
      <point x="244.0" y="380.0"/>
      <point x="114.0" y="582.0"/>
    </contour>
  </outline>
</glyph>
<glyph name="afii10094" format="2">
  <advance width="1062"/>
  <unicode hex="044C"/>
  <outline>
    <contour>
      <point x="110.0" y="405.0" type="qcurve" smooth="yes"/>
      <point x="245.0" y="990.0" type="line" smooth="yes"/>
      <point x="259.0" y="1050.0"/>
      <point x="318.0" y="1050.0" type="qcurve" smooth="yes"/>
      <point x="478.0" y="1050.0" type="line" smooth="yes"/>
      <point x="539.0" y="1050.0"/>
      <point x="525.0" y="990.0" type="qcurve" smooth="yes"/>
      <point x="451.0" y="667.0" type="line" smooth="yes"/>
      <point x="440.0" y="620.0"/>
      <point x="428.0" y="587.0" type="qcurve"/>
      <point x="433.0" y="587.0" type="line"/>
      <point x="466.0" y="628.0"/>
      <point x="601.0" y="664.0"/>
      <point x="657.0" y="664.0" type="qcurve" smooth="yes"/>
      <point x="786.0" y="664.0"/>
      <point x="966.0" y="496.0"/>
      <point x="966.0" y="359.0" type="qcurve" smooth="yes"/>
      <point x="966.0" y="222.0"/>
      <point x="718.0" y="-20.0"/>
      <point x="451.0" y="-20.0" type="qcurve" smooth="yes"/>
      <point x="226.0" y="-20.0"/>
      <point x="75.0" y="252.0"/>
    </contour>
    <contour>
      <point x="373.0" y="336.0" type="qcurve" smooth="yes"/>
      <point x="355.0" y="260.0"/>
      <point x="426.0" y="176.0"/>
      <point x="487.0" y="176.0" type="qcurve" smooth="yes"/>
      <point x="573.0" y="176.0"/>
      <point x="670.0" y="268.0"/>
      <point x="670.0" y="358.0" type="qcurve" smooth="yes"/>
      <point x="670.0" y="415.0"/>
      <point x="601.0" y="468.0"/>
      <point x="559.0" y="468.0" type="qcurve" smooth="yes"/>
      <point x="494.0" y="468.0"/>
      <point x="389.0" y="404.0"/>
    </contour>
  </outline>
</glyph>
<glyph name="afii10095" format="2">
  <advance width="1085"/>
  <unicode hex="044D"/>
  <outline>
    <contour>
      <point x="67.0" y="116.0" type="qcurve" smooth="yes"/>
      <point x="27.0" y="159.0"/>
      <point x="72.0" y="197.0" type="qcurve" smooth="yes"/>
      <point x="161.0" y="272.0" type="line" smooth="yes"/>
      <point x="204.0" y="309.0"/>
      <point x="238.0" y="272.0" type="qcurve" smooth="yes"/>
      <point x="265.0" y="243.0"/>
      <point x="354.0" y="176.0"/>
      <point x="417.0" y="176.0" type="qcurve" smooth="yes"/>
      <point x="531.0" y="176.0"/>
      <point x="691.0" y="324.0"/>
      <point x="720.0" y="448.0" type="qcurve"/>
      <point x="318.0" y="448.0" type="line" smooth="yes"/>
      <point x="257.0" y="448.0"/>
      <point x="269.0" y="498.0" type="qcurve" smooth="yes"/>
      <point x="293.0" y="598.0" type="line" smooth="yes"/>
      <point x="305.0" y="648.0"/>
      <point x="364.0" y="648.0" type="qcurve" smooth="yes"/>
      <point x="743.0" y="648.0" type="line"/>
      <point x="747.0" y="756.0"/>
      <point x="638.0" y="874.0"/>
      <point x="539.0" y="874.0" type="qcurve" smooth="yes"/>
      <point x="466.0" y="874.0"/>
      <point x="378.0" y="838.0"/>
      <point x="328.0" y="796.0" type="qcurve" smooth="yes"/>
      <point x="279.0" y="755.0"/>
      <point x="251.0" y="788.0" type="qcurve" smooth="yes"/>
      <point x="180.0" y="873.0" type="line" smooth="yes"/>
      <point x="144.0" y="916.0"/>
      <point x="178.0" y="948.0" type="qcurve" smooth="yes"/>
      <point x="232.0" y="998.0"/>
      <point x="416.0" y="1070.0"/>
      <point x="539.0" y="1070.0" type="qcurve" smooth="yes"/>
      <point x="780.0" y="1070.0"/>
      <point x="1029.0" y="825.0"/>
      <point x="1029.0" y="615.0" type="qcurve" smooth="yes"/>
      <point x="1029.0" y="360.0"/>
      <point x="704.0" y="-20.0"/>
      <point x="439.0" y="-20.0" type="qcurve" smooth="yes"/>
      <point x="266.0" y="-20.0"/>
      <point x="120.0" y="60.0"/>
    </contour>
  </outline>
</glyph>
